{
copyright = "Copyright (c) 2015, Cadson Demak (info@cadsondemak.com)";
customParameters = (
{
name = vendorID;
value = CDK;
},
{
name = description;
value = "Copyright (c) 2015, Cadson Demak (info@cadsondemak.com)";
},
{
name = license;

glyphs = (
{
glyphname = A;
lastChange = "2015-11-25 08:30:49 +0000";
layers = (
{
layerId = "B67427C8-F911-4143-A2F2-7B953CC18A6E";
name = "Regular Italic";
paths = (
{
closed = 1;
nodes = (
"127 0 LINE",
"219 155 LINE",
"456 155 LINE",
"485 0 LINE",
"620 0 LINE",
"511 644 LINE",
"363 644 LINE",
"-19 0 LINE"
);
},
{
closed = 1;
nodes = (
"415 518 LINE",
"459 259 LINE",
"262 259 LINE"
);
}
);
width = 713;
}
);
leftKerningGroup = A;
note = A;
rightKerningGroup = A;
unicode = 0041;
},
{
glyphname = Aacute;
lastChange = "2015-11-25 08:30:50 +0000";
layers = (
{
layerId = "B67427C8-F911-4143-A2F2-7B953CC18A6E";
name = "Regular Italic";
paths = (
{
closed = 1;
nodes = (
"127 0 LINE",
"219 155 LINE",
"456 155 LINE",
"485 0 LINE",
"620 0 LINE",
"511 644 LINE",
"363 644 LINE",
"-19 0 LINE"
);
},
{
closed = 1;
nodes = (
"415 518 LINE",
"459 259 LINE",
"262 259 LINE"
);
},
{
closed = 1;
nodes = (
"496 688 LINE",
"624 875 LINE",
"507 875 LINE",
"387 688 LINE"
);
}
);
width = 713;
}
);
leftKerningGroup = A;
note = Aacute;
rightKerningGroup = A;
unicode = 00C1;
},
{
glyphname = Abreve;
lastChange = "2015-11-25 08:30:52 +0000";
layers = (
{
layerId = "B67427C8-F911-4143-A2F2-7B953CC18A6E";
name = "Regular Italic";
paths = (
{
closed = 1;
nodes = (
"127 0 LINE",
"219 155 LINE",
"456 155 LINE",
"485 0 LINE",
"620 0 LINE",
"511 644 LINE",
"363 644 LINE",
"-19 0 LINE"
);
},
{
closed = 1;
nodes = (
"415 518 LINE",
"459 259 LINE",
"262 259 LINE"
);
},
{
closed = 1;
nodes = (
"553 688 OFFCURVE",
"617 747 OFFCURVE",
"638 845 CURVE",
"543 845 LINE",
"534 803 OFFCURVE",
"503 766 OFFCURVE",
"457 766 CURVE SMOOTH",
"404 766 OFFCURVE",
"398 803 OFFCURVE",
"407 845 CURVE",
"323 845 LINE",
"302 747 OFFCURVE",
"353 688 OFFCURVE",
"445 688 CURVE SMOOTH"
);
}
);
width = 713;
}
);
leftKerningGroup = A;
note = Abreve;
rightKerningGroup = A;
unicode = 0102;
},
{
glyphname = Abreveacute;
lastChange = "2015-11-25 08:30:53 +0000";
layers = (
{
layerId = "B67427C8-F911-4143-A2F2-7B953CC18A6E";
name = "Regular Italic";
paths = (
{
closed = 1;
nodes = (
"127 0 LINE",
"219 155 LINE",
"456 155 LINE",
"485 0 LINE",
"620 0 LINE",
"511 644 LINE",
"363 644 LINE",
"-19 0 LINE"
);
},
{
closed = 1;
nodes = (
"415 518 LINE",
"459 259 LINE",
"262 259 LINE"
);
},
{
closed = 1;
nodes = (
"551 688 OFFCURVE",
"621 733 OFFCURVE",
"645 844 CURVE",
"562 844 LINE",
"550 789 OFFCURVE",
"517 759 OFFCURVE",
"460 759 CURVE SMOOTH",
"395 759 OFFCURVE",
"381 789 OFFCURVE",
"393 844 CURVE",
"316 844 LINE",
"292 733 OFFCURVE",
"360 688 OFFCURVE",
"448 688 CURVE SMOOTH"
);
},
{
closed = 1;
nodes = (
"515 818 LINE",
"618 959 LINE",
"516 959 LINE",
"420 818 LINE"
);
}
);
width = 713;
}
);
leftKerningGroup = A;
note = Abreveacute;
rightKerningGroup = A;
unicode = 1EAE;
},
{
glyphname = Abrevedotbelow;
lastChange = "2015-11-25 08:30:51 +0000";
layers = (
{
layerId = "B67427C8-F911-4143-A2F2-7B953CC18A6E";
name = "Regular Italic";
paths = (
{
closed = 1;
nodes = (
"127 0 LINE",
"219 155 LINE",
"456 155 LINE",
"485 0 LINE",
"620 0 LINE",
"511 644 LINE",
"363 644 LINE",
"-19 0 LINE"
);
},
{
closed = 1;
nodes = (
"316 -181 LINE",
"337 -82 LINE",
"230 -82 LINE",
"209 -181 LINE"
);
},
{
closed = 1;
nodes = (
"415 518 LINE",
"459 259 LINE",
"262 259 LINE"
);
},
{
closed = 1;
nodes = (
"552 688 OFFCURVE",
"616 747 OFFCURVE",
"637 845 CURVE",
"542 845 LINE",
"533 803 OFFCURVE",
"502 766 OFFCURVE",
"456 766 CURVE SMOOTH",
"403 766 OFFCURVE",
"397 803 OFFCURVE",
"406 845 CURVE",
"322 845 LINE",
"301 747 OFFCURVE",
"352 688 OFFCURVE",
"444 688 CURVE SMOOTH"
);
}
);
width = 713;
}
);
leftKerningGroup = A;
note = Abrevedotbelow;
rightKerningGroup = A;
unicode = 1EB6;
},
{
glyphname = Abrevegrave;
lastChange = "2015-11-25 08:30:51 +0000";
layers = (
{
layerId = "B67427C8-F911-4143-A2F2-7B953CC18A6E";
name = "Regular Italic";
paths = (
{
closed = 1;
nodes = (
"127 0 LINE",
"219 155 LINE",
"456 155 LINE",
"485 0 LINE",
"620 0 LINE",
"511 644 LINE",
"363 644 LINE",
"-19 0 LINE"
);
},
{
closed = 1;
nodes = (
"415 518 LINE",
"459 259 LINE",
"262 259 LINE"
);
},
{
closed = 1;
nodes = (
"551 688 OFFCURVE",
"621 733 OFFCURVE",
"645 844 CURVE",
"562 844 LINE",
"550 789 OFFCURVE",
"517 759 OFFCURVE",
"460 759 CURVE SMOOTH",
"395 759 OFFCURVE",
"381 789 OFFCURVE",
"393 844 CURVE",
"316 844 LINE",
"292 733 OFFCURVE",
"360 688 OFFCURVE",
"448 688 CURVE SMOOTH"
);
},
{
closed = 1;
nodes = (
"529 818 LINE",
"493 959 LINE",
"391 959 LINE",
"434 818 LINE"
);
}
);
width = 713;
}
);
leftKerningGroup = A;
note = Abrevegrave;
rightKerningGroup = A;
unicode = 1EB0;
},
{
glyphname = Abrevehookabove;
lastChange = "2015-11-25 08:30:51 +0000";
layers = (
{
layerId = "B67427C8-F911-4143-A2F2-7B953CC18A6E";
name = "Regular Italic";
paths = (
{
closed = 1;
nodes = (
"127 0 LINE",
"219 155 LINE",
"456 155 LINE",
"485 0 LINE",
"620 0 LINE",
"511 644 LINE",
"363 644 LINE",
"-19 0 LINE"
);
},
{
closed = 1;
nodes = (
"415 518 LINE",
"459 259 LINE",
"262 259 LINE"
);
},
{
closed = 1;
nodes = (
"551 688 OFFCURVE",
"621 733 OFFCURVE",
"645 844 CURVE",
"562 844 LINE",
"550 789 OFFCURVE",
"517 759 OFFCURVE",
"460 759 CURVE SMOOTH",
"395 759 OFFCURVE",
"381 789 OFFCURVE",
"393 844 CURVE",
"316 844 LINE",
"292 733 OFFCURVE",
"360 688 OFFCURVE",
"448 688 CURVE SMOOTH"
);
},
{
closed = 1;
nodes = (
"519 827 LINE",
"526 859 LINE",
"583 870 OFFCURVE",
"609 893 OFFCURVE",
"619 937 CURVE SMOOTH",
"629 985 OFFCURVE",
"598 1017 OFFCURVE",
"531 1017 CURVE SMOOTH",
"498 1017 OFFCURVE",
"464 1012 OFFCURVE",
"440 1005 CURVE",
"428 948 LINE",
"445 955 OFFCURVE",
"465 960 OFFCURVE",
"485 960 CURVE SMOOTH",
"519 960 OFFCURVE",
"533 953 OFFCURVE",
"528 928 CURVE SMOOTH",
"523 904 OFFCURVE",
"502 890 OFFCURVE",
"440 887 CURVE",
"427 827 LINE"
);
}
);
width = 713;
}
);
leftKerningGroup = A;
note = Abrevehookabove;
rightKerningGroup = A;
unicode = 1EB2;
},
{
glyphname = Abrevetilde;
lastChange = "2015-11-25 08:30:52 +0000";
layers = (
{
layerId = "B67427C8-F911-4143-A2F2-7B953CC18A6E";
name = "Regular Italic";
paths = (
{
closed = 1;
nodes = (
"127 0 LINE",
"219 155 LINE",
"456 155 LINE",
"485 0 LINE",
"620 0 LINE",
"511 644 LINE",
"363 644 LINE",
"-19 0 LINE"
);
},
{
closed = 1;
nodes = (
"415 518 LINE",
"459 259 LINE",
"262 259 LINE"
);
},
{
closed = 1;
nodes = (
"551 688 OFFCURVE",
"621 733 OFFCURVE",
"645 844 CURVE",
"562 844 LINE",
"550 789 OFFCURVE",
"517 759 OFFCURVE",
"460 759 CURVE SMOOTH",
"395 759 OFFCURVE",
"381 789 OFFCURVE",
"393 844 CURVE",
"316 844 LINE",
"292 733 OFFCURVE",
"360 688 OFFCURVE",
"448 688 CURVE SMOOTH"
);
},
{
closed = 1;
nodes = (
"608 865 OFFCURVE",
"641 879 OFFCURVE",
"658 897 CURVE",
"675 983 LINE",
"654 959 OFFCURVE",
"623 945 OFFCURVE",
"585 945 CURVE SMOOTH",
"529 945 OFFCURVE",
"494 985 OFFCURVE",
"433 985 CURVE SMOOTH",
"398 985 OFFCURVE",
"361 972 OFFCURVE",
"339 954 CURVE",
"321 868 LINE",
"349 893 OFFCURVE",
"382 905 OFFCURVE",
"419 905 CURVE SMOOTH",
"468 905 OFFCURVE",
"512 865 OFFCURVE",
"571 865 CURVE SMOOTH"
);
}
);
width = 713;
}
);
leftKerningGroup = A;
note = Abrevetilde;
rightKerningGroup = A;
unicode = 1EB4;
},
{
glyphname = Acaron;
lastChange = "2015-11-25 08:30:49 +0000";
layers = (
{
layerId = "B67427C8-F911-4143-A2F2-7B953CC18A6E";
name = "Regular Italic";
paths = (
{
closed = 1;
nodes = (
"127 0 LINE",
"219 155 LINE",
"456 155 LINE",
"485 0 LINE",
"620 0 LINE",
"511 644 LINE",
"363 644 LINE",
"-19 0 LINE"
);
},
{
closed = 1;
nodes = (
"415 518 LINE",
"459 259 LINE",
"262 259 LINE"
);
},
{
closed = 1;
nodes = (
"489 688 LINE",
"661 862 LINE",
"552 862 LINE",
"456 762 LINE",
"406 862 LINE",
"306 862 LINE",
"403 688 LINE"
);
}
);
width = 713;
}
);
leftKerningGroup = A;
note = Acaron;
rightKerningGroup = A;
unicode = 01CD;
},
{
glyphname = Acircumflex;
lastChange = "2015-11-25 08:30:50 +0000";
layers = (
{
layerId = "B67427C8-F911-4143-A2F2-7B953CC18A6E";
name = "Regular Italic";
paths = (
{
closed = 1;
nodes = (
"127 0 LINE",
"219 155 LINE",
"456 155 LINE",
"485 0 LINE",
"620 0 LINE",
"511 644 LINE",
"363 644 LINE",
"-19 0 LINE"
);
},
{
closed = 1;
nodes = (
"415 518 LINE",
"459 259 LINE",
"262 259 LINE"
);
},
{
closed = 1;
nodes = (
"379 688 LINE",
"472 788 LINE",
"525 688 LINE",
"624 688 LINE",
"526 862 LINE",
"440 862 LINE",
"269 688 LINE"
);
}
);
width = 713;
}
);
leftKerningGroup = A;
note = Acircumflex;
rightKerningGroup = A;
unicode = 00C2;
},
{
glyphname = Acircumflexacute;
lastChange = "2015-11-25 08:30:50 +0000";
layers = (
{
layerId = "B67427C8-F911-4143-A2F2-7B953CC18A6E";
name = "Regular Italic";
paths = (
{
closed = 1;
nodes = (
"127 0 LINE",
"219 155 LINE",
"456 155 LINE",
"485 0 LINE",
"620 0 LINE",
"511 644 LINE",
"363 644 LINE",
"-19 0 LINE"
);
},
{
closed = 1;
nodes = (
"415 518 LINE",
"459 259 LINE",
"262 259 LINE"
);
},
{
closed = 1;
nodes = (
"381 688 LINE",
"465 769 LINE",
"516 688 LINE",
"620 688 LINE",
"522 823 LINE",
"419 823 LINE",
"265 688 LINE"
);
},
{
closed = 1;
nodes = (
"663 805 LINE",
"766 946 LINE",
"664 946 LINE",
"569 805 LINE"
);
}
);
width = 713;
}
);
leftKerningGroup = A;
note = Acircumflexacute;
rightKerningGroup = A;
unicode = 1EA4;
},
{
glyphname = Acircumflexdotbelow;
lastChange = "2015-11-25 08:30:51 +0000";
layers = (
{
layerId = "B67427C8-F911-4143-A2F2-7B953CC18A6E";
name = "Regular Italic";
paths = (
{
closed = 1;
nodes = (
"127 0 LINE",
"219 155 LINE",
"456 155 LINE",
"485 0 LINE",
"620 0 LINE",
"511 644 LINE",
"363 644 LINE",
"-19 0 LINE"
);
},
{
closed = 1;
nodes = (
"316 -181 LINE",
"337 -82 LINE",
"230 -82 LINE",
"209 -181 LINE"
);
},
{
closed = 1;
nodes = (
"415 518 LINE",
"459 259 LINE",
"262 259 LINE"
);
},
{
closed = 1;
nodes = (
"379 688 LINE",
"472 788 LINE",
"525 688 LINE",
"624 688 LINE",
"526 862 LINE",
"440 862 LINE",
"269 688 LINE"
);
}
);
width = 713;
}
);
leftKerningGroup = A;
note = Acircumflexdotbelow;
rightKerningGroup = A;
unicode = 1EAC;
},
{
glyphname = Acircumflexgrave;
lastChange = "2015-11-25 08:30:51 +0000";
layers = (
{
layerId = "B67427C8-F911-4143-A2F2-7B953CC18A6E";
name = "Regular Italic";
paths = (
{
closed = 1;
nodes = (
"127 0 LINE",
"219 155 LINE",
"456 155 LINE",
"485 0 LINE",
"620 0 LINE",
"511 644 LINE",
"363 644 LINE",
"-19 0 LINE"
);
},
{
closed = 1;
nodes = (
"415 518 LINE",
"459 259 LINE",
"262 259 LINE"
);
},
{
closed = 1;
nodes = (
"370 805 LINE",
"334 946 LINE",
"232 946 LINE",
"275 805 LINE"
);
},
{
closed = 1;
nodes = (
"385 688 LINE",
"469 769 LINE",
"520 688 LINE",
"624 688 LINE",
"526 823 LINE",
"423 823 LINE",
"269 688 LINE"
);
}
);
width = 713;
}
);
leftKerningGroup = A;
note = Acircumflexgrave;
rightKerningGroup = A;
unicode = 1EA6;
},
{
glyphname = Acircumflexhookabove;
lastChange = "2015-11-25 08:30:52 +0000";
layers = (
{
layerId = "B67427C8-F911-4143-A2F2-7B953CC18A6E";
name = "Regular Italic";
paths = (
{
closed = 1;
nodes = (
"127 0 LINE",
"219 155 LINE",
"456 155 LINE",
"485 0 LINE",
"620 0 LINE",
"511 644 LINE",
"363 644 LINE",
"-19 0 LINE"
);
},
{
closed = 1;
nodes = (
"415 518 LINE",
"459 259 LINE",
"262 259 LINE"
);
},
{
closed = 1;
nodes = (
"385 688 LINE",
"469 769 LINE",
"520 688 LINE",
"624 688 LINE",
"526 823 LINE",
"423 823 LINE",
"269 688 LINE"
);
},
{
closed = 1;
nodes = (
"669 783 LINE",
"676 817 LINE",
"731 825 OFFCURVE",
"760 852 OFFCURVE",
"769 896 CURVE SMOOTH",
"779 944 OFFCURVE",
"746 977 OFFCURVE",
"676 977 CURVE SMOOTH",
"639 977 OFFCURVE",
"614 972 OFFCURVE",
"592 965 CURVE",
"578 903 LINE",
"595 910 OFFCURVE",
"614 915 OFFCURVE",
"634 915 CURVE SMOOTH",
"664 915 OFFCURVE",
"677 908 OFFCURVE",
"673 888 CURVE SMOOTH",
"669 866 OFFCURVE",
"653 856 OFFCURVE",
"592 853 CURVE",
"577 783 LINE"
);
}
);
width = 713;
}
);
leftKerningGroup = A;
note = Acircumflexhookabove;
rightKerningGroup = A;
unicode = 1EA8;
},
{
glyphname = Acircumflextilde;
lastChange = "2015-11-25 08:30:50 +0000";
layers = (
{
layerId = "B67427C8-F911-4143-A2F2-7B953CC18A6E";
name = "Regular Italic";
paths = (
{
closed = 1;
nodes = (
"127 0 LINE",
"219 155 LINE",
"456 155 LINE",
"485 0 LINE",
"620 0 LINE",
"511 644 LINE",
"363 644 LINE",
"-19 0 LINE"
);
},
{
closed = 1;
nodes = (
"415 518 LINE",
"459 259 LINE",
"262 259 LINE"
);
},
{
closed = 1;
nodes = (
"385 688 LINE",
"469 769 LINE",
"520 688 LINE",
"624 688 LINE",
"526 823 LINE",
"423 823 LINE",
"269 688 LINE"
);
},
{
closed = 1;
nodes = (
"610 838 OFFCURVE",
"642 852 OFFCURVE",
"658 870 CURVE",
"677 956 LINE",
"655 932 OFFCURVE",
"625 918 OFFCURVE",
"587 918 CURVE SMOOTH",
"531 918 OFFCURVE",
"495 958 OFFCURVE",
"434 958 CURVE SMOOTH",
"399 958 OFFCURVE",
"362 945 OFFCURVE",
"341 927 CURVE",
"322 841 LINE",
"351 866 OFFCURVE",
"383 878 OFFCURVE",
"420 878 CURVE SMOOTH",
"469 878 OFFCURVE",
"514 838 OFFCURVE",
"573 838 CURVE SMOOTH"
);
}
);
width = 713;
}
);
leftKerningGroup = A;
note = Acircumflextilde;
rightKerningGroup = A;
unicode = 1EAA;
},
{
glyphname = Adieresis;
lastChange = "2015-11-25 08:30:52 +0000";
layers = (
{
layerId = "B67427C8-F911-4143-A2F2-7B953CC18A6E";
name = "Regular Italic";
paths = (
{
closed = 1;
nodes = (
"127 0 LINE",
"219 155 LINE",
"456 155 LINE",
"485 0 LINE",
"620 0 LINE",
"511 644 LINE",
"363 644 LINE",
"-19 0 LINE"
);
},
{
closed = 1;
nodes = (
"415 518 LINE",
"459 259 LINE",
"262 259 LINE"
);
},
{
closed = 1;
nodes = (
"405 712 LINE",
"426 810 LINE",
"321 810 LINE",
"300 712 LINE"
);
},
{
closed = 1;
nodes = (
"601 712 LINE",
"622 810 LINE",
"516 810 LINE",
"495 712 LINE"
);
}
);
width = 713;
}
);
leftKerningGroup = A;
note = Adieresis;
rightKerningGroup = A;
unicode = 00C4;
},
{
glyphname = Adotbelow;
lastChange = "2015-11-25 08:30:52 +0000";
layers = (
{
layerId = "B67427C8-F911-4143-A2F2-7B953CC18A6E";
name = "Regular Italic";
paths = (
{
closed = 1;
nodes = (
"127 0 LINE",
"219 155 LINE",
"456 155 LINE",
"485 0 LINE",
"620 0 LINE",
"511 644 LINE",
"363 644 LINE",
"-19 0 LINE"
);
},
{
closed = 1;
nodes = (
"316 -181 LINE",
"337 -82 LINE",
"230 -82 LINE",
"209 -181 LINE"
);
},
{
closed = 1;
nodes = (
"415 518 LINE",
"459 259 LINE",
"262 259 LINE"
);
}
);
width = 713;
}
);
leftKerningGroup = A;
note = Adotbelow;
rightKerningGroup = A;
unicode = 1EA0;
},
{
glyphname = Agrave;
lastChange = "2015-11-25 08:30:52 +0000";
layers = (
{
layerId = "B67427C8-F911-4143-A2F2-7B953CC18A6E";
name = "Regular Italic";
paths = (
{
closed = 1;
nodes = (
"127 0 LINE",
"219 155 LINE",
"456 155 LINE",
"485 0 LINE",
"620 0 LINE",
"511 644 LINE",
"363 644 LINE",
"-19 0 LINE"
);
},
{
closed = 1;
nodes = (
"415 518 LINE",
"459 259 LINE",
"262 259 LINE"
);
},
{
closed = 1;
nodes = (
"499 688 LINE",
"459 875 LINE",
"342 875 LINE",
"390 688 LINE"
);
}
);
width = 713;
}
);
leftKerningGroup = A;
note = Agrave;
rightKerningGroup = A;
unicode = 00C0;
},
{
glyphname = Ahookabove;
lastChange = "2015-11-25 08:30:51 +0000";
layers = (
{
layerId = "B67427C8-F911-4143-A2F2-7B953CC18A6E";
name = "Regular Italic";
paths = (
{
closed = 1;
nodes = (
"127 0 LINE",
"219 155 LINE",
"456 155 LINE",
"485 0 LINE",
"620 0 LINE",
"511 644 LINE",
"363 644 LINE",
"-19 0 LINE"
);
},
{
closed = 1;
nodes = (
"415 518 LINE",
"459 259 LINE",
"262 259 LINE"
);
},
{
closed = 1;
nodes = (
"500 688 LINE",
"510 734 LINE",
"576 746 OFFCURVE",
"605 773 OFFCURVE",
"617 829 CURVE SMOOTH",
"629 887 OFFCURVE",
"591 925 OFFCURVE",
"506 925 CURVE SMOOTH",
"467 925 OFFCURVE",
"429 920 OFFCURVE",
"404 912 CURVE",
"389 845 LINE",
"407 852 OFFCURVE",
"435 856 OFFCURVE",
"454 856 CURVE SMOOTH",
"497 856 OFFCURVE",
"520 844 OFFCURVE",
"514 817 CURVE SMOOTH",
"508 787 OFFCURVE",
"488 773 OFFCURVE",
"414 769 CURVE",
"397 688 LINE"
);
}
);
width = 713;
}
);
leftKerningGroup = A;
note = Ahookabove;
rightKerningGroup = A;
unicode = 1EA2;
},
{
glyphname = Amacron;
lastChange = "2015-11-25 08:30:52 +0000";
layers = (
{
layerId = "B67427C8-F911-4143-A2F2-7B953CC18A6E";
name = "Regular Italic";
paths = (
{
closed = 1;
nodes = (
"127 0 LINE",
"219 155 LINE",
"456 155 LINE",
"485 0 LINE",
"620 0 LINE",
"511 644 LINE",
"363 644 LINE",
"-19 0 LINE"
);
},
{
closed = 1;
nodes = (
"415 518 LINE",
"459 259 LINE",
"262 259 LINE"
);
},
{
closed = 1;
nodes = (
"604 707 LINE",
"621 790 LINE",
"314 790 LINE",
"297 707 LINE"
);
}
);
width = 713;
}
);
leftKerningGroup = A;
note = Amacron;
rightKerningGroup = A;
unicode = 0100;
},
{
glyphname = Aogonek;
lastChange = "2015-11-25 08:30:51 +0000";
layers = (
{
layerId = "B67427C8-F911-4143-A2F2-7B953CC18A6E";
name = "Regular Italic";
paths = (
{
closed = 1;
nodes = (
"549 -220 OFFCURVE",
"583 -214 OFFCURVE",
"603 -206 CURVE",
"619 -130 LINE",
"605 -137 OFFCURVE",
"585 -141 OFFCURVE",
"569 -141 CURVE SMOOTH",
"542 -141 OFFCURVE",
"525 -132 OFFCURVE",
"531 -104 CURVE SMOOTH",
"539 -66 OFFCURVE",
"569 -28 OFFCURVE",
"620 0 CURVE",
"511 644 LINE",
"363 644 LINE",
"-19 0 LINE",
"127 0 LINE",
"219 155 LINE",
"462 155 LINE",
"491 0 LINE",
"461 -26 OFFCURVE",
"427 -71 OFFCURVE",
"420 -129 CURVE SMOOTH",
"412 -192 OFFCURVE",
"455 -220 OFFCURVE",
"516 -220 CURVE SMOOTH"
);
},
{
closed = 1;
nodes = (
"415 518 LINE",
"459 259 LINE",
"262 259 LINE"
);
}
);
width = 713;
}
);
leftKerningGroup = A;
note = Aogonek;
rightKerningGroup = A;
unicode = 0104;
},
{
glyphname = Aring;
lastChange = "2015-11-25 08:30:50 +0000";
layers = (
{
layerId = "B67427C8-F911-4143-A2F2-7B953CC18A6E";
name = "Regular Italic";
paths = (
{
closed = 1;
nodes = (
"127 0 LINE",
"219 155 LINE",
"456 155 LINE",
"485 0 LINE",
"620 0 LINE",
"515 620 LINE",
"547 642 OFFCURVE",
"568 675 OFFCURVE",
"576 714 CURVE SMOOTH",
"590 781 OFFCURVE",
"554 834 OFFCURVE",
"476 834 CURVE SMOOTH",
"397 834 OFFCURVE",
"341 781 OFFCURVE",
"328 714 CURVE SMOOTH",
"320 676 OFFCURVE",
"328 643 OFFCURVE",
"350 622 CURVE",
"-19 0 LINE"
);
},
{
closed = 1;
nodes = (
"415 518 LINE",
"459 259 LINE",
"262 259 LINE"
);
},
{
closed = 1;
nodes = (
"404 657 OFFCURVE",
"386 682 OFFCURVE",
"393 714 CURVE SMOOTH",
"400 746 OFFCURVE",
"424 771 OFFCURVE",
"463 771 CURVE SMOOTH",
"500 771 OFFCURVE",
"517 746 OFFCURVE",
"510 714 CURVE SMOOTH",
"503 682 OFFCURVE",
"481 657 OFFCURVE",
"439 657 CURVE SMOOTH"
);
}
);
width = 713;
}
);
leftKerningGroup = A;
note = Aring;
rightKerningGroup = A;
unicode = 00C5;
},
{
glyphname = Aringacute;
lastChange = "2015-11-25 08:30:50 +0000";
layers = (
{
layerId = "B67427C8-F911-4143-A2F2-7B953CC18A6E";
name = "Regular Italic";
paths = (
{
closed = 1;
nodes = (
"127 0 LINE",
"219 155 LINE",
"456 155 LINE",
"485 0 LINE",
"620 0 LINE",
"515 620 LINE",
"547 642 OFFCURVE",
"568 675 OFFCURVE",
"576 714 CURVE SMOOTH",
"590 781 OFFCURVE",
"554 834 OFFCURVE",
"476 834 CURVE SMOOTH",
"397 834 OFFCURVE",
"341 781 OFFCURVE",
"328 714 CURVE SMOOTH",
"320 676 OFFCURVE",
"328 643 OFFCURVE",
"350 622 CURVE",
"-19 0 LINE"
);
},
{
closed = 1;
nodes = (
"415 518 LINE",
"459 259 LINE",
"262 259 LINE"
);
},
{
closed = 1;
nodes = (
"404 657 OFFCURVE",
"386 682 OFFCURVE",
"393 714 CURVE SMOOTH",
"400 746 OFFCURVE",
"424 771 OFFCURVE",
"463 771 CURVE SMOOTH",
"500 771 OFFCURVE",
"517 746 OFFCURVE",
"510 714 CURVE SMOOTH",
"503 682 OFFCURVE",
"481 657 OFFCURVE",
"439 657 CURVE SMOOTH"
);
},
{
closed = 1;
nodes = (
"527 854 LINE",
"655 1041 LINE",
"538 1041 LINE",
"418 854 LINE"
);
}
);
width = 713;
}
);
leftKerningGroup = A;
note = Aringacute;
rightKerningGroup = A;
unicode = 01FA;
},
{
glyphname = Atilde;
lastChange = "2015-11-25 08:30:52 +0000";
layers = (
{
layerId = "B67427C8-F911-4143-A2F2-7B953CC18A6E";
name = "Regular Italic";
paths = (
{
closed = 1;
nodes = (
"127 0 LINE",
"219 155 LINE",
"456 155 LINE",
"485 0 LINE",
"620 0 LINE",
"511 644 LINE",
"363 644 LINE",
"-19 0 LINE"
);
},
{
closed = 1;
nodes = (
"415 518 LINE",
"459 259 LINE",
"262 259 LINE"
);
},
{
closed = 1;
nodes = (
"570 689 OFFCURVE",
"603 703 OFFCURVE",
"619 721 CURVE",
"640 817 LINE",
"618 793 OFFCURVE",
"587 779 OFFCURVE",
"549 779 CURVE SMOOTH",
"493 779 OFFCURVE",
"457 819 OFFCURVE",
"396 819 CURVE SMOOTH",
"361 819 OFFCURVE",
"325 806 OFFCURVE",
"303 788 CURVE",
"282 692 LINE",
"311 717 OFFCURVE",
"343 729 OFFCURVE",
"380 729 CURVE SMOOTH",
"429 729 OFFCURVE",
"474 689 OFFCURVE",
"533 689 CURVE SMOOTH"
);
}
);
width = 713;
}
);
leftKerningGroup = A;
note = Atilde;
rightKerningGroup = A;
unicode = 00C3;
},
{
glyphname = AE;
lastChange = "2015-11-25 08:30:49 +0000";
layers = (
{
layerId = "B67427C8-F911-4143-A2F2-7B953CC18A6E";
name = "Regular Italic";
paths = (
{
closed = 1;
nodes = (
"127 0 LINE",
"220 156 LINE",
"380 156 LINE",
"347 0 LINE",
"756 0 LINE",
"778 104 LINE",
"504 104 LINE",
"539 270 LINE",
"776 270 LINE",
"798 374 LINE",
"561 374 LINE",
"596 539 LINE",
"870 539 LINE",
"892 644 LINE",
"363 644 LINE",
"-19 0 LINE"
);
},
{
closed = 1;
nodes = (
"436 544 LINE",
"462 544 LINE",
"402 260 LINE",
"273 260 LINE"
);
}
);
width = 849;
}
);
leftKerningGroup = A;
note = AE;
rightKerningGroup = E;
unicode = 00C6;
},
{
glyphname = AEacute;
lastChange = "2015-11-25 08:30:51 +0000";
layers = (
{
layerId = "B67427C8-F911-4143-A2F2-7B953CC18A6E";
name = "Regular Italic";
paths = (
{
closed = 1;
nodes = (
"127 0 LINE",
"220 156 LINE",
"380 156 LINE",
"347 0 LINE",
"756 0 LINE",
"778 104 LINE",
"504 104 LINE",
"539 270 LINE",
"776 270 LINE",
"798 374 LINE",
"561 374 LINE",
"596 539 LINE",
"870 539 LINE",
"892 644 LINE",
"363 644 LINE",
"-19 0 LINE"
);
},
{
closed = 1;
nodes = (
"436 544 LINE",
"462 544 LINE",
"402 260 LINE",
"273 260 LINE"
);
},
{
closed = 1;
nodes = (
"620 688 LINE",
"748 875 LINE",
"631 875 LINE",
"511 688 LINE"
);
}
);
width = 849;
}
);
leftKerningGroup = A;
note = AEacute;
rightKerningGroup = E;
unicode = 01FC;
},
{
glyphname = B;
lastChange = "2015-11-25 08:30:52 +0000";
layers = (
{
layerId = "B67427C8-F911-4143-A2F2-7B953CC18A6E";
name = "Regular Italic";
paths = (
{
closed = 1;
nodes = (
"339 0 LINE SMOOTH",
"480 0 OFFCURVE",
"555 64 OFFCURVE",
"582 188 CURVE SMOOTH",
"599 266 OFFCURVE",
"571 311 OFFCURVE",
"515 330 CURVE",
"565 355 OFFCURVE",
"603 401 OFFCURVE",
"618 470 CURVE SMOOTH",
"640 573 OFFCURVE",
"586 644 OFFCURVE",
"463 644 CURVE SMOOTH",
"137 644 LINE",
"1 0 LINE"
);
},
{
closed = 1;
nodes = (
"195 279 LINE",
"357 279 LINE SMOOTH",
"438 279 OFFCURVE",
"459 251 OFFCURVE",
"447 194 CURVE SMOOTH",
"432 123 OFFCURVE",
"396 99 OFFCURVE",
"328 99 CURVE SMOOTH",
"157 99 LINE"
);
},
{
closed = 1;
nodes = (
"251 544 LINE",
"407 544 LINE SMOOTH",
"484 544 OFFCURVE",
"502 516 OFFCURVE",
"490 459 CURVE SMOOTH",
"479 407 OFFCURVE",
"447 377 OFFCURVE",
"382 377 CURVE SMOOTH",
"216 377 LINE"
);
}
);
width = 636;
}
);
note = B;
unicode = 0042;
},
{
glyphname = C;
lastChange = "2015-11-25 08:30:50 +0000";
layers = (
{
layerId = "B67427C8-F911-4143-A2F2-7B953CC18A6E";
name = "Regular Italic";
paths = (
{
closed = 1;
nodes = (
"389 -10 OFFCURVE",
"452 1 OFFCURVE",
"511 19 CURVE",
"536 138 LINE",
"475 115 OFFCURVE",
"410 104 OFFCURVE",
"348 104 CURVE SMOOTH",
"191 104 OFFCURVE",
"154 174 OFFCURVE",
"185 316 CURVE SMOOTH",
"217 466 OFFCURVE",
"291 539 OFFCURVE",
"438 539 CURVE SMOOTH",
"504 539 OFFCURVE",
"562 527 OFFCURVE",
"613 504 CURVE",
"638 622 LINE",
"587 642 OFFCURVE",
"530 654 OFFCURVE",
"453 654 CURVE SMOOTH",
"219 654 OFFCURVE",
"93 529 OFFCURVE",
"48 316 CURVE SMOOTH",
"5 115 OFFCURVE",
"112 -10 OFFCURVE",
"312 -10 CURVE SMOOTH"
);
}
);
width = 600;
}
);
leftKerningGroup = C;
note = C;
rightKerningGroup = C;
unicode = 0043;
},
{
glyphname = Cacute;
lastChange = "2015-11-25 08:30:51 +0000";
layers = (
{
layerId = "B67427C8-F911-4143-A2F2-7B953CC18A6E";
name = "Regular Italic";
paths = (
{
closed = 1;
nodes = (
"389 -10 OFFCURVE",
"452 1 OFFCURVE",
"511 19 CURVE",
"536 138 LINE",
"475 115 OFFCURVE",
"410 104 OFFCURVE",
"348 104 CURVE SMOOTH",
"191 104 OFFCURVE",
"154 174 OFFCURVE",
"185 316 CURVE SMOOTH",
"217 466 OFFCURVE",
"291 539 OFFCURVE",
"438 539 CURVE SMOOTH",
"504 539 OFFCURVE",
"562 527 OFFCURVE",
"613 504 CURVE",
"638 622 LINE",
"587 642 OFFCURVE",
"530 654 OFFCURVE",
"453 654 CURVE SMOOTH",
"219 654 OFFCURVE",
"93 529 OFFCURVE",
"48 316 CURVE SMOOTH",
"5 115 OFFCURVE",
"112 -10 OFFCURVE",
"312 -10 CURVE SMOOTH"
);
},
{
closed = 1;
nodes = (
"501 688 LINE",
"629 875 LINE",
"512 875 LINE",
"392 688 LINE"
);
}
);
width = 600;
}
);
leftKerningGroup = C;
note = Cacute;
rightKerningGroup = C;
unicode = 0106;
},
{
glyphname = Ccaron;
lastChange = "2015-11-25 08:30:52 +0000";
layers = (
{
layerId = "B67427C8-F911-4143-A2F2-7B953CC18A6E";
name = "Regular Italic";
paths = (
{
closed = 1;
nodes = (
"389 -10 OFFCURVE",
"452 1 OFFCURVE",
"511 19 CURVE",
"536 138 LINE",
"475 115 OFFCURVE",
"410 104 OFFCURVE",
"348 104 CURVE SMOOTH",
"191 104 OFFCURVE",
"154 174 OFFCURVE",
"185 316 CURVE SMOOTH",
"217 466 OFFCURVE",
"291 539 OFFCURVE",
"438 539 CURVE SMOOTH",
"504 539 OFFCURVE",
"562 527 OFFCURVE",
"613 504 CURVE",
"638 622 LINE",
"587 642 OFFCURVE",
"530 654 OFFCURVE",
"453 654 CURVE SMOOTH",
"219 654 OFFCURVE",
"93 529 OFFCURVE",
"48 316 CURVE SMOOTH",
"5 115 OFFCURVE",
"112 -10 OFFCURVE",
"312 -10 CURVE SMOOTH"
);
},
{
closed = 1;
nodes = (
"506 688 LINE",
"678 862 LINE",
"569 862 LINE",
"473 762 LINE",
"423 862 LINE",
"323 862 LINE",
"420 688 LINE"
);
}
);
width = 600;
}
);
leftKerningGroup = C;
note = Ccaron;
rightKerningGroup = C;
unicode = 010C;
},
{
glyphname = Ccedilla;
lastChange = "2015-11-25 08:30:50 +0000";
layers = (
{
layerId = "B67427C8-F911-4143-A2F2-7B953CC18A6E";
name = "Regular Italic";
paths = (
{
closed = 1;
nodes = (
"345 -240 OFFCURVE",
"401 -202 OFFCURVE",
"415 -136 CURVE SMOOTH",
"426 -80 OFFCURVE",
"399 -45 OFFCURVE",
"328 -45 CURVE",
"348 -9 LINE",
"409 -6 OFFCURVE",
"461 4 OFFCURVE",
"511 19 CURVE",
"536 138 LINE",
"475 115 OFFCURVE",
"410 104 OFFCURVE",
"348 104 CURVE SMOOTH",
"191 104 OFFCURVE",
"154 174 OFFCURVE",
"185 316 CURVE SMOOTH",
"217 466 OFFCURVE",
"291 539 OFFCURVE",
"438 539 CURVE SMOOTH",
"504 539 OFFCURVE",
"562 527 OFFCURVE",
"613 504 CURVE",
"638 622 LINE",
"587 642 OFFCURVE",
"530 654 OFFCURVE",
"453 654 CURVE SMOOTH",
"219 654 OFFCURVE",
"93 529 OFFCURVE",
"48 316 CURVE SMOOTH",
"9 132 OFFCURVE",
"94 12 OFFCURVE",
"261 -7 CURVE",
"216 -98 LINE",
"260 -98 LINE SMOOTH",
"307 -98 OFFCURVE",
"335 -100 OFFCURVE",
"328 -135 CURVE SMOOTH",
"322 -167 OFFCURVE",
"299 -172 OFFCURVE",
"241 -172 CURVE SMOOTH",
"220 -172 OFFCURVE",
"199 -169 OFFCURVE",
"182 -164 CURVE",
"167 -232 LINE",
"181 -236 OFFCURVE",
"218 -240 OFFCURVE",
"241 -240 CURVE SMOOTH"
);
}
);
width = 600;
}
);
leftKerningGroup = C;
note = Ccedilla;
rightKerningGroup = C;
unicode = 00C7;
},
{
glyphname = Ccircumflex;
lastChange = "2015-11-25 08:30:52 +0000";
layers = (
{
layerId = "B67427C8-F911-4143-A2F2-7B953CC18A6E";
name = "Regular Italic";
paths = (
{
closed = 1;
nodes = (
"389 -10 OFFCURVE",
"452 1 OFFCURVE",
"511 19 CURVE",
"536 138 LINE",
"475 115 OFFCURVE",
"410 104 OFFCURVE",
"348 104 CURVE SMOOTH",
"191 104 OFFCURVE",
"154 174 OFFCURVE",
"185 316 CURVE SMOOTH",
"217 466 OFFCURVE",
"291 539 OFFCURVE",
"438 539 CURVE SMOOTH",
"504 539 OFFCURVE",
"562 527 OFFCURVE",
"613 504 CURVE",
"638 622 LINE",
"587 642 OFFCURVE",
"530 654 OFFCURVE",
"453 654 CURVE SMOOTH",
"219 654 OFFCURVE",
"93 529 OFFCURVE",
"48 316 CURVE SMOOTH",
"5 115 OFFCURVE",
"112 -10 OFFCURVE",
"312 -10 CURVE SMOOTH"
);
},
{
closed = 1;
nodes = (
"366 688 LINE",
"459 788 LINE",
"512 688 LINE",
"611 688 LINE",
"513 862 LINE",
"427 862 LINE",
"256 688 LINE"
);
}
);
width = 600;
}
);
leftKerningGroup = C;
note = Ccircumflex;
rightKerningGroup = C;
unicode = 0108;
},
{
glyphname = Cdotaccent;
lastChange = "2015-11-25 08:30:52 +0000";
layers = (
{
layerId = "B67427C8-F911-4143-A2F2-7B953CC18A6E";
name = "Regular Italic";
paths = (
{
closed = 1;
nodes = (
"389 -10 OFFCURVE",
"452 1 OFFCURVE",
"511 19 CURVE",
"536 138 LINE",
"475 115 OFFCURVE",
"410 104 OFFCURVE",
"348 104 CURVE SMOOTH",
"191 104 OFFCURVE",
"154 174 OFFCURVE",
"185 316 CURVE SMOOTH",
"217 466 OFFCURVE",
"291 539 OFFCURVE",
"438 539 CURVE SMOOTH",
"504 539 OFFCURVE",
"562 527 OFFCURVE",
"613 504 CURVE",
"638 622 LINE",
"587 642 OFFCURVE",
"530 654 OFFCURVE",
"453 654 CURVE SMOOTH",
"219 654 OFFCURVE",
"93 529 OFFCURVE",
"48 316 CURVE SMOOTH",
"5 115 OFFCURVE",
"112 -10 OFFCURVE",
"312 -10 CURVE SMOOTH"
);
},
{
closed = 1;
nodes = (
"504 713 LINE",
"525 811 LINE",
"420 811 LINE",
"399 713 LINE"
);
}
);
width = 600;
}
);
leftKerningGroup = C;
note = Cdotaccent;
rightKerningGroup = C;
unicode = 010A;
},
{
glyphname = D;
lastChange = "2015-11-25 08:30:53 +0000";
layers = (
{
layerId = "B67427C8-F911-4143-A2F2-7B953CC18A6E";
name = "Regular Italic";
paths = (
{
closed = 1;
nodes = (
"271 0 LINE SMOOTH",
"477 0 OFFCURVE",
"584 98 OFFCURVE",
"630 319 CURVE SMOOTH",
"675 536 OFFCURVE",
"587 644 OFFCURVE",
"407 644 CURVE SMOOTH",
"137 644 LINE",
"1 0 LINE"
);
},
{
closed = 1;
nodes = (
"249 532 LINE",
"368 532 LINE SMOOTH",
"498 532 OFFCURVE",
"530 493 OFFCURVE",
"493 319 CURVE SMOOTH",
"456 144 OFFCURVE",
"380 104 OFFCURVE",
"274 104 CURVE SMOOTH",
"158 104 LINE"
);
}
);
width = 656;
}
);
note = D;
rightKerningGroup = D;
unicode = 0044;
},
{
glyphname = Eth;
lastChange = "2015-11-25 08:30:52 +0000";
layers = (
{
layerId = "B67427C8-F911-4143-A2F2-7B953CC18A6E";
name = "Regular Italic";
paths = (
{
closed = 1;
nodes = (
"319 0 LINE SMOOTH",
"525 0 OFFCURVE",
"632 98 OFFCURVE",
"678 319 CURVE SMOOTH",
"723 536 OFFCURVE",
"635 644 OFFCURVE",
"455 644 CURVE SMOOTH",
"185 644 LINE",
"127 368 LINE",
"59 368 LINE",
"37 264 LINE",
"105 264 LINE",
"49 0 LINE"
);
},
{
closed = 1;
nodes = (
"240 264 LINE",
"389 264 LINE",
"411 368 LINE",
"262 368 LINE",
"297 532 LINE",
"416 532 LINE SMOOTH",
"546 532 OFFCURVE",
"578 493 OFFCURVE",
"541 319 CURVE SMOOTH",
"504 144 OFFCURVE",
"428 104 OFFCURVE",
"322 104 CURVE SMOOTH",
"206 104 LINE"
);
}
);
width = 704;
}
);
note = Eth;
rightKerningGroup = D;
unicode = 00D0;
},
{
glyphname = Dcaron;
lastChange = "2015-11-25 08:30:51 +0000";
layers = (
{
layerId = "B67427C8-F911-4143-A2F2-7B953CC18A6E";
name = "Regular Italic";
paths = (
{
closed = 1;
nodes = (
"271 0 LINE SMOOTH",
"477 0 OFFCURVE",
"584 98 OFFCURVE",
"630 319 CURVE SMOOTH",
"675 536 OFFCURVE",
"587 644 OFFCURVE",
"407 644 CURVE SMOOTH",
"137 644 LINE",
"1 0 LINE"
);
},
{
closed = 1;
nodes = (
"249 532 LINE",
"368 532 LINE SMOOTH",
"498 532 OFFCURVE",
"530 493 OFFCURVE",
"493 319 CURVE SMOOTH",
"456 144 OFFCURVE",
"380 104 OFFCURVE",
"274 104 CURVE SMOOTH",
"158 104 LINE"
);
},
{
closed = 1;
nodes = (
"444 710 LINE",
"616 884 LINE",
"507 884 LINE",
"411 784 LINE",
"361 884 LINE",
"261 884 LINE",
"358 710 LINE"
);
}
);
width = 656;
}
);
note = Dcaron;
rightKerningGroup = D;
unicode = 010E;
},
{
glyphname = Dcroat;
lastChange = "2015-11-25 08:30:49 +0000";
layers = (
{
layerId = "B67427C8-F911-4143-A2F2-7B953CC18A6E";
name = "Regular Italic";
paths = (
{
closed = 1;
nodes = (
"309 0 LINE SMOOTH",
"515 0 OFFCURVE",
"622 98 OFFCURVE",
"668 319 CURVE SMOOTH",
"713 536 OFFCURVE",
"625 644 OFFCURVE",
"445 644 CURVE SMOOTH",
"175 644 LINE",
"117 368 LINE",
"49 368 LINE",
"27 264 LINE",
"95 264 LINE",
"39 0 LINE"
);
},
{
closed = 1;
nodes = (
"230 264 LINE",
"379 264 LINE",
"401 368 LINE",
"252 368 LINE",
"287 532 LINE",
"406 532 LINE SMOOTH",
"536 532 OFFCURVE",
"568 493 OFFCURVE",
"531 319 CURVE SMOOTH",
"494 144 OFFCURVE",
"418 104 OFFCURVE",
"312 104 CURVE SMOOTH",
"196 104 LINE"
);
}
);
width = 694;
}
);
note = Dcroat;
rightKerningGroup = D;
unicode = 0110;
},
{
glyphname = Ddotbelow;
lastChange = "2015-11-25 08:30:50 +0000";
layers = (
{
layerId = "B67427C8-F911-4143-A2F2-7B953CC18A6E";
name = "Regular Italic";
paths = (
{
closed = 1;
nodes = (
"271 0 LINE SMOOTH",
"477 0 OFFCURVE",
"584 98 OFFCURVE",
"630 319 CURVE SMOOTH",
"675 536 OFFCURVE",
"587 644 OFFCURVE",
"407 644 CURVE SMOOTH",
"137 644 LINE",
"1 0 LINE"
);
},
{
closed = 1;
nodes = (
"280 -181 LINE",
"301 -82 LINE",
"194 -82 LINE",
"173 -181 LINE"
);
},
{
closed = 1;
nodes = (
"249 532 LINE",
"368 532 LINE SMOOTH",
"498 532 OFFCURVE",
"530 493 OFFCURVE",
"493 319 CURVE SMOOTH",
"456 144 OFFCURVE",
"380 104 OFFCURVE",
"274 104 CURVE SMOOTH",
"158 104 LINE"
);
}
);
width = 656;
}
);
note = Ddotbelow;
rightKerningGroup = D;
unicode = 1E0C;
},
{
glyphname = Dlinebelow;
lastChange = "2015-11-25 08:30:50 +0000";
layers = (
{
layerId = "B67427C8-F911-4143-A2F2-7B953CC18A6E";
name = "Regular Italic";
paths = (
{
closed = 1;
nodes = (
"271 0 LINE SMOOTH",
"477 0 OFFCURVE",
"584 98 OFFCURVE",
"630 319 CURVE SMOOTH",
"675 536 OFFCURVE",
"587 644 OFFCURVE",
"407 644 CURVE SMOOTH",
"137 644 LINE",
"1 0 LINE"
);
},
{
closed = 1;
nodes = (
"337 -182 LINE",
"354 -99 LINE",
"47 -99 LINE",
"30 -182 LINE"
);
},
{
closed = 1;
nodes = (
"249 532 LINE",
"368 532 LINE SMOOTH",
"498 532 OFFCURVE",
"530 493 OFFCURVE",
"493 319 CURVE SMOOTH",
"456 144 OFFCURVE",
"380 104 OFFCURVE",
"274 104 CURVE SMOOTH",
"158 104 LINE"
);
}
);
width = 656;
}
);
note = Dlinebelow;
rightKerningGroup = D;
unicode = 1E0E;
},
{
glyphname = E;
lastChange = "2015-11-25 08:30:53 +0000";
layers = (
{
layerId = "B67427C8-F911-4143-A2F2-7B953CC18A6E";
name = "Regular Italic";
paths = (
{
closed = 1;
nodes = (
"463 0 LINE",
"485 104 LINE",
"158 104 LINE",
"193 270 LINE",
"483 270 LINE",
"505 374 LINE",
"215 374 LINE",
"250 539 LINE",
"577 539 LINE",
"599 644 LINE",
"137 644 LINE",
"1 0 LINE"
);
}
);
width = 556;
}
);
leftKerningGroup = E;
note = E;
rightKerningGroup = E;
unicode = 0045;
},
{
glyphname = Eacute;
lastChange = "2015-11-25 08:30:50 +0000";
layers = (
{
layerId = "B67427C8-F911-4143-A2F2-7B953CC18A6E";
name = "Regular Italic";
paths = (
{
closed = 1;
nodes = (
"463 0 LINE",
"485 104 LINE",
"158 104 LINE",
"193 270 LINE",
"483 270 LINE",
"505 374 LINE",
"215 374 LINE",
"250 539 LINE",
"577 539 LINE",
"599 644 LINE",
"137 644 LINE",
"1 0 LINE"
);
},
{
closed = 1;
nodes = (
"421 688 LINE",
"549 875 LINE",
"432 875 LINE",
"312 688 LINE"
);
}
);
width = 556;
}
);
leftKerningGroup = E;
note = Eacute;
rightKerningGroup = E;
unicode = 00C9;
},
{
glyphname = Ebreve;
lastChange = "2015-11-25 08:30:51 +0000";
layers = (
{
layerId = "B67427C8-F911-4143-A2F2-7B953CC18A6E";
name = "Regular Italic";
paths = (
{
closed = 1;
nodes = (
"463 0 LINE",
"485 104 LINE",
"158 104 LINE",
"193 270 LINE",
"483 270 LINE",
"505 374 LINE",
"215 374 LINE",
"250 539 LINE",
"577 539 LINE",
"599 644 LINE",
"137 644 LINE",
"1 0 LINE"
);
},
{
closed = 1;
nodes = (
"492 688 OFFCURVE",
"556 747 OFFCURVE",
"577 845 CURVE",
"482 845 LINE",
"473 803 OFFCURVE",
"442 766 OFFCURVE",
"396 766 CURVE SMOOTH",
"343 766 OFFCURVE",
"337 803 OFFCURVE",
"346 845 CURVE",
"262 845 LINE",
"241 747 OFFCURVE",
"292 688 OFFCURVE",
"384 688 CURVE SMOOTH"
);
}
);
width = 556;
}
);
leftKerningGroup = E;
note = Ebreve;
rightKerningGroup = E;
unicode = 0114;
},
{
glyphname = Ecaron;
lastChange = "2015-11-25 08:30:49 +0000";
layers = (
{
layerId = "B67427C8-F911-4143-A2F2-7B953CC18A6E";
name = "Regular Italic";
paths = (
{
closed = 1;
nodes = (
"463 0 LINE",
"485 104 LINE",
"158 104 LINE",
"193 270 LINE",
"483 270 LINE",
"505 374 LINE",
"215 374 LINE",
"250 539 LINE",
"577 539 LINE",
"599 644 LINE",
"137 644 LINE",
"1 0 LINE"
);
},
{
closed = 1;
nodes = (
"430 688 LINE",
"602 862 LINE",
"493 862 LINE",
"397 762 LINE",
"347 862 LINE",
"247 862 LINE",
"344 688 LINE"
);
}
);
width = 556;
}
);
leftKerningGroup = E;
note = Ecaron;
rightKerningGroup = E;
unicode = 011A;
},
{
glyphname = Ecircumflex;
lastChange = "2015-11-25 08:30:49 +0000";
layers = (
{
layerId = "B67427C8-F911-4143-A2F2-7B953CC18A6E";
name = "Regular Italic";
paths = (
{
closed = 1;
nodes = (
"463 0 LINE",
"485 104 LINE",
"158 104 LINE",
"193 270 LINE",
"483 270 LINE",
"505 374 LINE",
"215 374 LINE",
"250 539 LINE",
"577 539 LINE",
"599 644 LINE",
"137 644 LINE",
"1 0 LINE"
);
},
{
closed = 1;
nodes = (
"310 688 LINE",
"403 788 LINE",
"456 688 LINE",
"555 688 LINE",
"457 862 LINE",
"371 862 LINE",
"200 688 LINE"
);
}
);
width = 556;
}
);
leftKerningGroup = E;
note = Ecircumflex;
rightKerningGroup = E;
unicode = 00CA;
},
{
glyphname = Ecircumflexacute;
lastChange = "2015-11-25 08:30:50 +0000";
layers = (
{
layerId = "B67427C8-F911-4143-A2F2-7B953CC18A6E";
name = "Regular Italic";
paths = (
{
closed = 1;
nodes = (
"463 0 LINE",
"485 104 LINE",
"158 104 LINE",
"193 270 LINE",
"483 270 LINE",
"505 374 LINE",
"215 374 LINE",
"250 539 LINE",
"577 539 LINE",
"599 644 LINE",
"137 644 LINE",
"1 0 LINE"
);
},
{
closed = 1;
nodes = (
"318 687 LINE",
"402 768 LINE",
"453 687 LINE",
"557 687 LINE",
"459 822 LINE",
"356 822 LINE",
"202 687 LINE"
);
},
{
closed = 1;
nodes = (
"600 804 LINE",
"703 945 LINE",
"601 945 LINE",
"506 804 LINE"
);
}
);
width = 556;
}
);
leftKerningGroup = E;
note = Ecircumflexacute;
rightKerningGroup = E;
unicode = 1EBE;
},
{
glyphname = Ecircumflexdotbelow;
lastChange = "2015-11-25 08:30:50 +0000";
layers = (
{
layerId = "B67427C8-F911-4143-A2F2-7B953CC18A6E";
name = "Regular Italic";
paths = (
{
closed = 1;
nodes = (
"463 0 LINE",
"485 104 LINE",
"158 104 LINE",
"193 270 LINE",
"483 270 LINE",
"505 374 LINE",
"215 374 LINE",
"250 539 LINE",
"577 539 LINE",
"599 644 LINE",
"137 644 LINE",
"1 0 LINE"
);
},
{
closed = 1;
nodes = (
"243 -181 LINE",
"264 -82 LINE",
"157 -82 LINE",
"136 -181 LINE"
);
},
{
closed = 1;
nodes = (
"306 688 LINE",
"399 788 LINE",
"452 688 LINE",
"551 688 LINE",
"453 862 LINE",
"367 862 LINE",
"196 688 LINE"
);
}
);
width = 556;
}
);
leftKerningGroup = E;
note = Ecircumflexdotbelow;
rightKerningGroup = E;
unicode = 1EC6;
},
{
glyphname = Ecircumflexgrave;
lastChange = "2015-11-25 08:30:53 +0000";
layers = (
{
layerId = "B67427C8-F911-4143-A2F2-7B953CC18A6E";
name = "Regular Italic";
paths = (
{
closed = 1;
nodes = (
"463 0 LINE",
"485 104 LINE",
"158 104 LINE",
"193 270 LINE",
"483 270 LINE",
"505 374 LINE",
"215 374 LINE",
"250 539 LINE",
"577 539 LINE",
"599 644 LINE",
"137 644 LINE",
"1 0 LINE"
);
},
{
closed = 1;
nodes = (
"305 804 LINE",
"269 945 LINE",
"167 945 LINE",
"210 804 LINE"
);
},
{
closed = 1;
nodes = (
"320 687 LINE",
"404 768 LINE",
"455 687 LINE",
"559 687 LINE",
"461 822 LINE",
"358 822 LINE",
"204 687 LINE"
);
}
);
width = 556;
}
);
leftKerningGroup = E;
note = Ecircumflexgrave;
rightKerningGroup = E;
unicode = 1EC0;
},
{
glyphname = Ecircumflexhookabove;
lastChange = "2015-11-25 08:30:51 +0000";
layers = (
{
layerId = "B67427C8-F911-4143-A2F2-7B953CC18A6E";
name = "Regular Italic";
paths = (
{
closed = 1;
nodes = (
"463 0 LINE",
"485 104 LINE",
"158 104 LINE",
"193 270 LINE",
"483 270 LINE",
"505 374 LINE",
"215 374 LINE",
"250 539 LINE",
"577 539 LINE",
"599 644 LINE",
"137 644 LINE",
"1 0 LINE"
);
},
{
closed = 1;
nodes = (
"318 687 LINE",
"402 768 LINE",
"453 687 LINE",
"557 687 LINE",
"459 822 LINE",
"356 822 LINE",
"202 687 LINE"
);
},
{
closed = 1;
nodes = (
"602 782 LINE",
"609 816 LINE",
"664 824 OFFCURVE",
"693 851 OFFCURVE",
"702 895 CURVE SMOOTH",
"712 943 OFFCURVE",
"679 976 OFFCURVE",
"609 976 CURVE SMOOTH",
"572 976 OFFCURVE",
"547 971 OFFCURVE",
"525 964 CURVE",
"511 902 LINE",
"528 909 OFFCURVE",
"547 914 OFFCURVE",
"567 914 CURVE SMOOTH",
"597 914 OFFCURVE",
"610 907 OFFCURVE",
"606 887 CURVE SMOOTH",
"602 865 OFFCURVE",
"586 855 OFFCURVE",
"525 852 CURVE",
"510 782 LINE"
);
}
);
width = 556;
}
);
leftKerningGroup = E;
note = Ecircumflexhookabove;
rightKerningGroup = E;
unicode = 1EC2;
},
{
glyphname = Ecircumflextilde;
lastChange = "2015-11-25 08:30:51 +0000";
layers = (
{
layerId = "B67427C8-F911-4143-A2F2-7B953CC18A6E";
name = "Regular Italic";
paths = (
{
closed = 1;
nodes = (
"463 0 LINE",
"485 104 LINE",
"158 104 LINE",
"193 270 LINE",
"483 270 LINE",
"505 374 LINE",
"215 374 LINE",
"250 539 LINE",
"577 539 LINE",
"599 644 LINE",
"137 644 LINE",
"1 0 LINE"
);
},
{
closed = 1;
nodes = (
"319 687 LINE",
"403 768 LINE",
"454 687 LINE",
"558 687 LINE",
"460 822 LINE",
"357 822 LINE",
"203 687 LINE"
);
},
{
closed = 1;
nodes = (
"544 837 OFFCURVE",
"576 851 OFFCURVE",
"592 869 CURVE",
"611 955 LINE",
"589 931 OFFCURVE",
"559 917 OFFCURVE",
"521 917 CURVE SMOOTH",
"465 917 OFFCURVE",
"429 957 OFFCURVE",
"368 957 CURVE SMOOTH",
"333 957 OFFCURVE",
"296 944 OFFCURVE",
"275 926 CURVE",
"256 840 LINE",
"285 865 OFFCURVE",
"317 877 OFFCURVE",
"354 877 CURVE SMOOTH",
"403 877 OFFCURVE",
"448 837 OFFCURVE",
"507 837 CURVE SMOOTH"
);
}
);
width = 556;
}
);
leftKerningGroup = E;
note = Ecircumflextilde;
rightKerningGroup = E;
unicode = 1EC4;
},
{
glyphname = Edieresis;
lastChange = "2015-11-25 08:30:51 +0000";
layers = (
{
layerId = "B67427C8-F911-4143-A2F2-7B953CC18A6E";
name = "Regular Italic";
paths = (
{
closed = 1;
nodes = (
"463 0 LINE",
"485 104 LINE",
"158 104 LINE",
"193 270 LINE",
"483 270 LINE",
"505 374 LINE",
"215 374 LINE",
"250 539 LINE",
"577 539 LINE",
"599 644 LINE",
"137 644 LINE",
"1 0 LINE"
);
},
{
closed = 1;
nodes = (
"342 713 LINE",
"363 811 LINE",
"258 811 LINE",
"237 713 LINE"
);
},
{
closed = 1;
nodes = (
"538 713 LINE",
"559 811 LINE",
"453 811 LINE",
"432 713 LINE"
);
}
);
width = 556;
}
);
leftKerningGroup = E;
note = Edieresis;
rightKerningGroup = E;
unicode = 00CB;
},
{
glyphname = Edotaccent;
lastChange = "2015-11-25 08:30:50 +0000";
layers = (
{
layerId = "B67427C8-F911-4143-A2F2-7B953CC18A6E";
name = "Regular Italic";
paths = (
{
closed = 1;
nodes = (
"463 0 LINE",
"485 104 LINE",
"158 104 LINE",
"193 270 LINE",
"483 270 LINE",
"505 374 LINE",
"215 374 LINE",
"250 539 LINE",
"577 539 LINE",
"599 644 LINE",
"137 644 LINE",
"1 0 LINE"
);
},
{
closed = 1;
nodes = (
"436 713 LINE",
"457 811 LINE",
"352 811 LINE",
"331 713 LINE"
);
}
);
width = 556;
}
);
leftKerningGroup = E;
note = Edotaccent;
rightKerningGroup = E;
unicode = 0116;
},
{
glyphname = Edotbelow;
lastChange = "2015-11-25 08:30:50 +0000";
layers = (
{
layerId = "B67427C8-F911-4143-A2F2-7B953CC18A6E";
name = "Regular Italic";
paths = (
{
closed = 1;
nodes = (
"463 0 LINE",
"485 104 LINE",
"158 104 LINE",
"193 270 LINE",
"483 270 LINE",
"505 374 LINE",
"215 374 LINE",
"250 539 LINE",
"577 539 LINE",
"599 644 LINE",
"137 644 LINE",
"1 0 LINE"
);
},
{
closed = 1;
nodes = (
"244 -181 LINE",
"265 -82 LINE",
"158 -82 LINE",
"137 -181 LINE"
);
}
);
width = 556;
}
);
leftKerningGroup = E;
note = Edotbelow;
rightKerningGroup = E;
unicode = 1EB8;
},
{
glyphname = Egrave;
lastChange = "2015-11-25 08:30:52 +0000";
layers = (
{
layerId = "B67427C8-F911-4143-A2F2-7B953CC18A6E";
name = "Regular Italic";
paths = (
{
closed = 1;
nodes = (
"463 0 LINE",
"485 104 LINE",
"158 104 LINE",
"193 270 LINE",
"483 270 LINE",
"505 374 LINE",
"215 374 LINE",
"250 539 LINE",
"577 539 LINE",
"599 644 LINE",
"137 644 LINE",
"1 0 LINE"
);
},
{
closed = 1;
nodes = (
"448 688 LINE",
"408 875 LINE",
"291 875 LINE",
"339 688 LINE"
);
}
);
width = 556;
}
);
leftKerningGroup = E;
note = Egrave;
rightKerningGroup = E;
unicode = 00C8;
},
{
glyphname = Ehookabove;
lastChange = "2015-11-25 08:30:50 +0000";
layers = (
{
layerId = "B67427C8-F911-4143-A2F2-7B953CC18A6E";
name = "Regular Italic";
paths = (
{
closed = 1;
nodes = (
"463 0 LINE",
"485 104 LINE",
"158 104 LINE",
"193 270 LINE",
"483 270 LINE",
"505 374 LINE",
"215 374 LINE",
"250 539 LINE",
"577 539 LINE",
"599 644 LINE",
"137 644 LINE",
"1 0 LINE"
);
},
{
closed = 1;
nodes = (
"428 687 LINE",
"438 733 LINE",
"504 745 OFFCURVE",
"533 772 OFFCURVE",
"545 828 CURVE SMOOTH",
"557 886 OFFCURVE",
"519 924 OFFCURVE",
"434 924 CURVE SMOOTH",
"395 924 OFFCURVE",
"357 919 OFFCURVE",
"332 911 CURVE",
"317 844 LINE",
"335 851 OFFCURVE",
"363 855 OFFCURVE",
"382 855 CURVE SMOOTH",
"425 855 OFFCURVE",
"448 843 OFFCURVE",
"442 816 CURVE SMOOTH",
"436 786 OFFCURVE",
"416 772 OFFCURVE",
"342 768 CURVE",
"325 687 LINE"
);
}
);
width = 556;
}
);
leftKerningGroup = E;
note = Ehookabove;
rightKerningGroup = E;
unicode = 1EBA;
},
{
glyphname = Emacron;
lastChange = "2015-11-25 08:30:51 +0000";
layers = (
{
layerId = "B67427C8-F911-4143-A2F2-7B953CC18A6E";
name = "Regular Italic";
paths = (
{
closed = 1;
nodes = (
"463 0 LINE",
"485 104 LINE",
"158 104 LINE",
"193 270 LINE",
"483 270 LINE",
"505 374 LINE",
"215 374 LINE",
"250 539 LINE",
"577 539 LINE",
"599 644 LINE",
"137 644 LINE",
"1 0 LINE"
);
},
{
closed = 1;
nodes = (
"533 722 LINE",
"550 805 LINE",
"243 805 LINE",
"226 722 LINE"
);
}
);
width = 556;
}
);
leftKerningGroup = E;
note = Emacron;
rightKerningGroup = E;
unicode = 0112;
},
{
glyphname = Eogonek;
lastChange = "2015-11-25 08:30:50 +0000";
layers = (
{
layerId = "B67427C8-F911-4143-A2F2-7B953CC18A6E";
name = "Regular Italic";
paths = (
{
closed = 1;
nodes = (
"463 0 LINE",
"485 104 LINE",
"158 104 LINE",
"193 270 LINE",
"483 270 LINE",
"505 374 LINE",
"215 374 LINE",
"250 539 LINE",
"577 539 LINE",
"599 644 LINE",
"137 644 LINE",
"1 0 LINE"
);
},
{
closed = 1;
nodes = (
"349 -220 OFFCURVE",
"383 -214 OFFCURVE",
"403 -206 CURVE",
"419 -130 LINE",
"405 -137 OFFCURVE",
"385 -141 OFFCURVE",
"369 -141 CURVE SMOOTH",
"342 -141 OFFCURVE",
"325 -132 OFFCURVE",
"331 -104 CURVE SMOOTH",
"339 -66 OFFCURVE",
"373 -30 OFFCURVE",
"420 0 CURVE",
"320 0 LINE",
"267 -32 OFFCURVE",
"231 -79 OFFCURVE",
"220 -129 CURVE SMOOTH",
"207 -191 OFFCURVE",
"255 -220 OFFCURVE",
"316 -220 CURVE SMOOTH"
);
}
);
width = 556;
}
);
leftKerningGroup = E;
note = Eogonek;
rightKerningGroup = E;
unicode = 0118;
},
{
glyphname = Etilde;
lastChange = "2015-11-25 08:30:50 +0000";
layers = (
{
layerId = "B67427C8-F911-4143-A2F2-7B953CC18A6E";
name = "Regular Italic";
paths = (
{
closed = 1;
nodes = (
"463 0 LINE",
"485 104 LINE",
"158 104 LINE",
"193 270 LINE",
"483 270 LINE",
"505 374 LINE",
"215 374 LINE",
"250 539 LINE",
"577 539 LINE",
"599 644 LINE",
"137 644 LINE",
"1 0 LINE"
);
},
{
closed = 1;
nodes = (
"504 700 OFFCURVE",
"537 714 OFFCURVE",
"553 732 CURVE",
"574 828 LINE",
"552 804 OFFCURVE",
"521 790 OFFCURVE",
"483 790 CURVE SMOOTH",
"427 790 OFFCURVE",
"391 830 OFFCURVE",
"330 830 CURVE SMOOTH",
"295 830 OFFCURVE",
"259 817 OFFCURVE",
"237 799 CURVE",
"216 703 LINE",
"245 728 OFFCURVE",
"277 740 OFFCURVE",
"314 740 CURVE SMOOTH",
"363 740 OFFCURVE",
"408 700 OFFCURVE",
"467 700 CURVE SMOOTH"
);
}
);
width = 556;
}
);
leftKerningGroup = E;
note = Etilde;
rightKerningGroup = E;
unicode = 1EBC;
},
{
glyphname = F;
lastChange = "2015-11-25 08:30:50 +0000";
layers = (
{
layerId = "B67427C8-F911-4143-A2F2-7B953CC18A6E";
name = "Regular Italic";
paths = (
{
closed = 1;
nodes = (
"136 0 LINE",
"193 270 LINE",
"474 270 LINE",
"496 374 LINE",
"215 374 LINE",
"250 539 LINE",
"568 539 LINE",
"590 644 LINE",
"137 644 LINE",
"1 0 LINE"
);
}
);
width = 527;
}
);
note = F;
unicode = 0046;
},
{
glyphname = G;
lastChange = "2015-11-25 08:30:49 +0000";
layers = (
{
layerId = "B67427C8-F911-4143-A2F2-7B953CC18A6E";
name = "Regular Italic";
paths = (
{
closed = 1;
nodes = (
"427 -10 OFFCURVE",
"510 17 OFFCURVE",
"560 45 CURVE",
"627 360 LINE",
"363 360 LINE",
"345 274 LINE",
"495 274 LINE",
"463 124 LINE",
"426 112 OFFCURVE",
"380 104 OFFCURVE",
"335 104 CURVE SMOOTH",
"185 104 OFFCURVE",
"154 174 OFFCURVE",
"184 311 CURVE SMOOTH",
"216 464 OFFCURVE",
"298 539 OFFCURVE",
"443 539 CURVE SMOOTH",
"508 539 OFFCURVE",
"569 531 OFFCURVE",
"621 511 CURVE",
"646 627 LINE",
"594 645 OFFCURVE",
"535 654 OFFCURVE",
"458 654 CURVE SMOOTH",
"234 654 OFFCURVE",
"92 524 OFFCURVE",
"47 311 CURVE SMOOTH",
"4 110 OFFCURVE",
"102 -10 OFFCURVE",
"308 -10 CURVE SMOOTH"
);
}
);
width = 644;
}
);
leftKerningGroup = G;
note = G;
unicode = 0047;
},
{
glyphname = Gbreve;
lastChange = "2015-11-25 08:30:53 +0000";
layers = (
{
layerId = "B67427C8-F911-4143-A2F2-7B953CC18A6E";
name = "Regular Italic";
paths = (
{
closed = 1;
nodes = (
"427 -10 OFFCURVE",
"510 17 OFFCURVE",
"560 45 CURVE",
"627 360 LINE",
"363 360 LINE",
"345 274 LINE",
"495 274 LINE",
"463 124 LINE",
"426 112 OFFCURVE",
"380 104 OFFCURVE",
"335 104 CURVE SMOOTH",
"185 104 OFFCURVE",
"154 174 OFFCURVE",
"184 311 CURVE SMOOTH",
"216 464 OFFCURVE",
"298 539 OFFCURVE",
"443 539 CURVE SMOOTH",
"508 539 OFFCURVE",
"569 531 OFFCURVE",
"621 511 CURVE",
"646 627 LINE",
"594 645 OFFCURVE",
"535 654 OFFCURVE",
"458 654 CURVE SMOOTH",
"234 654 OFFCURVE",
"92 524 OFFCURVE",
"47 311 CURVE SMOOTH",
"4 110 OFFCURVE",
"102 -10 OFFCURVE",
"308 -10 CURVE SMOOTH"
);
},
{
closed = 1;
nodes = (
"565 688 OFFCURVE",
"629 747 OFFCURVE",
"650 845 CURVE",
"555 845 LINE",
"546 803 OFFCURVE",
"515 766 OFFCURVE",
"469 766 CURVE SMOOTH",
"416 766 OFFCURVE",
"410 803 OFFCURVE",
"419 845 CURVE",
"335 845 LINE",
"314 747 OFFCURVE",
"365 688 OFFCURVE",
"457 688 CURVE SMOOTH"
);
}
);
width = 644;
}
);
leftKerningGroup = G;
note = Gbreve;
unicode = 011E;
},
{
glyphname = Gcaron;
lastChange = "2015-11-25 08:30:52 +0000";
layers = (
{
layerId = "B67427C8-F911-4143-A2F2-7B953CC18A6E";
name = "Regular Italic";
paths = (
{
closed = 1;
nodes = (
"427 -10 OFFCURVE",
"510 17 OFFCURVE",
"560 45 CURVE",
"627 360 LINE",
"363 360 LINE",
"345 274 LINE",
"495 274 LINE",
"463 124 LINE",
"426 112 OFFCURVE",
"380 104 OFFCURVE",
"335 104 CURVE SMOOTH",
"185 104 OFFCURVE",
"154 174 OFFCURVE",
"184 311 CURVE SMOOTH",
"216 464 OFFCURVE",
"298 539 OFFCURVE",
"443 539 CURVE SMOOTH",
"508 539 OFFCURVE",
"569 531 OFFCURVE",
"621 511 CURVE",
"646 627 LINE",
"594 645 OFFCURVE",
"535 654 OFFCURVE",
"458 654 CURVE SMOOTH",
"234 654 OFFCURVE",
"92 524 OFFCURVE",
"47 311 CURVE SMOOTH",
"4 110 OFFCURVE",
"102 -10 OFFCURVE",
"308 -10 CURVE SMOOTH"
);
},
{
closed = 1;
nodes = (
"499 687 LINE",
"671 861 LINE",
"562 861 LINE",
"466 761 LINE",
"416 861 LINE",
"316 861 LINE",
"413 687 LINE"
);
}
);
width = 644;
}
);
leftKerningGroup = G;
note = Gcaron;
unicode = 01E6;
},
{
glyphname = Gcircumflex;
lastChange = "2015-11-25 08:30:52 +0000";
layers = (
{
layerId = "B67427C8-F911-4143-A2F2-7B953CC18A6E";
name = "Regular Italic";
paths = (
{
closed = 1;
nodes = (
"427 -10 OFFCURVE",
"510 17 OFFCURVE",
"560 45 CURVE",
"627 360 LINE",
"363 360 LINE",
"345 274 LINE",
"495 274 LINE",
"463 124 LINE",
"426 112 OFFCURVE",
"380 104 OFFCURVE",
"335 104 CURVE SMOOTH",
"185 104 OFFCURVE",
"154 174 OFFCURVE",
"184 311 CURVE SMOOTH",
"216 464 OFFCURVE",
"298 539 OFFCURVE",
"443 539 CURVE SMOOTH",
"508 539 OFFCURVE",
"569 531 OFFCURVE",
"621 511 CURVE",
"646 627 LINE",
"594 645 OFFCURVE",
"535 654 OFFCURVE",
"458 654 CURVE SMOOTH",
"234 654 OFFCURVE",
"92 524 OFFCURVE",
"47 311 CURVE SMOOTH",
"4 110 OFFCURVE",
"102 -10 OFFCURVE",
"308 -10 CURVE SMOOTH"
);
},
{
closed = 1;
nodes = (
"383 688 LINE",
"476 788 LINE",
"529 688 LINE",
"628 688 LINE",
"530 862 LINE",
"444 862 LINE",
"273 688 LINE"
);
}
);
width = 644;
}
);
leftKerningGroup = G;
note = Gcircumflex;
unicode = 011C;
},
{
glyphname = Gcommaaccent;
lastChange = "2015-11-25 08:30:50 +0000";
layers = (
{
layerId = "B67427C8-F911-4143-A2F2-7B953CC18A6E";
name = "Regular Italic";
paths = (
{
closed = 1;
nodes = (
"427 -10 OFFCURVE",
"510 17 OFFCURVE",
"560 45 CURVE",
"627 360 LINE",
"363 360 LINE",
"345 274 LINE",
"495 274 LINE",
"463 124 LINE",
"426 112 OFFCURVE",
"380 104 OFFCURVE",
"335 104 CURVE SMOOTH",
"185 104 OFFCURVE",
"154 174 OFFCURVE",
"184 311 CURVE SMOOTH",
"216 464 OFFCURVE",
"298 539 OFFCURVE",
"443 539 CURVE SMOOTH",
"508 539 OFFCURVE",
"569 531 OFFCURVE",
"621 511 CURVE",
"646 627 LINE",
"594 645 OFFCURVE",
"535 654 OFFCURVE",
"458 654 CURVE SMOOTH",
"234 654 OFFCURVE",
"92 524 OFFCURVE",
"47 311 CURVE SMOOTH",
"4 110 OFFCURVE",
"102 -10 OFFCURVE",
"308 -10 CURVE SMOOTH"
);
},
{
closed = 1;
nodes = (
"276 -238 LINE",
"369 -37 LINE",
"263 -37 LINE",
"190 -238 LINE"
);
}
);
width = 644;
}
);
leftKerningGroup = G;
note = Gcommaaccent;
unicode = 0122;
},
{
glyphname = Gdotaccent;
lastChange = "2015-11-25 08:30:51 +0000";
layers = (
{
layerId = "B67427C8-F911-4143-A2F2-7B953CC18A6E";
name = "Regular Italic";
paths = (
{
closed = 1;
nodes = (
"427 -10 OFFCURVE",
"510 17 OFFCURVE",
"560 45 CURVE",
"627 360 LINE",
"363 360 LINE",
"345 274 LINE",
"495 274 LINE",
"463 124 LINE",
"426 112 OFFCURVE",
"380 104 OFFCURVE",
"335 104 CURVE SMOOTH",
"185 104 OFFCURVE",
"154 174 OFFCURVE",
"184 311 CURVE SMOOTH",
"216 464 OFFCURVE",
"298 539 OFFCURVE",
"443 539 CURVE SMOOTH",
"508 539 OFFCURVE",
"569 531 OFFCURVE",
"621 511 CURVE",
"646 627 LINE",
"594 645 OFFCURVE",
"535 654 OFFCURVE",
"458 654 CURVE SMOOTH",
"234 654 OFFCURVE",
"92 524 OFFCURVE",
"47 311 CURVE SMOOTH",
"4 110 OFFCURVE",
"102 -10 OFFCURVE",
"308 -10 CURVE SMOOTH"
);
},
{
closed = 1;
nodes = (
"522 713 LINE",
"543 811 LINE",
"438 811 LINE",
"417 713 LINE"
);
}
);
width = 644;
}
);
leftKerningGroup = G;
note = Gdotaccent;
unicode = 0120;
},
{
glyphname = Gmacron;
lastChange = "2015-11-25 08:30:50 +0000";
layers = (
{
layerId = "B67427C8-F911-4143-A2F2-7B953CC18A6E";
name = "Regular Italic";
paths = (
{
closed = 1;
nodes = (
"427 -10 OFFCURVE",
"510 17 OFFCURVE",
"560 45 CURVE",
"627 360 LINE",
"363 360 LINE",
"345 274 LINE",
"495 274 LINE",
"463 124 LINE",
"426 112 OFFCURVE",
"380 104 OFFCURVE",
"335 104 CURVE SMOOTH",
"185 104 OFFCURVE",
"154 174 OFFCURVE",
"184 311 CURVE SMOOTH",
"216 464 OFFCURVE",
"298 539 OFFCURVE",
"443 539 CURVE SMOOTH",
"508 539 OFFCURVE",
"569 531 OFFCURVE",
"621 511 CURVE",
"646 627 LINE",
"594 645 OFFCURVE",
"535 654 OFFCURVE",
"458 654 CURVE SMOOTH",
"234 654 OFFCURVE",
"92 524 OFFCURVE",
"47 311 CURVE SMOOTH",
"4 110 OFFCURVE",
"102 -10 OFFCURVE",
"308 -10 CURVE SMOOTH"
);
},
{
closed = 1;
nodes = (
"622 717 LINE",
"639 800 LINE",
"332 800 LINE",
"315 717 LINE"
);
}
);
width = 644;
}
);
leftKerningGroup = G;
note = Gmacron;
unicode = 1E20;
},
{
glyphname = H;
lastChange = "2015-11-25 08:30:50 +0000";
layers = (
{
layerId = "B67427C8-F911-4143-A2F2-7B953CC18A6E";
name = "Regular Italic";
paths = (
{
closed = 1;
nodes = (
"136 0 LINE",
"193 270 LINE",
"474 270 LINE",
"417 0 LINE",
"552 0 LINE",
"688 644 LINE",
"553 644 LINE",
"496 374 LINE",
"215 374 LINE",
"272 644 LINE",
"137 644 LINE",
"1 0 LINE"
);
}
);
width = 665;
}
);
note = H;
unicode = 0048;
},
{
glyphname = Hbar;
lastChange = "2015-11-25 08:30:49 +0000";
layers = (
{
layerId = "B67427C8-F911-4143-A2F2-7B953CC18A6E";
name = "Regular Italic";
paths = (
{
closed = 1;
nodes = (
"136 0 LINE",
"193 270 LINE",
"474 270 LINE",
"417 0 LINE",
"552 0 LINE",
"647 451 LINE",
"686 451 LINE",
"709 556 LINE",
"669 556 LINE",
"688 644 LINE",
"553 644 LINE",
"534 556 LINE",
"253 556 LINE",
"272 644 LINE",
"137 644 LINE",
"118 556 LINE",
"75 556 LINE",
"52 451 LINE",
"96 451 LINE",
"1 0 LINE"
);
},
{
closed = 1;
nodes = (
"231 451 LINE",
"512 451 LINE",
"496 374 LINE",
"215 374 LINE"
);
}
);
width = 666;
}
);
note = Hbar;
unicode = 0126;
},
{
glyphname = Hbrevebelow;
lastChange = "2015-11-25 08:30:51 +0000";
layers = (
{
layerId = "B67427C8-F911-4143-A2F2-7B953CC18A6E";
name = "Regular Italic";
paths = (
{
closed = 1;
nodes = (
"136 0 LINE",
"193 270 LINE",
"474 270 LINE",
"417 0 LINE",
"552 0 LINE",
"688 644 LINE",
"553 644 LINE",
"496 374 LINE",
"215 374 LINE",
"272 644 LINE",
"137 644 LINE",
"1 0 LINE"
);
},
{
closed = 1;
nodes = (
"328 -217 OFFCURVE",
"399 -158 OFFCURVE",
"420 -60 CURVE",
"326 -60 LINE",
"317 -102 OFFCURVE",
"287 -139 OFFCURVE",
"241 -139 CURVE SMOOTH",
"189 -139 OFFCURVE",
"182 -102 OFFCURVE",
"191 -60 CURVE",
"105 -60 LINE",
"84 -158 OFFCURVE",
"144 -217 OFFCURVE",
"228 -217 CURVE SMOOTH"
);
}
);
width = 665;
}
);
note = Hbrevebelow;
unicode = 1E2A;
},
{
glyphname = Hcircumflex;
lastChange = "2015-11-25 08:30:50 +0000";
layers = (
{
layerId = "B67427C8-F911-4143-A2F2-7B953CC18A6E";
name = "Regular Italic";
paths = (
{
closed = 1;
nodes = (
"136 0 LINE",
"193 270 LINE",
"474 270 LINE",
"417 0 LINE",
"552 0 LINE",
"688 644 LINE",
"553 644 LINE",
"496 374 LINE",
"215 374 LINE",
"272 644 LINE",
"137 644 LINE",
"1 0 LINE"
);
},
{
closed = 1;
nodes = (
"355 688 LINE",
"448 788 LINE",
"501 688 LINE",
"600 688 LINE",
"502 862 LINE",
"416 862 LINE",
"245 688 LINE"
);
}
);
width = 665;
}
);
note = Hcircumflex;
unicode = 0124;
},
{
glyphname = Hdotbelow;
lastChange = "2015-11-25 08:30:50 +0000";
layers = (
{
layerId = "B67427C8-F911-4143-A2F2-7B953CC18A6E";
name = "Regular Italic";
paths = (
{
closed = 1;
nodes = (
"136 0 LINE",
"193 270 LINE",
"474 270 LINE",
"417 0 LINE",
"552 0 LINE",
"688 644 LINE",
"553 644 LINE",
"496 374 LINE",
"215 374 LINE",
"272 644 LINE",
"137 644 LINE",
"1 0 LINE"
);
},
{
closed = 1;
nodes = (
"291 -181 LINE",
"312 -82 LINE",
"205 -82 LINE",
"184 -181 LINE"
);
}
);
width = 665;
}
);
note = Hdotbelow;
unicode = 1E24;
},
{
glyphname = I;
lastChange = "2015-11-25 08:30:52 +0000";
layers = (
{
layerId = "B67427C8-F911-4143-A2F2-7B953CC18A6E";
name = "Regular Italic";
paths = (
{
closed = 1;
nodes = (
"136 0 LINE",
"272 644 LINE",
"137 644 LINE",
"1 0 LINE"
);
}
);
width = 249;
}
);
note = I;
unicode = 0049;
},
{
glyphname = IJ;
lastChange = "2015-11-25 08:30:52 +0000";
layers = (
{
layerId = "B67427C8-F911-4143-A2F2-7B953CC18A6E";
name = "Regular Italic";
paths = (
{
closed = 1;
nodes = (
"494 -10 OFFCURVE",
"576 55 OFFCURVE",
"604 184 CURVE SMOOTH",
"701 644 LINE",
"566 644 LINE",
"475 214 LINE SMOOTH",
"459 137 OFFCURVE",
"425 105 OFFCURVE",
"337 105 CURVE SMOOTH",
"295 105 OFFCURVE",
"254 113 OFFCURVE",
"224 127 CURVE",
"200 13 LINE",
"238 -2 OFFCURVE",
"284 -10 OFFCURVE",
"339 -10 CURVE SMOOTH"
);
},
{
closed = 1;
nodes = (
"136 0 LINE",
"272 644 LINE",
"137 644 LINE",
"1 0 LINE"
);
}
);
width = 674;
}
);
note = IJ;
unicode = 0132;
},
{
glyphname = Iacute;
lastChange = "2015-11-25 08:30:50 +0000";
layers = (
{
layerId = "B67427C8-F911-4143-A2F2-7B953CC18A6E";
name = "Regular Italic";
paths = (
{
closed = 1;
nodes = (
"136 0 LINE",
"272 644 LINE",
"137 644 LINE",
"1 0 LINE"
);
},
{
closed = 1;
nodes = (
"269 688 LINE",
"397 875 LINE",
"280 875 LINE",
"160 688 LINE"
);
}
);
width = 250;
}
);
note = Iacute;
unicode = 00CD;
},
{
glyphname = Ibreve;
lastChange = "2015-11-25 08:30:51 +0000";
layers = (
{
layerId = "B67427C8-F911-4143-A2F2-7B953CC18A6E";
name = "Regular Italic";
paths = (
{
closed = 1;
nodes = (
"136 0 LINE",
"272 644 LINE",
"137 644 LINE",
"1 0 LINE"
);
},
{
closed = 1;
nodes = (
"324 701 OFFCURVE",
"388 760 OFFCURVE",
"409 858 CURVE",
"314 858 LINE",
"305 816 OFFCURVE",
"274 779 OFFCURVE",
"228 779 CURVE SMOOTH",
"175 779 OFFCURVE",
"169 816 OFFCURVE",
"178 858 CURVE",
"94 858 LINE",
"73 760 OFFCURVE",
"124 701 OFFCURVE",
"216 701 CURVE SMOOTH"
);
}
);
width = 250;
}
);
note = Ibreve;
unicode = 012C;
},
{
glyphname = Icaron;
lastChange = "2015-11-25 08:30:50 +0000";
layers = (
{
layerId = "B67427C8-F911-4143-A2F2-7B953CC18A6E";
name = "Regular Italic";
paths = (
{
closed = 1;
nodes = (
"136 0 LINE",
"272 644 LINE",
"137 644 LINE",
"1 0 LINE"
);
},
{
closed = 1;
nodes = (
"258 688 LINE",
"430 862 LINE",
"321 862 LINE",
"225 762 LINE",
"175 862 LINE",
"75 862 LINE",
"172 688 LINE"
);
}
);
width = 250;
}
);
note = Icaron;
unicode = 01CF;
},
{
glyphname = Icircumflex;
lastChange = "2015-11-25 08:30:52 +0000";
layers = (
{
layerId = "B67427C8-F911-4143-A2F2-7B953CC18A6E";
name = "Regular Italic";
paths = (
{
closed = 1;
nodes = (
"136 0 LINE",
"272 644 LINE",
"137 644 LINE",
"1 0 LINE"
);
},
{
closed = 1;
nodes = (
"148 688 LINE",
"241 788 LINE",
"294 688 LINE",
"393 688 LINE",
"295 862 LINE",
"209 862 LINE",
"38 688 LINE"
);
}
);
width = 250;
}
);
note = Icircumflex;
unicode = 00CE;
},
{
glyphname = Idieresis;
lastChange = "2015-11-25 08:30:52 +0000";
layers = (
{
layerId = "B67427C8-F911-4143-A2F2-7B953CC18A6E";
name = "Regular Italic";
paths = (
{
closed = 1;
nodes = (
"136 0 LINE",
"272 644 LINE",
"137 644 LINE",
"1 0 LINE"
);
},
{
closed = 1;
nodes = (
"176 718 LINE",
"197 816 LINE",
"92 816 LINE",
"71 718 LINE"
);
},
{
closed = 1;
nodes = (
"372 718 LINE",
"393 816 LINE",
"287 816 LINE",
"266 718 LINE"
);
}
);
width = 249;
}
);
note = Idieresis;
unicode = 00CF;
},
{
glyphname = Idotaccent;
lastChange = "2015-11-25 08:30:51 +0000";
layers = (
{
layerId = "B67427C8-F911-4143-A2F2-7B953CC18A6E";
name = "Regular Italic";
paths = (
{
closed = 1;
nodes = (
"136 0 LINE",
"272 644 LINE",
"137 644 LINE",
"1 0 LINE"
);
},
{
closed = 1;
nodes = (
"273 718 LINE",
"294 816 LINE",
"189 816 LINE",
"168 718 LINE"
);
}
);
width = 249;
}
);
note = Idotaccent;
unicode = 0130;
},
{
glyphname = Idotbelow;
lastChange = "2015-11-25 08:30:52 +0000";
layers = (
{
layerId = "B67427C8-F911-4143-A2F2-7B953CC18A6E";
name = "Regular Italic";
paths = (
{
closed = 1;
nodes = (
"136 0 LINE",
"272 644 LINE",
"137 644 LINE",
"1 0 LINE"
);
},
{
closed = 1;
nodes = (
"84 -181 LINE",
"105 -82 LINE",
"-2 -82 LINE",
"-23 -181 LINE"
);
}
);
width = 249;
}
);
note = Idotbelow;
unicode = 1ECA;
},
{
glyphname = Igrave;
lastChange = "2015-11-25 08:30:51 +0000";
layers = (
{
layerId = "B67427C8-F911-4143-A2F2-7B953CC18A6E";
name = "Regular Italic";
paths = (
{
closed = 1;
nodes = (
"136 0 LINE",
"272 644 LINE",
"137 644 LINE",
"1 0 LINE"
);
},
{
closed = 1;
nodes = (
"268 688 LINE",
"228 875 LINE",
"111 875 LINE",
"159 688 LINE"
);
}
);
width = 249;
}
);
note = Igrave;
unicode = 00CC;
},
{
glyphname = Ihookabove;
lastChange = "2015-11-25 08:30:49 +0000";
layers = (
{
layerId = "B67427C8-F911-4143-A2F2-7B953CC18A6E";
name = "Regular Italic";
paths = (
{
closed = 1;
nodes = (
"136 0 LINE",
"272 644 LINE",
"137 644 LINE",
"1 0 LINE"
);
},
{
closed = 1;
nodes = (
"265 687 LINE",
"275 733 LINE",
"341 745 OFFCURVE",
"370 772 OFFCURVE",
"382 828 CURVE SMOOTH",
"394 886 OFFCURVE",
"356 924 OFFCURVE",
"271 924 CURVE SMOOTH",
"232 924 OFFCURVE",
"194 919 OFFCURVE",
"169 911 CURVE",
"154 844 LINE",
"172 851 OFFCURVE",
"200 855 OFFCURVE",
"219 855 CURVE SMOOTH",
"262 855 OFFCURVE",
"285 843 OFFCURVE",
"279 816 CURVE SMOOTH",
"273 786 OFFCURVE",
"253 772 OFFCURVE",
"179 768 CURVE",
"162 687 LINE"
);
}
);
width = 250;
}
);
note = Ihookabove;
unicode = 1EC8;
},
{
glyphname = Imacron;
lastChange = "2015-11-25 08:30:50 +0000";
layers = (
{
layerId = "B67427C8-F911-4143-A2F2-7B953CC18A6E";
name = "Regular Italic";
paths = (
{
closed = 1;
nodes = (
"136 0 LINE",
"272 644 LINE",
"137 644 LINE",
"1 0 LINE"
);
},
{
closed = 1;
nodes = (
"377 722 LINE",
"394 805 LINE",
"86 805 LINE",
"69 722 LINE"
);
}
);
width = 250;
}
);
note = Imacron;
unicode = 012A;
},
{
glyphname = Iogonek;
lastChange = "2015-11-25 08:30:52 +0000";
layers = (
{
layerId = "B67427C8-F911-4143-A2F2-7B953CC18A6E";
name = "Regular Italic";
paths = (
{
closed = 1;
nodes = (
"52 -220 OFFCURVE",
"86 -214 OFFCURVE",
"106 -206 CURVE",
"122 -130 LINE",
"108 -137 OFFCURVE",
"88 -141 OFFCURVE",
"72 -141 CURVE SMOOTH",
"45 -141 OFFCURVE",
"28 -132 OFFCURVE",
"34 -104 CURVE SMOOTH",
"42 -66 OFFCURVE",
"76 -30 OFFCURVE",
"123 0 CURVE",
"136 0 LINE",
"272 644 LINE",
"137 644 LINE",
"1 0 LINE",
"23 0 LINE",
"-30 -32 OFFCURVE",
"-66 -79 OFFCURVE",
"-77 -129 CURVE SMOOTH",
"-90 -191 OFFCURVE",
"-42 -220 OFFCURVE",
"19 -220 CURVE SMOOTH"
);
}
);
width = 250;
}
);
note = Iogonek;
unicode = 012E;
},
{
glyphname = Itilde;
lastChange = "2015-11-25 08:30:50 +0000";
layers = (
{
layerId = "B67427C8-F911-4143-A2F2-7B953CC18A6E";
name = "Regular Italic";
paths = (
{
closed = 1;
nodes = (
"136 0 LINE",
"272 644 LINE",
"137 644 LINE",
"1 0 LINE"
);
},
{
closed = 1;
nodes = (
"340 700 OFFCURVE",
"373 714 OFFCURVE",
"389 732 CURVE",
"410 828 LINE",
"388 804 OFFCURVE",
"357 790 OFFCURVE",
"319 790 CURVE SMOOTH",
"263 790 OFFCURVE",
"227 830 OFFCURVE",
"166 830 CURVE SMOOTH",
"131 830 OFFCURVE",
"95 817 OFFCURVE",
"73 799 CURVE",
"52 703 LINE",
"81 728 OFFCURVE",
"113 740 OFFCURVE",
"150 740 CURVE SMOOTH",
"199 740 OFFCURVE",
"244 700 OFFCURVE",
"303 700 CURVE SMOOTH"
);
}
);
width = 250;
}
);
note = Itilde;
unicode = 0128;
},
{
glyphname = J;
lastChange = "2015-11-25 08:30:52 +0000";
layers = (
{
layerId = "B67427C8-F911-4143-A2F2-7B953CC18A6E";
name = "Regular Italic";
paths = (
{
closed = 1;
nodes = (
"257 -10 OFFCURVE",
"339 55 OFFCURVE",
"367 184 CURVE SMOOTH",
"464 644 LINE",
"329 644 LINE",
"238 214 LINE SMOOTH",
"222 137 OFFCURVE",
"188 105 OFFCURVE",
"100 105 CURVE SMOOTH",
"58 105 OFFCURVE",
"17 113 OFFCURVE",
"-13 127 CURVE",
"-37 13 LINE",
"1 -2 OFFCURVE",
"47 -10 OFFCURVE",
"102 -10 CURVE SMOOTH"
);
}
);
width = 436;
}
);
note = J;
unicode = 004A;
},
{
glyphname = Jcircumflex;
lastChange = "2015-11-25 08:30:51 +0000";
layers = (
{
layerId = "B67427C8-F911-4143-A2F2-7B953CC18A6E";
name = "Regular Italic";
paths = (
{
closed = 1;
nodes = (
"257 -10 OFFCURVE",
"339 55 OFFCURVE",
"367 184 CURVE SMOOTH",
"464 644 LINE",
"329 644 LINE",
"238 214 LINE SMOOTH",
"222 137 OFFCURVE",
"188 105 OFFCURVE",
"100 105 CURVE SMOOTH",
"58 105 OFFCURVE",
"17 113 OFFCURVE",
"-13 127 CURVE",
"-37 13 LINE",
"1 -2 OFFCURVE",
"47 -10 OFFCURVE",
"102 -10 CURVE SMOOTH"
);
},
{
closed = 1;
nodes = (
"341 688 LINE",
"434 788 LINE",
"487 688 LINE",
"586 688 LINE",
"488 862 LINE",
"402 862 LINE",
"231 688 LINE"
);
}
);
width = 436;
}
);
note = Jcircumflex;
unicode = 0134;
},
{
glyphname = K;
lastChange = "2015-11-25 08:30:50 +0000";
layers = (
{
layerId = "B67427C8-F911-4143-A2F2-7B953CC18A6E";
name = "Regular Italic";
paths = (
{
closed = 1;
nodes = (
"136 0 LINE",
"179 204 LINE",
"285 297 LINE",
"407 0 LINE",
"551 0 LINE",
"387 383 LINE",
"675 644 LINE",
"520 644 LINE",
"214 371 LINE",
"272 644 LINE",
"137 644 LINE",
"1 0 LINE"
);
}
);
width = 644;
}
);
leftKerningGroup = K;
note = K;
rightKerningGroup = K;
unicode = 004B;
},
{
glyphname = Kcommaaccent;
lastChange = "2015-11-25 08:30:49 +0000";
layers = (
{
layerId = "B67427C8-F911-4143-A2F2-7B953CC18A6E";
name = "Regular Italic";
paths = (
{
closed = 1;
nodes = (
"136 0 LINE",
"179 204 LINE",
"285 297 LINE",
"407 0 LINE",
"551 0 LINE",
"387 383 LINE",
"675 644 LINE",
"520 644 LINE",
"214 371 LINE",
"272 644 LINE",
"137 644 LINE",
"1 0 LINE"
);
},
{
closed = 1;
nodes = (
"222 -238 LINE",
"315 -37 LINE",
"209 -37 LINE",
"136 -238 LINE"
);
}
);
width = 644;
}
);
leftKerningGroup = K;
note = Kcommaaccent;
rightKerningGroup = K;
unicode = 0136;
},
{
glyphname = L;
lastChange = "2015-11-25 08:30:50 +0000";
layers = (
{
layerId = "B67427C8-F911-4143-A2F2-7B953CC18A6E";
name = "Regular Italic";
paths = (
{
closed = 1;
nodes = (
"453 0 LINE",
"475 104 LINE",
"158 104 LINE",
"272 644 LINE",
"137 644 LINE",
"1 0 LINE"
);
}
);
width = 526;
}
);
note = L;
rightKerningGroup = L;
unicode = 004C;
},
{
glyphname = Lacute;
lastChange = "2015-11-25 08:30:52 +0000";
layers = (
{
layerId = "B67427C8-F911-4143-A2F2-7B953CC18A6E";
name = "Regular Italic";
paths = (
{
closed = 1;
nodes = (
"453 0 LINE",
"475 104 LINE",
"158 104 LINE",
"272 644 LINE",
"137 644 LINE",
"1 0 LINE"
);
},
{
closed = 1;
nodes = (
"272 688 LINE",
"400 875 LINE",
"283 875 LINE",
"163 688 LINE"
);
}
);
width = 526;
}
);
note = Lacute;
rightKerningGroup = L;
unicode = 0139;
},
{
glyphname = Lcaron;
lastChange = "2015-11-25 08:30:51 +0000";
layers = (
{
layerId = "B67427C8-F911-4143-A2F2-7B953CC18A6E";
name = "Regular Italic";
paths = (
{
closed = 1;
nodes = (
"453 0 LINE",
"475 104 LINE",
"158 104 LINE",
"272 644 LINE",
"137 644 LINE",
"1 0 LINE"
);
},
{
closed = 1;
nodes = (
"472 564 LINE",
"565 765 LINE",
"459 765 LINE",
"386 564 LINE"
);
}
);
width = 526;
}
);
note = Lcaron;
rightKerningGroup = L;
unicode = 013D;
},
{
glyphname = Lcommaaccent;
lastChange = "2015-11-25 08:30:51 +0000";
layers = (
{
layerId = "B67427C8-F911-4143-A2F2-7B953CC18A6E";
name = "Regular Italic";
paths = (
{
closed = 1;
nodes = (
"453 0 LINE",
"475 104 LINE",
"158 104 LINE",
"272 644 LINE",
"137 644 LINE",
"1 0 LINE"
);
},
{
closed = 1;
nodes = (
"195 -238 LINE",
"288 -37 LINE",
"182 -37 LINE",
"109 -238 LINE"
);
}
);
width = 526;
}
);
note = Lcommaaccent;
rightKerningGroup = L;
unicode = 013B;
},
{
glyphname = Ldot;
lastChange = "2015-11-25 08:30:52 +0000";
layers = (
{
layerId = "B67427C8-F911-4143-A2F2-7B953CC18A6E";
name = "Regular Italic";
paths = (
{
closed = 1;
nodes = (
"453 0 LINE",
"475 104 LINE",
"158 104 LINE",
"272 644 LINE",
"137 644 LINE",
"1 0 LINE"
);
},
{
closed = 1;
nodes = (
"416 276 LINE",
"437 374 LINE",
"332 374 LINE",
"311 276 LINE"
);
}
);
width = 526;
}
);
note = Ldot;
rightKerningGroup = L;
unicode = 013F;
},
{
glyphname = Ldotbelow;
lastChange = "2015-11-25 08:30:51 +0000";
layers = (
{
layerId = "B67427C8-F911-4143-A2F2-7B953CC18A6E";
name = "Regular Italic";
paths = (
{
closed = 1;
nodes = (
"453 0 LINE",
"475 104 LINE",
"158 104 LINE",
"272 644 LINE",
"137 644 LINE",
"1 0 LINE"
);
},
{
closed = 1;
nodes = (
"235 -181 LINE",
"256 -82 LINE",
"149 -82 LINE",
"128 -181 LINE"
);
}
);
width = 526;
}
);
note = Ldotbelow;
rightKerningGroup = L;
unicode = 1E36;
},
{
glyphname = Ldotbelowmacron;
lastChange = "2015-11-25 08:30:51 +0000";
layers = (
{
layerId = "B67427C8-F911-4143-A2F2-7B953CC18A6E";
name = "Regular Italic";
paths = (
{
closed = 1;
nodes = (
"469 0 LINE",
"491 104 LINE",
"174 104 LINE",
"288 644 LINE",
"153 644 LINE",
"17 0 LINE"
);
},
{
closed = 1;
nodes = (
"251 -181 LINE",
"272 -82 LINE",
"165 -82 LINE",
"144 -181 LINE"
);
},
{
closed = 1;
nodes = (
"409 717 LINE",
"426 800 LINE",
"119 800 LINE",
"102 717 LINE"
);
}
);
width = 542;
}
);
note = Ldotbelowmacron;
rightKerningGroup = L;
unicode = 1E38;
},
{
glyphname = Llinebelow;
lastChange = "2015-11-25 08:30:50 +0000";
layers = (
{
layerId = "B67427C8-F911-4143-A2F2-7B953CC18A6E";
name = "Regular Italic";
paths = (
{
closed = 1;
nodes = (
"453 0 LINE",
"475 104 LINE",
"158 104 LINE",
"272 644 LINE",
"137 644 LINE",
"1 0 LINE"
);
},
{
closed = 1;
nodes = (
"341 -158 LINE",
"358 -75 LINE",
"51 -75 LINE",
"34 -158 LINE"
);
}
);
width = 526;
}
);
note = Llinebelow;
rightKerningGroup = L;
unicode = 1E3A;
},
{
glyphname = Lslash;
lastChange = "2015-11-25 08:30:51 +0000";
layers = (
{
layerId = "B67427C8-F911-4143-A2F2-7B953CC18A6E";
name = "Regular Italic";
paths = (
{
closed = 1;
nodes = (
"453 0 LINE",
"475 104 LINE",
"158 104 LINE",
"272 644 LINE",
"137 644 LINE",
"1 0 LINE"
);
},
{
closed = 1;
nodes = (
"340 372 LINE",
"360 469 LINE",
"-6 322 LINE",
"-27 225 LINE"
);
}
);
width = 526;
}
);
note = Lslash;
rightKerningGroup = L;
unicode = 0141;
},
{
glyphname = M;
lastChange = "2015-11-25 08:30:50 +0000";
layers = (
{
layerId = "B67427C8-F911-4143-A2F2-7B953CC18A6E";
name = "Regular Italic";
paths = (
{
closed = 1;
nodes = (
"136 0 LINE",
"225 419 LINE",
"310 111 LINE",
"388 111 LINE",
"604 419 LINE",
"515 0 LINE",
"650 0 LINE",
"786 644 LINE",
"646 644 LINE",
"375 257 LINE",
"268 644 LINE",
"137 644 LINE",
"1 0 LINE"
);
}
);
width = 763;
}
);
note = M;
unicode = 004D;
},
{
glyphname = Mdotbelow;
lastChange = "2015-11-25 08:30:52 +0000";
layers = (
{
layerId = "B67427C8-F911-4143-A2F2-7B953CC18A6E";
name = "Regular Italic";
paths = (
{
closed = 1;
nodes = (
"136 0 LINE",
"225 419 LINE",
"310 111 LINE",
"388 111 LINE",
"604 419 LINE",
"515 0 LINE",
"650 0 LINE",
"786 644 LINE",
"646 644 LINE",
"375 257 LINE",
"268 644 LINE",
"137 644 LINE",
"1 0 LINE"
);
},
{
closed = 1;
nodes = (
"354 -181 LINE",
"375 -82 LINE",
"268 -82 LINE",
"247 -181 LINE"
);
}
);
width = 763;
}
);
note = Mdotbelow;
unicode = 1E42;
},
{
glyphname = N;
lastChange = "2015-11-25 08:30:52 +0000";
layers = (
{
layerId = "B67427C8-F911-4143-A2F2-7B953CC18A6E";
name = "Regular Italic";
paths = (
{
closed = 1;
nodes = (
"136 0 LINE",
"227 429 LINE",
"441 0 LINE",
"558 0 LINE",
"694 644 LINE",
"559 644 LINE",
"468 215 LINE",
"254 644 LINE",
"137 644 LINE",
"1 0 LINE"
);
}
);
width = 671;
}
);
note = N;
unicode = 004E;
},
{
glyphname = Nacute;
lastChange = "2015-11-25 08:30:51 +0000";
layers = (
{
layerId = "B67427C8-F911-4143-A2F2-7B953CC18A6E";
name = "Regular Italic";
paths = (
{
closed = 1;
nodes = (
"136 0 LINE",
"227 429 LINE",
"441 0 LINE",
"558 0 LINE",
"694 644 LINE",
"559 644 LINE",
"468 215 LINE",
"254 644 LINE",
"137 644 LINE",
"1 0 LINE"
);
},
{
closed = 1;
nodes = (
"469 688 LINE",
"597 875 LINE",
"480 875 LINE",
"360 688 LINE"
);
}
);
width = 671;
}
);
note = Nacute;
unicode = 0143;
},
{
glyphname = Ncaron;
lastChange = "2015-11-25 08:30:49 +0000";
layers = (
{
layerId = "B67427C8-F911-4143-A2F2-7B953CC18A6E";
name = "Regular Italic";
paths = (
{
closed = 1;
nodes = (
"136 0 LINE",
"227 429 LINE",
"441 0 LINE",
"558 0 LINE",
"694 644 LINE",
"559 644 LINE",
"468 215 LINE",
"254 644 LINE",
"137 644 LINE",
"1 0 LINE"
);
},
{
closed = 1;
nodes = (
"471 688 LINE",
"643 862 LINE",
"534 862 LINE",
"438 762 LINE",
"388 862 LINE",
"288 862 LINE",
"385 688 LINE"
);
}
);
width = 671;
}
);
note = Ncaron;
unicode = 0147;
},
{
glyphname = Ncommaaccent;
lastChange = "2015-11-25 08:30:50 +0000";
layers = (
{
layerId = "B67427C8-F911-4143-A2F2-7B953CC18A6E";
name = "Regular Italic";
paths = (
{
closed = 1;
nodes = (
"136 0 LINE",
"227 429 LINE",
"441 0 LINE",
"558 0 LINE",
"694 644 LINE",
"559 644 LINE",
"468 215 LINE",
"254 644 LINE",
"137 644 LINE",
"1 0 LINE"
);
},
{
closed = 1;
nodes = (
"240 -238 LINE",
"333 -37 LINE",
"227 -37 LINE",
"154 -238 LINE"
);
}
);
width = 671;
}
);
note = Ncommaaccent;
unicode = 0145;
},
{
glyphname = Ndotaccent;
lastChange = "2015-11-25 08:30:53 +0000";
layers = (
{
layerId = "B67427C8-F911-4143-A2F2-7B953CC18A6E";
name = "Regular Italic";
paths = (
{
closed = 1;
nodes = (
"136 0 LINE",
"227 429 LINE",
"441 0 LINE",
"558 0 LINE",
"694 644 LINE",
"559 644 LINE",
"468 215 LINE",
"254 644 LINE",
"137 644 LINE",
"1 0 LINE"
);
},
{
closed = 1;
nodes = (
"491 713 LINE",
"512 811 LINE",
"407 811 LINE",
"386 713 LINE"
);
}
);
width = 671;
}
);
note = Ndotaccent;
unicode = 1E44;
},
{
glyphname = Ndotbelow;
lastChange = "2015-11-25 08:30:49 +0000";
layers = (
{
layerId = "B67427C8-F911-4143-A2F2-7B953CC18A6E";
name = "Regular Italic";
paths = (
{
closed = 1;
nodes = (
"136 0 LINE",
"227 429 LINE",
"441 0 LINE",
"558 0 LINE",
"694 644 LINE",
"559 644 LINE",
"468 215 LINE",
"254 644 LINE",
"137 644 LINE",
"1 0 LINE"
);
},
{
closed = 1;
nodes = (
"297 -181 LINE",
"318 -82 LINE",
"211 -82 LINE",
"190 -181 LINE"
);
}
);
width = 671;
}
);
note = Ndotbelow;
unicode = 1E46;
},
{
glyphname = Eng;
lastChange = "2015-11-25 08:30:52 +0000";
layers = (
{
layerId = "B67427C8-F911-4143-A2F2-7B953CC18A6E";
name = "Regular Italic";
paths = (
{
closed = 1;
nodes = (
"455 -234 OFFCURVE",
"521 -171 OFFCURVE",
"541 -77 CURVE SMOOTH",
"694 644 LINE",
"559 644 LINE",
"468 215 LINE",
"254 644 LINE",
"137 644 LINE",
"1 0 LINE",
"136 0 LINE",
"227 429 LINE",
"428 25 LINE",
"409 -64 LINE SMOOTH",
"399 -112 OFFCURVE",
"371 -133 OFFCURVE",
"317 -133 CURVE SMOOTH",
"299 -133 OFFCURVE",
"279 -130 OFFCURVE",
"259 -123 CURVE",
"240 -216 LINE",
"267 -228 OFFCURVE",
"302 -234 OFFCURVE",
"344 -234 CURVE SMOOTH"
);
}
);
width = 671;
}
);
note = Eng;
unicode = 014A;
},
{
glyphname = Nlinebelow;
lastChange = "2015-11-25 08:30:50 +0000";
layers = (
{
layerId = "B67427C8-F911-4143-A2F2-7B953CC18A6E";
name = "Regular Italic";
paths = (
{
closed = 1;
nodes = (
"136 0 LINE",
"227 429 LINE",
"441 0 LINE",
"558 0 LINE",
"694 644 LINE",
"559 644 LINE",
"468 215 LINE",
"254 644 LINE",
"137 644 LINE",
"1 0 LINE"
);
},
{
closed = 1;
nodes = (
"404 -155 LINE",
"421 -72 LINE",
"114 -72 LINE",
"97 -155 LINE"
);
}
);
width = 671;
}
);
note = Nlinebelow;
unicode = 1E48;
},
{
glyphname = Ntilde;
lastChange = "2015-11-25 08:30:52 +0000";
layers = (
{
layerId = "B67427C8-F911-4143-A2F2-7B953CC18A6E";
name = "Regular Italic";
paths = (
{
closed = 1;
nodes = (
"136 0 LINE",
"227 429 LINE",
"441 0 LINE",
"558 0 LINE",
"694 644 LINE",
"559 644 LINE",
"468 215 LINE",
"254 644 LINE",
"137 644 LINE",
"1 0 LINE"
);
},
{
closed = 1;
nodes = (
"559 700 OFFCURVE",
"592 714 OFFCURVE",
"608 732 CURVE",
"629 828 LINE",
"607 804 OFFCURVE",
"576 790 OFFCURVE",
"538 790 CURVE SMOOTH",
"482 790 OFFCURVE",
"446 830 OFFCURVE",
"385 830 CURVE SMOOTH",
"350 830 OFFCURVE",
"314 817 OFFCURVE",
"292 799 CURVE",
"271 703 LINE",
"300 728 OFFCURVE",
"332 740 OFFCURVE",
"369 740 CURVE SMOOTH",
"418 740 OFFCURVE",
"463 700 OFFCURVE",
"522 700 CURVE SMOOTH"
);
}
);
width = 671;
}
);
note = Ntilde;
unicode = 00D1;
},
{
glyphname = O;
lastChange = "2015-11-25 08:30:52 +0000";
layers = (
{
layerId = "B67427C8-F911-4143-A2F2-7B953CC18A6E";
name = "Regular Italic";
paths = (
{
closed = 1;
nodes = (
"510 -10 OFFCURVE",
"627 98 OFFCURVE",
"674 319 CURVE SMOOTH",
"724 555 OFFCURVE",
"635 654 OFFCURVE",
"433 654 CURVE SMOOTH",
"214 654 OFFCURVE",
"98 555 OFFCURVE",
"48 319 CURVE SMOOTH",
"1 98 OFFCURVE",
"93 -10 OFFCURVE",
"291 -10 CURVE SMOOTH"
);
},
{
closed = 1;
nodes = (
"184 105 OFFCURVE",
"154 168 OFFCURVE",
"185 319 CURVE SMOOTH",
"218 480 OFFCURVE",
"287 539 OFFCURVE",
"408 539 CURVE SMOOTH",
"543 539 OFFCURVE",
"573 484 OFFCURVE",
"537 319 CURVE SMOOTH",
"505 174 OFFCURVE",
"437 105 OFFCURVE",
"316 105 CURVE SMOOTH"
);
}
);
width = 700;
}
);
leftKerningGroup = O;
note = O;
rightKerningGroup = O;
unicode = 004F;
},
{
glyphname = Oacute;
lastChange = "2015-11-25 08:30:52 +0000";
layers = (
{
layerId = "B67427C8-F911-4143-A2F2-7B953CC18A6E";
name = "Regular Italic";
paths = (
{
closed = 1;
nodes = (
"510 -10 OFFCURVE",
"627 98 OFFCURVE",
"674 319 CURVE SMOOTH",
"724 555 OFFCURVE",
"635 654 OFFCURVE",
"433 654 CURVE SMOOTH",
"214 654 OFFCURVE",
"98 555 OFFCURVE",
"48 319 CURVE SMOOTH",
"1 98 OFFCURVE",
"93 -10 OFFCURVE",
"291 -10 CURVE SMOOTH"
);
},
{
closed = 1;
nodes = (
"184 105 OFFCURVE",
"154 168 OFFCURVE",
"185 319 CURVE SMOOTH",
"218 480 OFFCURVE",
"287 539 OFFCURVE",
"408 539 CURVE SMOOTH",
"543 539 OFFCURVE",
"573 484 OFFCURVE",
"537 319 CURVE SMOOTH",
"505 174 OFFCURVE",
"437 105 OFFCURVE",
"316 105 CURVE SMOOTH"
);
},
{
closed = 1;
nodes = (
"487 688 LINE",
"615 875 LINE",
"498 875 LINE",
"378 688 LINE"
);
}
);
width = 700;
}
);
leftKerningGroup = O;
note = Oacute;
rightKerningGroup = O;
unicode = 00D3;
},
{
glyphname = Obreve;
lastChange = "2015-11-25 08:30:51 +0000";
layers = (
{
layerId = "B67427C8-F911-4143-A2F2-7B953CC18A6E";
name = "Regular Italic";
paths = (
{
closed = 1;
nodes = (
"510 -10 OFFCURVE",
"627 98 OFFCURVE",
"674 319 CURVE SMOOTH",
"724 555 OFFCURVE",
"635 654 OFFCURVE",
"433 654 CURVE SMOOTH",
"214 654 OFFCURVE",
"98 555 OFFCURVE",
"48 319 CURVE SMOOTH",
"1 98 OFFCURVE",
"93 -10 OFFCURVE",
"291 -10 CURVE SMOOTH"
);
},
{
closed = 1;
nodes = (
"184 105 OFFCURVE",
"154 168 OFFCURVE",
"185 319 CURVE SMOOTH",
"218 480 OFFCURVE",
"287 539 OFFCURVE",
"408 539 CURVE SMOOTH",
"543 539 OFFCURVE",
"573 484 OFFCURVE",
"537 319 CURVE SMOOTH",
"505 174 OFFCURVE",
"437 105 OFFCURVE",
"316 105 CURVE SMOOTH"
);
},
{
closed = 1;
nodes = (
"547 688 OFFCURVE",
"611 747 OFFCURVE",
"632 845 CURVE",
"537 845 LINE",
"528 803 OFFCURVE",
"497 766 OFFCURVE",
"451 766 CURVE SMOOTH",
"398 766 OFFCURVE",
"392 803 OFFCURVE",
"401 845 CURVE",
"317 845 LINE",
"296 747 OFFCURVE",
"347 688 OFFCURVE",
"439 688 CURVE SMOOTH"
);
}
);
width = 700;
}
);
leftKerningGroup = O;
note = Obreve;
rightKerningGroup = O;
unicode = 014E;
},
{
glyphname = Ocaron;
lastChange = "2015-11-25 08:30:51 +0000";
layers = (
{
layerId = "B67427C8-F911-4143-A2F2-7B953CC18A6E";
name = "Regular Italic";
paths = (
{
closed = 1;
nodes = (
"510 -10 OFFCURVE",
"627 98 OFFCURVE",
"674 319 CURVE SMOOTH",
"724 555 OFFCURVE",
"635 654 OFFCURVE",
"433 654 CURVE SMOOTH",
"214 654 OFFCURVE",
"98 555 OFFCURVE",
"48 319 CURVE SMOOTH",
"1 98 OFFCURVE",
"93 -10 OFFCURVE",
"291 -10 CURVE SMOOTH"
);
},
{
closed = 1;
nodes = (
"184 105 OFFCURVE",
"154 168 OFFCURVE",
"185 319 CURVE SMOOTH",
"218 480 OFFCURVE",
"287 539 OFFCURVE",
"408 539 CURVE SMOOTH",
"543 539 OFFCURVE",
"573 484 OFFCURVE",
"537 319 CURVE SMOOTH",
"505 174 OFFCURVE",
"437 105 OFFCURVE",
"316 105 CURVE SMOOTH"
);
},
{
closed = 1;
nodes = (
"483 688 LINE",
"655 862 LINE",
"546 862 LINE",
"450 762 LINE",
"400 862 LINE",
"300 862 LINE",
"397 688 LINE"
);
}
);
width = 700;
}
);
leftKerningGroup = O;
note = Ocaron;
rightKerningGroup = O;
unicode = 01D1;
},
{
glyphname = Ocircumflex;
lastChange = "2015-11-25 08:30:53 +0000";
layers = (
{
layerId = "B67427C8-F911-4143-A2F2-7B953CC18A6E";
name = "Regular Italic";
paths = (
{
closed = 1;
nodes = (
"510 -10 OFFCURVE",
"627 98 OFFCURVE",
"674 319 CURVE SMOOTH",
"724 555 OFFCURVE",
"635 654 OFFCURVE",
"433 654 CURVE SMOOTH",
"214 654 OFFCURVE",
"98 555 OFFCURVE",
"48 319 CURVE SMOOTH",
"1 98 OFFCURVE",
"93 -10 OFFCURVE",
"291 -10 CURVE SMOOTH"
);
},
{
closed = 1;
nodes = (
"184 105 OFFCURVE",
"154 168 OFFCURVE",
"185 319 CURVE SMOOTH",
"218 480 OFFCURVE",
"287 539 OFFCURVE",
"408 539 CURVE SMOOTH",
"543 539 OFFCURVE",
"573 484 OFFCURVE",
"537 319 CURVE SMOOTH",
"505 174 OFFCURVE",
"437 105 OFFCURVE",
"316 105 CURVE SMOOTH"
);
},
{
closed = 1;
nodes = (
"373 688 LINE",
"466 788 LINE",
"519 688 LINE",
"618 688 LINE",
"520 862 LINE",
"434 862 LINE",
"263 688 LINE"
);
}
);
width = 700;
}
);
leftKerningGroup = O;
note = Ocircumflex;
rightKerningGroup = O;
unicode = 00D4;
},
{
glyphname = Ocircumflexacute;
lastChange = "2015-11-25 08:30:51 +0000";
layers = (
{
layerId = "B67427C8-F911-4143-A2F2-7B953CC18A6E";
name = "Regular Italic";
paths = (
{
closed = 1;
nodes = (
"510 -10 OFFCURVE",
"627 98 OFFCURVE",
"674 319 CURVE SMOOTH",
"724 555 OFFCURVE",
"635 654 OFFCURVE",
"433 654 CURVE SMOOTH",
"214 654 OFFCURVE",
"98 555 OFFCURVE",
"48 319 CURVE SMOOTH",
"1 98 OFFCURVE",
"93 -10 OFFCURVE",
"291 -10 CURVE SMOOTH"
);
},
{
closed = 1;
nodes = (
"184 105 OFFCURVE",
"154 168 OFFCURVE",
"185 319 CURVE SMOOTH",
"218 480 OFFCURVE",
"287 539 OFFCURVE",
"408 539 CURVE SMOOTH",
"543 539 OFFCURVE",
"573 484 OFFCURVE",
"537 319 CURVE SMOOTH",
"505 174 OFFCURVE",
"437 105 OFFCURVE",
"316 105 CURVE SMOOTH"
);
},
{
closed = 1;
nodes = (
"381 687 LINE",
"465 768 LINE",
"516 687 LINE",
"620 687 LINE",
"522 822 LINE",
"419 822 LINE",
"265 687 LINE"
);
},
{
closed = 1;
nodes = (
"663 804 LINE",
"766 945 LINE",
"664 945 LINE",
"569 804 LINE"
);
}
);
width = 700;
}
);
leftKerningGroup = O;
note = Ocircumflexacute;
rightKerningGroup = O;
unicode = 1ED0;
},
{
glyphname = Ocircumflexdotbelow;
lastChange = "2015-11-25 08:30:51 +0000";
layers = (
{
layerId = "B67427C8-F911-4143-A2F2-7B953CC18A6E";
name = "Regular Italic";
paths = (
{
closed = 1;
nodes = (
"510 -10 OFFCURVE",
"627 98 OFFCURVE",
"674 319 CURVE SMOOTH",
"724 555 OFFCURVE",
"635 654 OFFCURVE",
"433 654 CURVE SMOOTH",
"214 654 OFFCURVE",
"98 555 OFFCURVE",
"48 319 CURVE SMOOTH",
"1 98 OFFCURVE",
"93 -10 OFFCURVE",
"291 -10 CURVE SMOOTH"
);
},
{
closed = 1;
nodes = (
"184 105 OFFCURVE",
"154 168 OFFCURVE",
"185 319 CURVE SMOOTH",
"218 480 OFFCURVE",
"287 539 OFFCURVE",
"408 539 CURVE SMOOTH",
"543 539 OFFCURVE",
"573 484 OFFCURVE",
"537 319 CURVE SMOOTH",
"505 174 OFFCURVE",
"437 105 OFFCURVE",
"316 105 CURVE SMOOTH"
);
},
{
closed = 1;
nodes = (
"310 -181 LINE",
"331 -82 LINE",
"224 -82 LINE",
"203 -181 LINE"
);
},
{
closed = 1;
nodes = (
"375 698 LINE",
"468 798 LINE",
"521 698 LINE",
"620 698 LINE",
"522 872 LINE",
"436 872 LINE",
"265 698 LINE"
);
}
);
width = 700;
}
);
leftKerningGroup = O;
note = Ocircumflexdotbelow;
rightKerningGroup = O;
unicode = 1ED8;
},
{
glyphname = Ocircumflexgrave;
lastChange = "2015-11-25 08:30:51 +0000";
layers = (
{
layerId = "B67427C8-F911-4143-A2F2-7B953CC18A6E";
name = "Regular Italic";
paths = (
{
closed = 1;
nodes = (
"510 -10 OFFCURVE",
"627 98 OFFCURVE",
"674 319 CURVE SMOOTH",
"724 555 OFFCURVE",
"635 654 OFFCURVE",
"433 654 CURVE SMOOTH",
"214 654 OFFCURVE",
"98 555 OFFCURVE",
"48 319 CURVE SMOOTH",
"1 98 OFFCURVE",
"93 -10 OFFCURVE",
"291 -10 CURVE SMOOTH"
);
},
{
closed = 1;
nodes = (
"184 105 OFFCURVE",
"154 168 OFFCURVE",
"185 319 CURVE SMOOTH",
"218 480 OFFCURVE",
"287 539 OFFCURVE",
"408 539 CURVE SMOOTH",
"543 539 OFFCURVE",
"573 484 OFFCURVE",
"537 319 CURVE SMOOTH",
"505 174 OFFCURVE",
"437 105 OFFCURVE",
"316 105 CURVE SMOOTH"
);
},
{
closed = 1;
nodes = (
"361 804 LINE",
"325 945 LINE",
"223 945 LINE",
"266 804 LINE"
);
},
{
closed = 1;
nodes = (
"376 687 LINE",
"460 768 LINE",
"511 687 LINE",
"615 687 LINE",
"517 822 LINE",
"414 822 LINE",
"260 687 LINE"
);
}
);
width = 700;
}
);
leftKerningGroup = O;
note = Ocircumflexgrave;
rightKerningGroup = O;
unicode = 1ED2;
},
{
glyphname = Ocircumflexhookabove;
lastChange = "2015-11-25 08:30:52 +0000";
layers = (
{
layerId = "B67427C8-F911-4143-A2F2-7B953CC18A6E";
name = "Regular Italic";
paths = (
{
closed = 1;
nodes = (
"510 -10 OFFCURVE",
"627 98 OFFCURVE",
"674 319 CURVE SMOOTH",
"724 555 OFFCURVE",
"635 654 OFFCURVE",
"433 654 CURVE SMOOTH",
"214 654 OFFCURVE",
"98 555 OFFCURVE",
"48 319 CURVE SMOOTH",
"1 98 OFFCURVE",
"93 -10 OFFCURVE",
"291 -10 CURVE SMOOTH"
);
},
{
closed = 1;
nodes = (
"184 105 OFFCURVE",
"154 168 OFFCURVE",
"185 319 CURVE SMOOTH",
"218 480 OFFCURVE",
"287 539 OFFCURVE",
"408 539 CURVE SMOOTH",
"543 539 OFFCURVE",
"573 484 OFFCURVE",
"537 319 CURVE SMOOTH",
"505 174 OFFCURVE",
"437 105 OFFCURVE",
"316 105 CURVE SMOOTH"
);
},
{
closed = 1;
nodes = (
"375 687 LINE",
"459 768 LINE",
"510 687 LINE",
"614 687 LINE",
"516 822 LINE",
"413 822 LINE",
"259 687 LINE"
);
},
{
closed = 1;
nodes = (
"659 782 LINE",
"666 816 LINE",
"721 824 OFFCURVE",
"750 851 OFFCURVE",
"759 895 CURVE SMOOTH",
"769 943 OFFCURVE",
"736 976 OFFCURVE",
"666 976 CURVE SMOOTH",
"629 976 OFFCURVE",
"604 971 OFFCURVE",
"582 964 CURVE",
"568 902 LINE",
"585 909 OFFCURVE",
"604 914 OFFCURVE",
"624 914 CURVE SMOOTH",
"654 914 OFFCURVE",
"667 907 OFFCURVE",
"663 887 CURVE SMOOTH",
"659 865 OFFCURVE",
"643 855 OFFCURVE",
"582 852 CURVE",
"567 782 LINE"
);
}
);
width = 700;
}
);
leftKerningGroup = O;
note = Ocircumflexhookabove;
rightKerningGroup = O;
unicode = 1ED4;
},
{
glyphname = Ocircumflextilde;
lastChange = "2015-11-25 08:30:52 +0000";
layers = (
{
layerId = "B67427C8-F911-4143-A2F2-7B953CC18A6E";
name = "Regular Italic";
paths = (
{
closed = 1;
nodes = (
"510 -10 OFFCURVE",
"627 98 OFFCURVE",
"674 319 CURVE SMOOTH",
"724 555 OFFCURVE",
"635 654 OFFCURVE",
"433 654 CURVE SMOOTH",
"214 654 OFFCURVE",
"98 555 OFFCURVE",
"48 319 CURVE SMOOTH",
"1 98 OFFCURVE",
"93 -10 OFFCURVE",
"291 -10 CURVE SMOOTH"
);
},
{
closed = 1;
nodes = (
"184 105 OFFCURVE",
"154 168 OFFCURVE",
"185 319 CURVE SMOOTH",
"218 480 OFFCURVE",
"287 539 OFFCURVE",
"408 539 CURVE SMOOTH",
"543 539 OFFCURVE",
"573 484 OFFCURVE",
"537 319 CURVE SMOOTH",
"505 174 OFFCURVE",
"437 105 OFFCURVE",
"316 105 CURVE SMOOTH"
);
},
{
closed = 1;
nodes = (
"544 688 OFFCURVE",
"614 733 OFFCURVE",
"638 844 CURVE",
"555 844 LINE",
"543 789 OFFCURVE",
"510 759 OFFCURVE",
"453 759 CURVE SMOOTH",
"388 759 OFFCURVE",
"374 789 OFFCURVE",
"386 844 CURVE",
"309 844 LINE",
"285 733 OFFCURVE",
"353 688 OFFCURVE",
"441 688 CURVE SMOOTH"
);
},
{
closed = 1;
nodes = (
"601 865 OFFCURVE",
"634 879 OFFCURVE",
"651 897 CURVE",
"668 983 LINE",
"647 959 OFFCURVE",
"616 945 OFFCURVE",
"578 945 CURVE SMOOTH",
"522 945 OFFCURVE",
"487 985 OFFCURVE",
"426 985 CURVE SMOOTH",
"391 985 OFFCURVE",
"354 972 OFFCURVE",
"332 954 CURVE",
"314 868 LINE",
"342 893 OFFCURVE",
"375 905 OFFCURVE",
"412 905 CURVE SMOOTH",
"461 905 OFFCURVE",
"505 865 OFFCURVE",
"564 865 CURVE SMOOTH"
);
}
);
width = 700;
}
);
leftKerningGroup = O;
note = Ocircumflextilde;
rightKerningGroup = O;
unicode = 1ED6;
},
{
glyphname = Odieresis;
lastChange = "2015-11-25 08:30:50 +0000";
layers = (
{
layerId = "B67427C8-F911-4143-A2F2-7B953CC18A6E";
name = "Regular Italic";
paths = (
{
closed = 1;
nodes = (
"510 -10 OFFCURVE",
"627 98 OFFCURVE",
"674 319 CURVE SMOOTH",
"724 555 OFFCURVE",
"635 654 OFFCURVE",
"433 654 CURVE SMOOTH",
"214 654 OFFCURVE",
"98 555 OFFCURVE",
"48 319 CURVE SMOOTH",
"1 98 OFFCURVE",
"93 -10 OFFCURVE",
"291 -10 CURVE SMOOTH"
);
},
{
closed = 1;
nodes = (
"184 105 OFFCURVE",
"154 168 OFFCURVE",
"185 319 CURVE SMOOTH",
"218 480 OFFCURVE",
"287 539 OFFCURVE",
"408 539 CURVE SMOOTH",
"543 539 OFFCURVE",
"573 484 OFFCURVE",
"537 319 CURVE SMOOTH",
"505 174 OFFCURVE",
"437 105 OFFCURVE",
"316 105 CURVE SMOOTH"
);
},
{
closed = 1;
nodes = (
"400 713 LINE",
"421 811 LINE",
"316 811 LINE",
"295 713 LINE"
);
},
{
closed = 1;
nodes = (
"596 713 LINE",
"617 811 LINE",
"511 811 LINE",
"490 713 LINE"
);
}
);
width = 700;
}
);
leftKerningGroup = O;
note = Odieresis;
rightKerningGroup = O;
unicode = 00D6;
},
{
glyphname = Odotbelow;
lastChange = "2015-11-25 08:30:50 +0000";
layers = (
{
layerId = "B67427C8-F911-4143-A2F2-7B953CC18A6E";
name = "Regular Italic";
paths = (
{
closed = 1;
nodes = (
"510 -10 OFFCURVE",
"627 98 OFFCURVE",
"674 319 CURVE SMOOTH",
"724 555 OFFCURVE",
"635 654 OFFCURVE",
"433 654 CURVE SMOOTH",
"214 654 OFFCURVE",
"98 555 OFFCURVE",
"48 319 CURVE SMOOTH",
"1 98 OFFCURVE",
"93 -10 OFFCURVE",
"291 -10 CURVE SMOOTH"
);
},
{
closed = 1;
nodes = (
"184 105 OFFCURVE",
"154 168 OFFCURVE",
"185 319 CURVE SMOOTH",
"218 480 OFFCURVE",
"287 539 OFFCURVE",
"408 539 CURVE SMOOTH",
"543 539 OFFCURVE",
"573 484 OFFCURVE",
"537 319 CURVE SMOOTH",
"505 174 OFFCURVE",
"437 105 OFFCURVE",
"316 105 CURVE SMOOTH"
);
},
{
closed = 1;
nodes = (
"310 -181 LINE",
"331 -82 LINE",
"224 -82 LINE",
"203 -181 LINE"
);
}
);
width = 700;
}
);
leftKerningGroup = O;
note = Odotbelow;
rightKerningGroup = O;
unicode = 1ECC;
},
{
glyphname = Ograve;
lastChange = "2015-11-25 08:30:51 +0000";
layers = (
{
layerId = "B67427C8-F911-4143-A2F2-7B953CC18A6E";
name = "Regular Italic";
paths = (
{
closed = 1;
nodes = (
"510 -10 OFFCURVE",
"627 98 OFFCURVE",
"674 319 CURVE SMOOTH",
"724 555 OFFCURVE",
"635 654 OFFCURVE",
"433 654 CURVE SMOOTH",
"214 654 OFFCURVE",
"98 555 OFFCURVE",
"48 319 CURVE SMOOTH",
"1 98 OFFCURVE",
"93 -10 OFFCURVE",
"291 -10 CURVE SMOOTH"
);
},
{
closed = 1;
nodes = (
"184 105 OFFCURVE",
"154 168 OFFCURVE",
"185 319 CURVE SMOOTH",
"218 480 OFFCURVE",
"287 539 OFFCURVE",
"408 539 CURVE SMOOTH",
"543 539 OFFCURVE",
"573 484 OFFCURVE",
"537 319 CURVE SMOOTH",
"505 174 OFFCURVE",
"437 105 OFFCURVE",
"316 105 CURVE SMOOTH"
);
},
{
closed = 1;
nodes = (
"500 688 LINE",
"460 875 LINE",
"343 875 LINE",
"391 688 LINE"
);
}
);
width = 700;
}
);
leftKerningGroup = O;
note = Ograve;
rightKerningGroup = O;
unicode = 00D2;
},
{
glyphname = Ohookabove;
lastChange = "2015-11-25 08:30:50 +0000";
layers = (
{
layerId = "B67427C8-F911-4143-A2F2-7B953CC18A6E";
name = "Regular Italic";
paths = (
{
closed = 1;
nodes = (
"510 -10 OFFCURVE",
"627 98 OFFCURVE",
"674 319 CURVE SMOOTH",
"724 555 OFFCURVE",
"635 654 OFFCURVE",
"433 654 CURVE SMOOTH",
"214 654 OFFCURVE",
"98 555 OFFCURVE",
"48 319 CURVE SMOOTH",
"1 98 OFFCURVE",
"93 -10 OFFCURVE",
"291 -10 CURVE SMOOTH"
);
},
{
closed = 1;
nodes = (
"184 105 OFFCURVE",
"154 168 OFFCURVE",
"185 319 CURVE SMOOTH",
"218 480 OFFCURVE",
"287 539 OFFCURVE",
"408 539 CURVE SMOOTH",
"543 539 OFFCURVE",
"573 484 OFFCURVE",
"537 319 CURVE SMOOTH",
"505 174 OFFCURVE",
"437 105 OFFCURVE",
"316 105 CURVE SMOOTH"
);
},
{
closed = 1;
nodes = (
"492 687 LINE",
"502 733 LINE",
"568 745 OFFCURVE",
"597 772 OFFCURVE",
"609 828 CURVE SMOOTH",
"621 886 OFFCURVE",
"583 924 OFFCURVE",
"498 924 CURVE SMOOTH",
"459 924 OFFCURVE",
"421 919 OFFCURVE",
"396 911 CURVE",
"381 844 LINE",
"399 851 OFFCURVE",
"427 855 OFFCURVE",
"446 855 CURVE SMOOTH",
"489 855 OFFCURVE",
"512 843 OFFCURVE",
"506 816 CURVE SMOOTH",
"500 786 OFFCURVE",
"480 772 OFFCURVE",
"406 768 CURVE",
"389 687 LINE"
);
}
);
width = 700;
}
);
leftKerningGroup = O;
note = Ohookabove;
rightKerningGroup = O;
unicode = 1ECE;
},
{
glyphname = Ohorn;
lastChange = "2015-11-25 08:30:53 +0000";
layers = (
{
layerId = "B67427C8-F911-4143-A2F2-7B953CC18A6E";
name = "Regular Italic";
paths = (
{
closed = 1;
nodes = (
"510 -10 OFFCURVE",
"627 98 OFFCURVE",
"674 319 CURVE SMOOTH",
"689 390 OFFCURVE",
"691 448 OFFCURVE",
"682 496 CURVE",
"776 511 OFFCURVE",
"830 562 OFFCURVE",
"857 688 CURVE",
"760 688 LINE",
"743 609 OFFCURVE",
"712 582 OFFCURVE",
"644 580 CURVE",
"602 631 OFFCURVE",
"531 654 OFFCURVE",
"433 654 CURVE SMOOTH",
"214 654 OFFCURVE",
"98 555 OFFCURVE",
"48 319 CURVE SMOOTH",
"1 98 OFFCURVE",
"93 -10 OFFCURVE",
"291 -10 CURVE SMOOTH"
);
},
{
closed = 1;
nodes = (
"184 105 OFFCURVE",
"154 168 OFFCURVE",
"185 319 CURVE SMOOTH",
"218 480 OFFCURVE",
"287 539 OFFCURVE",
"408 539 CURVE SMOOTH",
"543 539 OFFCURVE",
"573 484 OFFCURVE",
"537 319 CURVE SMOOTH",
"505 174 OFFCURVE",
"437 105 OFFCURVE",
"316 105 CURVE SMOOTH"
);
}
);
width = 780;
}
);
leftKerningGroup = O;
note = Ohorn;
rightKerningGroup = O;
unicode = 01A0;
},
{
glyphname = Ohornacute;
lastChange = "2015-11-25 08:30:51 +0000";
layers = (
{
layerId = "B67427C8-F911-4143-A2F2-7B953CC18A6E";
name = "Regular Italic";
paths = (
{
closed = 1;
nodes = (
"510 -10 OFFCURVE",
"627 98 OFFCURVE",
"674 319 CURVE SMOOTH",
"689 390 OFFCURVE",
"691 448 OFFCURVE",
"682 496 CURVE",
"776 511 OFFCURVE",
"830 562 OFFCURVE",
"857 688 CURVE",
"760 688 LINE",
"743 609 OFFCURVE",
"712 582 OFFCURVE",
"644 580 CURVE",
"602 631 OFFCURVE",
"531 654 OFFCURVE",
"433 654 CURVE SMOOTH",
"214 654 OFFCURVE",
"98 555 OFFCURVE",
"48 319 CURVE SMOOTH",
"1 98 OFFCURVE",
"93 -10 OFFCURVE",
"291 -10 CURVE SMOOTH"
);
},
{
closed = 1;
nodes = (
"184 105 OFFCURVE",
"154 168 OFFCURVE",
"185 319 CURVE SMOOTH",
"218 480 OFFCURVE",
"287 539 OFFCURVE",
"408 539 CURVE SMOOTH",
"543 539 OFFCURVE",
"573 484 OFFCURVE",
"537 319 CURVE SMOOTH",
"505 174 OFFCURVE",
"437 105 OFFCURVE",
"316 105 CURVE SMOOTH"
);
},
{
closed = 1;
nodes = (
"504 688 LINE",
"632 875 LINE",
"515 875 LINE",
"395 688 LINE"
);
}
);
width = 780;
}
);
leftKerningGroup = O;
note = Ohornacute;
rightKerningGroup = O;
unicode = 1EDA;
},
{
glyphname = Ohorndotbelow;
lastChange = "2015-11-25 08:30:50 +0000";
layers = (
{
layerId = "B67427C8-F911-4143-A2F2-7B953CC18A6E";
name = "Regular Italic";
paths = (
{
closed = 1;
nodes = (
"510 -10 OFFCURVE",
"627 98 OFFCURVE",
"674 319 CURVE SMOOTH",
"689 390 OFFCURVE",
"691 448 OFFCURVE",
"682 496 CURVE",
"776 511 OFFCURVE",
"830 562 OFFCURVE",
"857 688 CURVE",
"760 688 LINE",
"743 609 OFFCURVE",
"712 582 OFFCURVE",
"644 580 CURVE",
"602 631 OFFCURVE",
"531 654 OFFCURVE",
"433 654 CURVE SMOOTH",
"214 654 OFFCURVE",
"98 555 OFFCURVE",
"48 319 CURVE SMOOTH",
"1 98 OFFCURVE",
"93 -10 OFFCURVE",
"291 -10 CURVE SMOOTH"
);
},
{
closed = 1;
nodes = (
"184 105 OFFCURVE",
"154 168 OFFCURVE",
"185 319 CURVE SMOOTH",
"218 480 OFFCURVE",
"287 539 OFFCURVE",
"408 539 CURVE SMOOTH",
"543 539 OFFCURVE",
"573 484 OFFCURVE",
"537 319 CURVE SMOOTH",
"505 174 OFFCURVE",
"437 105 OFFCURVE",
"316 105 CURVE SMOOTH"
);
},
{
closed = 1;
nodes = (
"313 -181 LINE",
"334 -82 LINE",
"227 -82 LINE",
"206 -181 LINE"
);
}
);
width = 780;
}
);
leftKerningGroup = O;
note = Ohorndotbelow;
rightKerningGroup = O;
unicode = 1EE2;
},
{
glyphname = Ohorngrave;
lastChange = "2015-11-25 08:30:51 +0000";
layers = (
{
layerId = "B67427C8-F911-4143-A2F2-7B953CC18A6E";
name = "Regular Italic";
paths = (
{
closed = 1;
nodes = (
"510 -10 OFFCURVE",
"627 98 OFFCURVE",
"674 319 CURVE SMOOTH",
"689 390 OFFCURVE",
"691 448 OFFCURVE",
"682 496 CURVE",
"776 511 OFFCURVE",
"830 562 OFFCURVE",
"857 688 CURVE",
"760 688 LINE",
"743 609 OFFCURVE",
"712 582 OFFCURVE",
"644 580 CURVE",
"602 631 OFFCURVE",
"531 654 OFFCURVE",
"433 654 CURVE SMOOTH",
"214 654 OFFCURVE",
"98 555 OFFCURVE",
"48 319 CURVE SMOOTH",
"1 98 OFFCURVE",
"93 -10 OFFCURVE",
"291 -10 CURVE SMOOTH"
);
},
{
closed = 1;
nodes = (
"184 105 OFFCURVE",
"154 168 OFFCURVE",
"185 319 CURVE SMOOTH",
"218 480 OFFCURVE",
"287 539 OFFCURVE",
"408 539 CURVE SMOOTH",
"543 539 OFFCURVE",
"573 484 OFFCURVE",
"537 319 CURVE SMOOTH",
"505 174 OFFCURVE",
"437 105 OFFCURVE",
"316 105 CURVE SMOOTH"
);
},
{
closed = 1;
nodes = (
"520 688 LINE",
"480 875 LINE",
"363 875 LINE",
"411 688 LINE"
);
}
);
width = 780;
}
);
leftKerningGroup = O;
note = Ohorngrave;
rightKerningGroup = O;
unicode = 1EDC;
},
{
glyphname = Ohornhookabove;
lastChange = "2015-11-25 08:30:52 +0000";
layers = (
{
layerId = "B67427C8-F911-4143-A2F2-7B953CC18A6E";
name = "Regular Italic";
paths = (
{
closed = 1;
nodes = (
"510 -10 OFFCURVE",
"627 98 OFFCURVE",
"674 319 CURVE SMOOTH",
"689 390 OFFCURVE",
"691 448 OFFCURVE",
"682 496 CURVE",
"776 511 OFFCURVE",
"830 562 OFFCURVE",
"857 688 CURVE",
"760 688 LINE",
"743 609 OFFCURVE",
"712 582 OFFCURVE",
"644 580 CURVE",
"602 631 OFFCURVE",
"531 654 OFFCURVE",
"433 654 CURVE SMOOTH",
"214 654 OFFCURVE",
"98 555 OFFCURVE",
"48 319 CURVE SMOOTH",
"1 98 OFFCURVE",
"93 -10 OFFCURVE",
"291 -10 CURVE SMOOTH"
);
},
{
closed = 1;
nodes = (
"184 105 OFFCURVE",
"154 168 OFFCURVE",
"185 319 CURVE SMOOTH",
"218 480 OFFCURVE",
"287 539 OFFCURVE",
"408 539 CURVE SMOOTH",
"543 539 OFFCURVE",
"573 484 OFFCURVE",
"537 319 CURVE SMOOTH",
"505 174 OFFCURVE",
"437 105 OFFCURVE",
"316 105 CURVE SMOOTH"
);
},
{
closed = 1;
nodes = (
"496 687 LINE",
"506 733 LINE",
"572 745 OFFCURVE",
"601 772 OFFCURVE",
"613 828 CURVE SMOOTH",
"625 886 OFFCURVE",
"587 924 OFFCURVE",
"502 924 CURVE SMOOTH",
"463 924 OFFCURVE",
"425 919 OFFCURVE",
"400 911 CURVE",
"385 844 LINE",
"403 851 OFFCURVE",
"431 855 OFFCURVE",
"450 855 CURVE SMOOTH",
"493 855 OFFCURVE",
"516 843 OFFCURVE",
"510 816 CURVE SMOOTH",
"504 786 OFFCURVE",
"484 772 OFFCURVE",
"410 768 CURVE",
"393 687 LINE"
);
}
);
width = 780;
}
);
leftKerningGroup = O;
note = Ohornhookabove;
rightKerningGroup = O;
unicode = 1EDE;
},
{
glyphname = Ohorntilde;
lastChange = "2015-11-25 08:30:51 +0000";
layers = (
{
layerId = "B67427C8-F911-4143-A2F2-7B953CC18A6E";
name = "Regular Italic";
paths = (
{
closed = 1;
nodes = (
"510 -10 OFFCURVE",
"627 98 OFFCURVE",
"674 319 CURVE SMOOTH",
"689 390 OFFCURVE",
"691 448 OFFCURVE",
"682 496 CURVE",
"776 511 OFFCURVE",
"830 562 OFFCURVE",
"857 688 CURVE",
"760 688 LINE",
"743 609 OFFCURVE",
"712 582 OFFCURVE",
"644 580 CURVE",
"602 631 OFFCURVE",
"531 654 OFFCURVE",
"433 654 CURVE SMOOTH",
"214 654 OFFCURVE",
"98 555 OFFCURVE",
"48 319 CURVE SMOOTH",
"1 98 OFFCURVE",
"93 -10 OFFCURVE",
"291 -10 CURVE SMOOTH"
);
},
{
closed = 1;
nodes = (
"184 105 OFFCURVE",
"154 168 OFFCURVE",
"185 319 CURVE SMOOTH",
"218 480 OFFCURVE",
"287 539 OFFCURVE",
"408 539 CURVE SMOOTH",
"543 539 OFFCURVE",
"573 484 OFFCURVE",
"537 319 CURVE SMOOTH",
"505 174 OFFCURVE",
"437 105 OFFCURVE",
"316 105 CURVE SMOOTH"
);
},
{
closed = 1;
nodes = (
"576 697 OFFCURVE",
"609 711 OFFCURVE",
"625 729 CURVE",
"646 825 LINE",
"624 801 OFFCURVE",
"593 787 OFFCURVE",
"555 787 CURVE SMOOTH",
"499 787 OFFCURVE",
"463 827 OFFCURVE",
"402 827 CURVE SMOOTH",
"367 827 OFFCURVE",
"331 814 OFFCURVE",
"309 796 CURVE",
"288 700 LINE",
"317 725 OFFCURVE",
"349 737 OFFCURVE",
"386 737 CURVE SMOOTH",
"435 737 OFFCURVE",
"480 697 OFFCURVE",
"539 697 CURVE SMOOTH"
);
}
);
width = 780;
}
);
leftKerningGroup = O;
note = Ohorntilde;
rightKerningGroup = O;
unicode = 1EE0;
},
{
glyphname = Ohungarumlaut;
lastChange = "2015-11-25 08:30:50 +0000";
layers = (
{
layerId = "B67427C8-F911-4143-A2F2-7B953CC18A6E";
name = "Regular Italic";
paths = (
{
closed = 1;
nodes = (
"510 -10 OFFCURVE",
"627 98 OFFCURVE",
"674 319 CURVE SMOOTH",
"724 555 OFFCURVE",
"635 654 OFFCURVE",
"433 654 CURVE SMOOTH",
"214 654 OFFCURVE",
"98 555 OFFCURVE",
"48 319 CURVE SMOOTH",
"1 98 OFFCURVE",
"93 -10 OFFCURVE",
"291 -10 CURVE SMOOTH"
);
},
{
closed = 1;
nodes = (
"184 105 OFFCURVE",
"154 168 OFFCURVE",
"185 319 CURVE SMOOTH",
"218 480 OFFCURVE",
"287 539 OFFCURVE",
"408 539 CURVE SMOOTH",
"543 539 OFFCURVE",
"573 484 OFFCURVE",
"537 319 CURVE SMOOTH",
"505 174 OFFCURVE",
"437 105 OFFCURVE",
"316 105 CURVE SMOOTH"
);
},
{
closed = 1;
nodes = (
"351 687 LINE",
"480 863 LINE",
"361 863 LINE",
"244 687 LINE"
);
},
{
closed = 1;
nodes = (
"578 687 LINE",
"708 863 LINE",
"588 863 LINE",
"471 687 LINE"
);
}
);
width = 700;
}
);
leftKerningGroup = O;
note = Ohungarumlaut;
rightKerningGroup = O;
unicode = 0150;
},
{
glyphname = Omacron;
lastChange = "2015-11-25 08:30:50 +0000";
layers = (
{
layerId = "B67427C8-F911-4143-A2F2-7B953CC18A6E";
name = "Regular Italic";
paths = (
{
closed = 1;
nodes = (
"510 -10 OFFCURVE",
"627 98 OFFCURVE",
"674 319 CURVE SMOOTH",
"724 555 OFFCURVE",
"635 654 OFFCURVE",
"433 654 CURVE SMOOTH",
"214 654 OFFCURVE",
"98 555 OFFCURVE",
"48 319 CURVE SMOOTH",
"1 98 OFFCURVE",
"93 -10 OFFCURVE",
"291 -10 CURVE SMOOTH"
);
},
{
closed = 1;
nodes = (
"184 105 OFFCURVE",
"154 168 OFFCURVE",
"185 319 CURVE SMOOTH",
"218 480 OFFCURVE",
"287 539 OFFCURVE",
"408 539 CURVE SMOOTH",
"543 539 OFFCURVE",
"573 484 OFFCURVE",
"537 319 CURVE SMOOTH",
"505 174 OFFCURVE",
"437 105 OFFCURVE",
"316 105 CURVE SMOOTH"
);
},
{
closed = 1;
nodes = (
"598 723 LINE",
"615 806 LINE",
"308 806 LINE",
"291 723 LINE"
);
}
);
width = 700;
}
);
leftKerningGroup = O;
note = Omacron;
rightKerningGroup = O;
unicode = 014C;
},
{
glyphname = Oslash;
lastChange = "2015-11-25 08:30:49 +0000";
layers = (
{
layerId = "B67427C8-F911-4143-A2F2-7B953CC18A6E";
name = "Regular Italic";
paths = (
{
closed = 1;
nodes = (
"170 -53 LINE",
"201 -1 LINE",
"228 -7 OFFCURVE",
"258 -10 OFFCURVE",
"291 -10 CURVE SMOOTH",
"510 -10 OFFCURVE",
"627 98 OFFCURVE",
"674 319 CURVE SMOOTH",
"710 489 OFFCURVE",
"674 587 OFFCURVE",
"575 629 CURVE",
"613 693 LINE",
"536 693 LINE",
"509 648 LINE",
"486 652 OFFCURVE",
"460 654 OFFCURVE",
"433 654 CURVE SMOOTH",
"214 654 OFFCURVE",
"98 555 OFFCURVE",
"48 319 CURVE SMOOTH",
"15 167 OFFCURVE",
"49 68 OFFCURVE",
"137 22 CURVE",
"93 -53 LINE"
);
},
{
closed = 1;
nodes = (
"170 168 OFFCURVE",
"166 227 OFFCURVE",
"185 319 CURVE SMOOTH",
"218 480 OFFCURVE",
"287 539 OFFCURVE",
"408 539 CURVE SMOOTH",
"421 539 OFFCURVE",
"432 538 OFFCURVE",
"443 537 CURVE",
"205 136 LINE"
);
},
{
closed = 1;
nodes = (
"297 105 OFFCURVE",
"281 106 OFFCURVE",
"266 109 CURVE",
"509 518 LINE",
"555 490 OFFCURVE",
"561 429 OFFCURVE",
"537 319 CURVE SMOOTH",
"505 174 OFFCURVE",
"437 105 OFFCURVE",
"316 105 CURVE SMOOTH"
);
}
);
width = 700;
}
);
leftKerningGroup = O;
note = Oslash;
rightKerningGroup = O;
unicode = 00D8;
},
{
glyphname = Oslashacute;
lastChange = "2015-11-25 08:30:50 +0000";
layers = (
{
layerId = "B67427C8-F911-4143-A2F2-7B953CC18A6E";
name = "Regular Italic";
paths = (
{
closed = 1;
nodes = (
"170 -53 LINE",
"201 -1 LINE",
"228 -7 OFFCURVE",
"258 -10 OFFCURVE",
"291 -10 CURVE SMOOTH",
"510 -10 OFFCURVE",
"627 98 OFFCURVE",
"674 319 CURVE SMOOTH",
"710 489 OFFCURVE",
"674 587 OFFCURVE",
"575 629 CURVE",
"613 693 LINE",
"536 693 LINE",
"509 648 LINE",
"486 652 OFFCURVE",
"460 654 OFFCURVE",
"433 654 CURVE SMOOTH",
"214 654 OFFCURVE",
"98 555 OFFCURVE",
"48 319 CURVE SMOOTH",
"15 167 OFFCURVE",
"49 68 OFFCURVE",
"137 22 CURVE",
"93 -53 LINE"
);
},
{
closed = 1;
nodes = (
"170 168 OFFCURVE",
"166 227 OFFCURVE",
"185 319 CURVE SMOOTH",
"218 480 OFFCURVE",
"287 539 OFFCURVE",
"408 539 CURVE SMOOTH",
"421 539 OFFCURVE",
"432 538 OFFCURVE",
"443 537 CURVE",
"205 136 LINE"
);
},
{
closed = 1;
nodes = (
"297 105 OFFCURVE",
"281 106 OFFCURVE",
"266 109 CURVE",
"509 518 LINE",
"555 490 OFFCURVE",
"561 429 OFFCURVE",
"537 319 CURVE SMOOTH",
"505 174 OFFCURVE",
"437 105 OFFCURVE",
"316 105 CURVE SMOOTH"
);
},
{
closed = 1;
nodes = (
"468 688 LINE",
"596 875 LINE",
"479 875 LINE",
"359 688 LINE"
);
}
);
width = 700;
}
);
leftKerningGroup = O;
note = Oslashacute;
rightKerningGroup = O;
unicode = 01FE;
},
{
glyphname = Otilde;
lastChange = "2015-11-25 08:30:51 +0000";
layers = (
{
layerId = "B67427C8-F911-4143-A2F2-7B953CC18A6E";
name = "Regular Italic";
paths = (
{
closed = 1;
nodes = (
"510 -10 OFFCURVE",
"627 98 OFFCURVE",
"674 319 CURVE SMOOTH",
"724 555 OFFCURVE",
"635 654 OFFCURVE",
"433 654 CURVE SMOOTH",
"214 654 OFFCURVE",
"98 555 OFFCURVE",
"48 319 CURVE SMOOTH",
"1 98 OFFCURVE",
"93 -10 OFFCURVE",
"291 -10 CURVE SMOOTH"
);
},
{
closed = 1;
nodes = (
"184 105 OFFCURVE",
"154 168 OFFCURVE",
"185 319 CURVE SMOOTH",
"218 480 OFFCURVE",
"287 539 OFFCURVE",
"408 539 CURVE SMOOTH",
"543 539 OFFCURVE",
"573 484 OFFCURVE",
"537 319 CURVE SMOOTH",
"505 174 OFFCURVE",
"437 105 OFFCURVE",
"316 105 CURVE SMOOTH"
);
},
{
closed = 1;
nodes = (
"568 710 OFFCURVE",
"601 724 OFFCURVE",
"617 742 CURVE",
"638 838 LINE",
"616 814 OFFCURVE",
"585 800 OFFCURVE",
"547 800 CURVE SMOOTH",
"491 800 OFFCURVE",
"455 840 OFFCURVE",
"394 840 CURVE SMOOTH",
"359 840 OFFCURVE",
"323 827 OFFCURVE",
"301 809 CURVE",
"280 713 LINE",
"309 738 OFFCURVE",
"341 750 OFFCURVE",
"378 750 CURVE SMOOTH",
"427 750 OFFCURVE",
"472 710 OFFCURVE",
"531 710 CURVE SMOOTH"
);
}
);
width = 700;
}
);
leftKerningGroup = O;
note = Otilde;
rightKerningGroup = O;
unicode = 00D5;
},
{
glyphname = OE;
lastChange = "2015-11-25 08:30:50 +0000";
layers = (
{
layerId = "B67427C8-F911-4143-A2F2-7B953CC18A6E";
name = "Regular Italic";
paths = (
{
closed = 1;
nodes = (
"510 -10 OFFCURVE",
"627 98 OFFCURVE",
"674 319 CURVE SMOOTH",
"724 555 OFFCURVE",
"635 654 OFFCURVE",
"433 654 CURVE SMOOTH",
"214 654 OFFCURVE",
"98 555 OFFCURVE",
"48 319 CURVE SMOOTH",
"1 98 OFFCURVE",
"93 -10 OFFCURVE",
"291 -10 CURVE SMOOTH"
);
},
{
closed = 1;
nodes = (
"184 105 OFFCURVE",
"154 168 OFFCURVE",
"185 319 CURVE SMOOTH",
"218 480 OFFCURVE",
"287 539 OFFCURVE",
"408 539 CURVE SMOOTH",
"543 539 OFFCURVE",
"573 484 OFFCURVE",
"537 319 CURVE SMOOTH",
"505 174 OFFCURVE",
"437 105 OFFCURVE",
"316 105 CURVE SMOOTH"
);
},
{
closed = 1;
nodes = (
"934 0 LINE",
"956 104 LINE",
"629 104 LINE",
"664 270 LINE",
"954 270 LINE",
"976 374 LINE",
"686 374 LINE",
"721 539 LINE",
"1048 539 LINE",
"1070 644 LINE",
"608 644 LINE",
"472 0 LINE"
);
}
);
width = 1027;
}
);
leftKerningGroup = O;
note = OE;
rightKerningGroup = E;
unicode = 0152;
},
{
glyphname = P;
lastChange = "2015-11-25 08:30:50 +0000";
layers = (
{
layerId = "B67427C8-F911-4143-A2F2-7B953CC18A6E";
name = "Regular Italic";
paths = (
{
closed = 1;
nodes = (
"136 0 LINE",
"178 202 LINE",
"347 202 LINE SMOOTH",
"501 202 OFFCURVE",
"585 291 OFFCURVE",
"613 422 CURVE SMOOTH",
"639 542 OFFCURVE",
"578 644 OFFCURVE",
"431 644 CURVE SMOOTH",
"137 644 LINE",
"1 0 LINE"
);
},
{
closed = 1;
nodes = (
"250 537 LINE",
"390 537 LINE SMOOTH",
"478 537 OFFCURVE",
"493 496 OFFCURVE",
"477 422 CURVE SMOOTH",
"463 353 OFFCURVE",
"421 309 OFFCURVE",
"336 309 CURVE SMOOTH",
"201 309 LINE"
);
}
);
width = 598;
}
);
note = P;
unicode = 0050;
},
{
glyphname = Thorn;
lastChange = "2015-11-25 08:30:51 +0000";
layers = (
{
layerId = "B67427C8-F911-4143-A2F2-7B953CC18A6E";
name = "Regular Italic";
paths = (
{
closed = 1;
nodes = (
"136 0 LINE",
"157 100 LINE",
"320 100 LINE SMOOTH",
"478 100 OFFCURVE",
"564 189 OFFCURVE",
"592 320 CURVE SMOOTH",
"619 447 OFFCURVE",
"561 542 OFFCURVE",
"418 542 CURVE SMOOTH",
"251 542 LINE",
"272 644 LINE",
"137 644 LINE",
"1 0 LINE"
);
},
{
closed = 1;
nodes = (
"228 435 LINE",
"368 435 LINE SMOOTH",
"455 435 OFFCURVE",
"471 394 OFFCURVE",
"456 320 CURVE SMOOTH",
"441 251 OFFCURVE",
"399 207 OFFCURVE",
"314 207 CURVE SMOOTH",
"179 207 LINE"
);
}
);
width = 598;
}
);
note = Thorn;
unicode = 00DE;
},
{
glyphname = Q;
lastChange = "2015-11-25 08:30:53 +0000";
layers = (
{
layerId = "B67427C8-F911-4143-A2F2-7B953CC18A6E";
name = "Regular Italic";
paths = (
{
closed = 1;
nodes = (
"386 -172 OFFCURVE",
"428 -166 OFFCURVE",
"453 -159 CURVE",
"473 -65 LINE",
"450 -72 OFFCURVE",
"421 -76 OFFCURVE",
"399 -76 CURVE SMOOTH",
"341 -76 OFFCURVE",
"330 -62 OFFCURVE",
"339 -8 CURVE",
"527 7 OFFCURVE",
"630 115 OFFCURVE",
"674 319 CURVE SMOOTH",
"724 555 OFFCURVE",
"635 654 OFFCURVE",
"433 654 CURVE SMOOTH",
"214 654 OFFCURVE",
"98 555 OFFCURVE",
"48 319 CURVE SMOOTH",
"6 124 OFFCURVE",
"73 17 OFFCURVE",
"226 -5 CURVE",
"206 -112 OFFCURVE",
"251 -172 OFFCURVE",
"348 -172 CURVE SMOOTH"
);
},
{
closed = 1;
nodes = (
"184 105 OFFCURVE",
"154 168 OFFCURVE",
"185 319 CURVE SMOOTH",
"218 480 OFFCURVE",
"287 539 OFFCURVE",
"408 539 CURVE SMOOTH",
"543 539 OFFCURVE",
"573 484 OFFCURVE",
"537 319 CURVE SMOOTH",
"505 174 OFFCURVE",
"437 105 OFFCURVE",
"316 105 CURVE SMOOTH"
);
}
);
width = 700;
}
);
leftKerningGroup = O;
note = Q;
rightKerningGroup = O;
unicode = 0051;
},
{
glyphname = R;
lastChange = "2015-11-25 08:30:50 +0000";
layers = (
{
layerId = "B67427C8-F911-4143-A2F2-7B953CC18A6E";
name = "Regular Italic";
paths = (
{
closed = 1;
nodes = (
"136 0 LINE",
"181 213 LINE",
"287 213 LINE SMOOTH",
"324 213 OFFCURVE",
"333 202 OFFCURVE",
"340 173 CURVE SMOOTH",
"380 0 LINE",
"520 0 LINE",
"480 180 LINE SMOOTH",
"473 213 OFFCURVE",
"466 230 OFFCURVE",
"449 248 CURVE",
"539 273 OFFCURVE",
"597 341 OFFCURVE",
"615 428 CURVE SMOOTH",
"644 560 OFFCURVE",
"582 644 OFFCURVE",
"446 644 CURVE SMOOTH",
"137 644 LINE",
"1 0 LINE"
);
},
{
closed = 1;
nodes = (
"249 532 LINE",
"396 532 LINE SMOOTH",
"477 532 OFFCURVE",
"494 500 OFFCURVE",
"478 428 CURVE SMOOTH",
"463 353 OFFCURVE",
"415 325 OFFCURVE",
"344 325 CURVE SMOOTH",
"205 325 LINE"
);
}
);
width = 618;
}
);
note = R;
rightKerningGroup = R;
unicode = 0052;
},
{
glyphname = Racute;
lastChange = "2015-11-25 08:30:52 +0000";
layers = (
{
layerId = "B67427C8-F911-4143-A2F2-7B953CC18A6E";
name = "Regular Italic";
paths = (
{
closed = 1;
nodes = (
"136 0 LINE",
"181 213 LINE",
"287 213 LINE SMOOTH",
"324 213 OFFCURVE",
"333 202 OFFCURVE",
"340 173 CURVE SMOOTH",
"380 0 LINE",
"520 0 LINE",
"480 180 LINE SMOOTH",
"473 213 OFFCURVE",
"466 230 OFFCURVE",
"449 248 CURVE",
"539 273 OFFCURVE",
"597 341 OFFCURVE",
"615 428 CURVE SMOOTH",
"644 560 OFFCURVE",
"582 644 OFFCURVE",
"446 644 CURVE SMOOTH",
"137 644 LINE",
"1 0 LINE"
);
},
{
closed = 1;
nodes = (
"249 532 LINE",
"396 532 LINE SMOOTH",
"477 532 OFFCURVE",
"494 500 OFFCURVE",
"478 428 CURVE SMOOTH",
"463 353 OFFCURVE",
"415 325 OFFCURVE",
"344 325 CURVE SMOOTH",
"205 325 LINE"
);
},
{
closed = 1;
nodes = (
"432 688 LINE",
"560 875 LINE",
"443 875 LINE",
"323 688 LINE"
);
}
);
width = 618;
}
);
note = Racute;
rightKerningGroup = R;
unicode = 0154;
},
{
glyphname = Rcaron;
lastChange = "2015-11-25 08:30:52 +0000";
layers = (
{
layerId = "B67427C8-F911-4143-A2F2-7B953CC18A6E";
name = "Regular Italic";
paths = (
{
closed = 1;
nodes = (
"136 0 LINE",
"181 213 LINE",
"287 213 LINE SMOOTH",
"324 213 OFFCURVE",
"333 202 OFFCURVE",
"340 173 CURVE SMOOTH",
"380 0 LINE",
"520 0 LINE",
"480 180 LINE SMOOTH",
"473 213 OFFCURVE",
"466 230 OFFCURVE",
"449 248 CURVE",
"539 273 OFFCURVE",
"597 341 OFFCURVE",
"615 428 CURVE SMOOTH",
"644 560 OFFCURVE",
"582 644 OFFCURVE",
"446 644 CURVE SMOOTH",
"137 644 LINE",
"1 0 LINE"
);
},
{
closed = 1;
nodes = (
"249 532 LINE",
"396 532 LINE SMOOTH",
"477 532 OFFCURVE",
"494 500 OFFCURVE",
"478 428 CURVE SMOOTH",
"463 353 OFFCURVE",
"415 325 OFFCURVE",
"344 325 CURVE SMOOTH",
"205 325 LINE"
);
},
{
closed = 1;
nodes = (
"434 688 LINE",
"606 862 LINE",
"497 862 LINE",
"401 762 LINE",
"351 862 LINE",
"251 862 LINE",
"348 688 LINE"
);
}
);
width = 618;
}
);
note = Rcaron;
rightKerningGroup = R;
unicode = 0158;
},
{
glyphname = Rcommaaccent;
lastChange = "2015-11-25 08:30:49 +0000";
layers = (
{
layerId = "B67427C8-F911-4143-A2F2-7B953CC18A6E";
name = "Regular Italic";
paths = (
{
closed = 1;
nodes = (
"136 0 LINE",
"181 213 LINE",
"287 213 LINE SMOOTH",
"324 213 OFFCURVE",
"333 202 OFFCURVE",
"340 173 CURVE SMOOTH",
"380 0 LINE",
"520 0 LINE",
"480 180 LINE SMOOTH",
"473 213 OFFCURVE",
"466 230 OFFCURVE",
"449 248 CURVE",
"539 273 OFFCURVE",
"597 341 OFFCURVE",
"615 428 CURVE SMOOTH",
"644 560 OFFCURVE",
"582 644 OFFCURVE",
"446 644 CURVE SMOOTH",
"137 644 LINE",
"1 0 LINE"
);
},
{
closed = 1;
nodes = (
"249 532 LINE",
"396 532 LINE SMOOTH",
"477 532 OFFCURVE",
"494 500 OFFCURVE",
"478 428 CURVE SMOOTH",
"463 353 OFFCURVE",
"415 325 OFFCURVE",
"344 325 CURVE SMOOTH",
"205 325 LINE"
);
},
{
closed = 1;
nodes = (
"195 -238 LINE",
"288 -37 LINE",
"182 -37 LINE",
"109 -238 LINE"
);
}
);
width = 618;
}
);
note = Rcommaaccent;
rightKerningGroup = R;
unicode = 0156;
},
{
glyphname = Rdotbelow;
lastChange = "2015-11-25 08:30:51 +0000";
layers = (
{
layerId = "B67427C8-F911-4143-A2F2-7B953CC18A6E";
name = "Regular Italic";
paths = (
{
closed = 1;
nodes = (
"136 0 LINE",
"181 213 LINE",
"287 213 LINE SMOOTH",
"324 213 OFFCURVE",
"333 202 OFFCURVE",
"340 173 CURVE SMOOTH",
"380 0 LINE",
"520 0 LINE",
"480 180 LINE SMOOTH",
"473 213 OFFCURVE",
"466 230 OFFCURVE",
"449 248 CURVE",
"539 273 OFFCURVE",
"597 341 OFFCURVE",
"615 428 CURVE SMOOTH",
"644 560 OFFCURVE",
"582 644 OFFCURVE",
"446 644 CURVE SMOOTH",
"137 644 LINE",
"1 0 LINE"
);
},
{
closed = 1;
nodes = (
"249 532 LINE",
"396 532 LINE SMOOTH",
"477 532 OFFCURVE",
"494 500 OFFCURVE",
"478 428 CURVE SMOOTH",
"463 353 OFFCURVE",
"415 325 OFFCURVE",
"344 325 CURVE SMOOTH",
"205 325 LINE"
);
},
{
closed = 1;
nodes = (
"271 -181 LINE",
"292 -82 LINE",
"185 -82 LINE",
"164 -181 LINE"
);
}
);
width = 618;
}
);
note = Rdotbelow;
rightKerningGroup = R;
unicode = 1E5A;
},
{
glyphname = Rdotbelowmacron;
lastChange = "2015-11-25 08:30:49 +0000";
layers = (
{
layerId = "B67427C8-F911-4143-A2F2-7B953CC18A6E";
name = "Regular Italic";
paths = (
{
closed = 1;
nodes = (
"136 0 LINE",
"181 213 LINE",
"287 213 LINE SMOOTH",
"324 213 OFFCURVE",
"333 202 OFFCURVE",
"340 173 CURVE SMOOTH",
"380 0 LINE",
"520 0 LINE",
"480 180 LINE SMOOTH",
"473 213 OFFCURVE",
"466 230 OFFCURVE",
"449 248 CURVE",
"539 273 OFFCURVE",
"597 341 OFFCURVE",
"615 428 CURVE SMOOTH",
"644 560 OFFCURVE",
"582 644 OFFCURVE",
"446 644 CURVE SMOOTH",
"137 644 LINE",
"1 0 LINE"
);
},
{
closed = 1;
nodes = (
"249 532 LINE",
"396 532 LINE SMOOTH",
"477 532 OFFCURVE",
"494 500 OFFCURVE",
"478 428 CURVE SMOOTH",
"463 353 OFFCURVE",
"415 325 OFFCURVE",
"344 325 CURVE SMOOTH",
"205 325 LINE"
);
},
{
closed = 1;
nodes = (
"254 -181 LINE",
"275 -82 LINE",
"168 -82 LINE",
"147 -181 LINE"
);
},
{
closed = 1;
nodes = (
"545 717 LINE",
"562 800 LINE",
"255 800 LINE",
"238 717 LINE"
);
}
);
width = 618;
}
);
note = Rdotbelowmacron;
rightKerningGroup = R;
unicode = 1E5C;
},
{
glyphname = Rlinebelow;
lastChange = "2015-11-25 08:30:52 +0000";
layers = (
{
layerId = "B67427C8-F911-4143-A2F2-7B953CC18A6E";
name = "Regular Italic";
paths = (
{
closed = 1;
nodes = (
"136 0 LINE",
"181 213 LINE",
"287 213 LINE SMOOTH",
"324 213 OFFCURVE",
"333 202 OFFCURVE",
"340 173 CURVE SMOOTH",
"380 0 LINE",
"520 0 LINE",
"480 180 LINE SMOOTH",
"473 213 OFFCURVE",
"466 230 OFFCURVE",
"449 248 CURVE",
"539 273 OFFCURVE",
"597 341 OFFCURVE",
"615 428 CURVE SMOOTH",
"644 560 OFFCURVE",
"582 644 OFFCURVE",
"446 644 CURVE SMOOTH",
"137 644 LINE",
"1 0 LINE"
);
},
{
closed = 1;
nodes = (
"249 532 LINE",
"396 532 LINE SMOOTH",
"477 532 OFFCURVE",
"494 500 OFFCURVE",
"478 428 CURVE SMOOTH",
"463 353 OFFCURVE",
"415 325 OFFCURVE",
"344 325 CURVE SMOOTH",
"205 325 LINE"
);
},
{
closed = 1;
nodes = (
"363 -155 LINE",
"380 -72 LINE",
"73 -72 LINE",
"56 -155 LINE"
);
}
);
width = 618;
}
);
note = Rlinebelow;
rightKerningGroup = R;
unicode = 1E5E;
},
{
glyphname = S;
lastChange = "2015-11-25 08:30:51 +0000";
layers = (
{
layerId = "B67427C8-F911-4143-A2F2-7B953CC18A6E";
name = "Regular Italic";
paths = (
{
closed = 1;
nodes = (
"403 -10 OFFCURVE",
"475 64 OFFCURVE",
"499 176 CURVE SMOOTH",
"518 268 OFFCURVE",
"492 333 OFFCURVE",
"343 375 CURVE SMOOTH",
"236 405 OFFCURVE",
"207 419 OFFCURVE",
"217 469 CURVE SMOOTH",
"229 526 OFFCURVE",
"283 539 OFFCURVE",
"367 539 CURVE SMOOTH",
"425 539 OFFCURVE",
"483 528 OFFCURVE",
"531 508 CURVE",
"557 627 LINE",
"519 642 OFFCURVE",
"451 654 OFFCURVE",
"374 654 CURVE SMOOTH",
"192 654 OFFCURVE",
"105 587 OFFCURVE",
"80 469 CURVE SMOOTH",
"59 370 OFFCURVE",
"97 320 OFFCURVE",
"224 283 CURVE SMOOTH",
"341 249 OFFCURVE",
"373 234 OFFCURVE",
"361 176 CURVE SMOOTH",
"348 115 OFFCURVE",
"303 104 OFFCURVE",
"210 104 CURVE SMOOTH",
"145 104 OFFCURVE",
"76 120 OFFCURVE",
"23 144 CURVE",
"-2 25 LINE",
"45 2 OFFCURVE",
"115 -10 OFFCURVE",
"198 -10 CURVE SMOOTH"
);
}
);
width = 555;
}
);
leftKerningGroup = S;
note = S;
rightKerningGroup = S;
unicode = 0053;
},
{
glyphname = Sacute;
lastChange = "2015-11-25 08:30:50 +0000";
layers = (
{
layerId = "B67427C8-F911-4143-A2F2-7B953CC18A6E";
name = "Regular Italic";
paths = (
{
closed = 1;
nodes = (
"403 -10 OFFCURVE",
"475 64 OFFCURVE",
"499 176 CURVE SMOOTH",
"518 268 OFFCURVE",
"492 333 OFFCURVE",
"343 375 CURVE SMOOTH",
"236 405 OFFCURVE",
"207 419 OFFCURVE",
"217 469 CURVE SMOOTH",
"229 526 OFFCURVE",
"283 539 OFFCURVE",
"367 539 CURVE SMOOTH",
"425 539 OFFCURVE",
"483 528 OFFCURVE",
"531 508 CURVE",
"557 627 LINE",
"519 642 OFFCURVE",
"451 654 OFFCURVE",
"374 654 CURVE SMOOTH",
"192 654 OFFCURVE",
"105 587 OFFCURVE",
"80 469 CURVE SMOOTH",
"59 370 OFFCURVE",
"97 320 OFFCURVE",
"224 283 CURVE SMOOTH",
"341 249 OFFCURVE",
"373 234 OFFCURVE",
"361 176 CURVE SMOOTH",
"348 115 OFFCURVE",
"303 104 OFFCURVE",
"210 104 CURVE SMOOTH",
"145 104 OFFCURVE",
"76 120 OFFCURVE",
"23 144 CURVE",
"-2 25 LINE",
"45 2 OFFCURVE",
"115 -10 OFFCURVE",
"198 -10 CURVE SMOOTH"
);
},
{
closed = 1;
nodes = (
"412 694 LINE",
"540 881 LINE",
"423 881 LINE",
"303 694 LINE"
);
}
);
width = 555;
}
);
leftKerningGroup = S;
note = Sacute;
rightKerningGroup = S;
unicode = 015A;
},
{
glyphname = Scaron;
lastChange = "2015-11-25 08:30:50 +0000";
layers = (
{
layerId = "B67427C8-F911-4143-A2F2-7B953CC18A6E";
name = "Regular Italic";
paths = (
{
closed = 1;
nodes = (
"403 -10 OFFCURVE",
"475 64 OFFCURVE",
"499 176 CURVE SMOOTH",
"518 268 OFFCURVE",
"492 333 OFFCURVE",
"343 375 CURVE SMOOTH",
"236 405 OFFCURVE",
"207 419 OFFCURVE",
"217 469 CURVE SMOOTH",
"229 526 OFFCURVE",
"283 539 OFFCURVE",
"367 539 CURVE SMOOTH",
"425 539 OFFCURVE",
"483 528 OFFCURVE",
"531 508 CURVE",
"557 627 LINE",
"519 642 OFFCURVE",
"451 654 OFFCURVE",
"374 654 CURVE SMOOTH",
"192 654 OFFCURVE",
"105 587 OFFCURVE",
"80 469 CURVE SMOOTH",
"59 370 OFFCURVE",
"97 320 OFFCURVE",
"224 283 CURVE SMOOTH",
"341 249 OFFCURVE",
"373 234 OFFCURVE",
"361 176 CURVE SMOOTH",
"348 115 OFFCURVE",
"303 104 OFFCURVE",
"210 104 CURVE SMOOTH",
"145 104 OFFCURVE",
"76 120 OFFCURVE",
"23 144 CURVE",
"-2 25 LINE",
"45 2 OFFCURVE",
"115 -10 OFFCURVE",
"198 -10 CURVE SMOOTH"
);
},
{
closed = 1;
nodes = (
"418 688 LINE",
"590 862 LINE",
"481 862 LINE",
"385 762 LINE",
"335 862 LINE",
"235 862 LINE",
"332 688 LINE"
);
}
);
width = 555;
}
);
leftKerningGroup = S;
note = Scaron;
rightKerningGroup = S;
unicode = 0160;
},
{
glyphname = Scedilla;
lastChange = "2015-11-25 08:30:50 +0000";
layers = (
{
layerId = "B67427C8-F911-4143-A2F2-7B953CC18A6E";
name = "Regular Italic";
paths = (
{
closed = 1;
nodes = (
"245 -240 OFFCURVE",
"301 -202 OFFCURVE",
"315 -136 CURVE SMOOTH",
"326 -80 OFFCURVE",
"299 -45 OFFCURVE",
"228 -45 CURVE",
"248 -8 LINE",
"415 3 OFFCURVE",
"477 73 OFFCURVE",
"499 176 CURVE SMOOTH",
"518 268 OFFCURVE",
"492 333 OFFCURVE",
"343 375 CURVE SMOOTH",
"236 405 OFFCURVE",
"207 419 OFFCURVE",
"217 469 CURVE SMOOTH",
"229 526 OFFCURVE",
"283 539 OFFCURVE",
"367 539 CURVE SMOOTH",
"425 539 OFFCURVE",
"483 528 OFFCURVE",
"531 508 CURVE",
"557 627 LINE",
"519 642 OFFCURVE",
"451 654 OFFCURVE",
"374 654 CURVE SMOOTH",
"192 654 OFFCURVE",
"105 587 OFFCURVE",
"80 469 CURVE SMOOTH",
"59 370 OFFCURVE",
"97 320 OFFCURVE",
"224 283 CURVE SMOOTH",
"341 249 OFFCURVE",
"373 234 OFFCURVE",
"361 176 CURVE SMOOTH",
"348 115 OFFCURVE",
"303 104 OFFCURVE",
"210 104 CURVE SMOOTH",
"145 104 OFFCURVE",
"76 120 OFFCURVE",
"23 144 CURVE",
"-2 25 LINE",
"38 5 OFFCURVE",
"94 -6 OFFCURVE",
"160 -9 CURVE",
"116 -98 LINE",
"160 -98 LINE SMOOTH",
"207 -98 OFFCURVE",
"235 -100 OFFCURVE",
"228 -135 CURVE SMOOTH",
"222 -167 OFFCURVE",
"199 -172 OFFCURVE",
"141 -172 CURVE SMOOTH",
"120 -172 OFFCURVE",
"99 -169 OFFCURVE",
"82 -164 CURVE",
"67 -232 LINE",
"81 -236 OFFCURVE",
"118 -240 OFFCURVE",
"141 -240 CURVE SMOOTH"
);
}
);
width = 555;
}
);
leftKerningGroup = S;
note = Scedilla;
rightKerningGroup = S;
unicode = 015E;
},
{
glyphname = Scircumflex;
lastChange = "2015-11-25 08:30:52 +0000";
layers = (
{
layerId = "B67427C8-F911-4143-A2F2-7B953CC18A6E";
name = "Regular Italic";
paths = (
{
closed = 1;
nodes = (
"403 -10 OFFCURVE",
"475 64 OFFCURVE",
"499 176 CURVE SMOOTH",
"518 268 OFFCURVE",
"492 333 OFFCURVE",
"343 375 CURVE SMOOTH",
"236 405 OFFCURVE",
"207 419 OFFCURVE",
"217 469 CURVE SMOOTH",
"229 526 OFFCURVE",
"283 539 OFFCURVE",
"367 539 CURVE SMOOTH",
"425 539 OFFCURVE",
"483 528 OFFCURVE",
"531 508 CURVE",
"557 627 LINE",
"519 642 OFFCURVE",
"451 654 OFFCURVE",
"374 654 CURVE SMOOTH",
"192 654 OFFCURVE",
"105 587 OFFCURVE",
"80 469 CURVE SMOOTH",
"59 370 OFFCURVE",
"97 320 OFFCURVE",
"224 283 CURVE SMOOTH",
"341 249 OFFCURVE",
"373 234 OFFCURVE",
"361 176 CURVE SMOOTH",
"348 115 OFFCURVE",
"303 104 OFFCURVE",
"210 104 CURVE SMOOTH",
"145 104 OFFCURVE",
"76 120 OFFCURVE",
"23 144 CURVE",
"-2 25 LINE",
"45 2 OFFCURVE",
"115 -10 OFFCURVE",
"198 -10 CURVE SMOOTH"
);
},
{
closed = 1;
nodes = (
"296 704 LINE",
"389 804 LINE",
"442 704 LINE",
"541 704 LINE",
"443 878 LINE",
"357 878 LINE",
"186 704 LINE"
);
}
);
width = 555;
}
);
leftKerningGroup = S;
note = Scircumflex;
rightKerningGroup = S;
unicode = 015C;
},
{
glyphname = Scommaaccent;
lastChange = "2015-11-25 08:30:50 +0000";
layers = (
{
layerId = "B67427C8-F911-4143-A2F2-7B953CC18A6E";
name = "Regular Italic";
paths = (
{
closed = 1;
nodes = (
"403 -10 OFFCURVE",
"475 64 OFFCURVE",
"499 176 CURVE SMOOTH",
"518 268 OFFCURVE",
"492 333 OFFCURVE",
"343 375 CURVE SMOOTH",
"236 405 OFFCURVE",
"207 419 OFFCURVE",
"217 469 CURVE SMOOTH",
"229 526 OFFCURVE",
"283 539 OFFCURVE",
"367 539 CURVE SMOOTH",
"425 539 OFFCURVE",
"483 528 OFFCURVE",
"531 508 CURVE",
"557 627 LINE",
"519 642 OFFCURVE",
"451 654 OFFCURVE",
"374 654 CURVE SMOOTH",
"192 654 OFFCURVE",
"105 587 OFFCURVE",
"80 469 CURVE SMOOTH",
"59 370 OFFCURVE",
"97 320 OFFCURVE",
"224 283 CURVE SMOOTH",
"341 249 OFFCURVE",
"373 234 OFFCURVE",
"361 176 CURVE SMOOTH",
"348 115 OFFCURVE",
"303 104 OFFCURVE",
"210 104 CURVE SMOOTH",
"145 104 OFFCURVE",
"76 120 OFFCURVE",
"23 144 CURVE",
"-2 25 LINE",
"45 2 OFFCURVE",
"115 -10 OFFCURVE",
"198 -10 CURVE SMOOTH"
);
},
{
closed = 1;
nodes = (
"194 -226 LINE",
"274 -47 LINE",
"158 -47 LINE",
"91 -226 LINE"
);
}
);
width = 555;
}
);
leftKerningGroup = S;
note = Scommaaccent;
rightKerningGroup = S;
unicode = 0218;
},
{
glyphname = Sdotaccent;
lastChange = "2015-11-25 08:30:49 +0000";
layers = (
{
layerId = "B67427C8-F911-4143-A2F2-7B953CC18A6E";
name = "Regular Italic";
paths = (
{
closed = 1;
nodes = (
"403 -10 OFFCURVE",
"475 64 OFFCURVE",
"499 176 CURVE SMOOTH",
"518 268 OFFCURVE",
"492 333 OFFCURVE",
"343 375 CURVE SMOOTH",
"236 405 OFFCURVE",
"207 419 OFFCURVE",
"217 469 CURVE SMOOTH",
"229 526 OFFCURVE",
"283 539 OFFCURVE",
"367 539 CURVE SMOOTH",
"425 539 OFFCURVE",
"483 528 OFFCURVE",
"531 508 CURVE",
"557 627 LINE",
"519 642 OFFCURVE",
"451 654 OFFCURVE",
"374 654 CURVE SMOOTH",
"192 654 OFFCURVE",
"105 587 OFFCURVE",
"80 469 CURVE SMOOTH",
"59 370 OFFCURVE",
"97 320 OFFCURVE",
"224 283 CURVE SMOOTH",
"341 249 OFFCURVE",
"373 234 OFFCURVE",
"361 176 CURVE SMOOTH",
"348 115 OFFCURVE",
"303 104 OFFCURVE",
"210 104 CURVE SMOOTH",
"145 104 OFFCURVE",
"76 120 OFFCURVE",
"23 144 CURVE",
"-2 25 LINE",
"45 2 OFFCURVE",
"115 -10 OFFCURVE",
"198 -10 CURVE SMOOTH"
);
},
{
closed = 1;
nodes = (
"419 713 LINE",
"440 811 LINE",
"335 811 LINE",
"314 713 LINE"
);
}
);
width = 555;
}
);
leftKerningGroup = S;
note = Sdotaccent;
rightKerningGroup = S;
unicode = 1E60;
},
{
glyphname = Sdotbelow;
lastChange = "2015-11-25 08:30:49 +0000";
layers = (
{
layerId = "B67427C8-F911-4143-A2F2-7B953CC18A6E";
name = "Regular Italic";
paths = (
{
closed = 1;
nodes = (
"403 -10 OFFCURVE",
"475 64 OFFCURVE",
"499 176 CURVE SMOOTH",
"518 268 OFFCURVE",
"492 333 OFFCURVE",
"343 375 CURVE SMOOTH",
"236 405 OFFCURVE",
"207 419 OFFCURVE",
"217 469 CURVE SMOOTH",
"229 526 OFFCURVE",
"283 539 OFFCURVE",
"367 539 CURVE SMOOTH",
"425 539 OFFCURVE",
"483 528 OFFCURVE",
"531 508 CURVE",
"557 627 LINE",
"519 642 OFFCURVE",
"451 654 OFFCURVE",
"374 654 CURVE SMOOTH",
"192 654 OFFCURVE",
"105 587 OFFCURVE",
"80 469 CURVE SMOOTH",
"59 370 OFFCURVE",
"97 320 OFFCURVE",
"224 283 CURVE SMOOTH",
"341 249 OFFCURVE",
"373 234 OFFCURVE",
"361 176 CURVE SMOOTH",
"348 115 OFFCURVE",
"303 104 OFFCURVE",
"210 104 CURVE SMOOTH",
"145 104 OFFCURVE",
"76 120 OFFCURVE",
"23 144 CURVE",
"-2 25 LINE",
"45 2 OFFCURVE",
"115 -10 OFFCURVE",
"198 -10 CURVE SMOOTH"
);
},
{
closed = 1;
nodes = (
"234 -181 LINE",
"255 -82 LINE",
"148 -82 LINE",
"127 -181 LINE"
);
}
);
width = 555;
}
);
leftKerningGroup = S;
note = Sdotbelow;
rightKerningGroup = S;
unicode = 1E62;
},
{
glyphname = Germandbls;
lastChange = "2015-11-25 08:30:51 +0000";
layers = (
{
layerId = "B67427C8-F911-4143-A2F2-7B953CC18A6E";
name = "Regular Italic";
paths = (
{
closed = 1;
nodes = (
"470 -10 OFFCURVE",
"549 75 OFFCURVE",
"573 185 CURVE SMOOTH",
"592 275 OFFCURVE",
"536 339 OFFCURVE",
"453 339 CURVE SMOOTH",
"428 339 LINE",
"604 433 LINE",
"629 553 OFFCURVE",
"564 654 OFFCURVE",
"397 654 CURVE SMOOTH",
"213 654 OFFCURVE",
"116 566 OFFCURVE",
"84 417 CURVE SMOOTH",
"-4 0 LINE",
"124 0 LINE",
"213 423 LINE SMOOTH",
"230 503 OFFCURVE",
"281 544 OFFCURVE",
"373 544 CURVE SMOOTH",
"472 544 OFFCURVE",
"492 506 OFFCURVE",
"483 464 CURVE",
"297 362 LINE",
"275 256 LINE",
"369 256 LINE SMOOTH",
"435 256 OFFCURVE",
"458 238 OFFCURVE",
"447 187 CURVE SMOOTH",
"436 134 OFFCURVE",
"399 105 OFFCURVE",
"331 105 CURVE SMOOTH",
"292 105 OFFCURVE",
"248 113 OFFCURVE",
"218 127 CURVE",
"194 13 LINE",
"232 -2 OFFCURVE",
"278 -10 OFFCURVE",
"333 -10 CURVE SMOOTH"
);
}
);
width = 627;
}
);
note = uni1E9E;
unicode = 1E9E;
},
{
glyphname = Schwa;
lastChange = "2015-11-25 08:30:51 +0000";
layers = (
{
layerId = "B67427C8-F911-4143-A2F2-7B953CC18A6E";
name = "Regular Italic";
paths = (
{
closed = 1;
nodes = (
"489 -10 OFFCURVE",
"610 115 OFFCURVE",
"652 314 CURVE SMOOTH",
"699 533 OFFCURVE",
"595 654 OFFCURVE",
"384 654 CURVE SMOOTH",
"300 654 OFFCURVE",
"212 636 OFFCURVE",
"148 613 CURVE",
"127 514 LINE",
"182 536 OFFCURVE",
"272 553 OFFCURVE",
"333 553 CURVE SMOOTH",
"518 553 OFFCURVE",
"561 511 OFFCURVE",
"543 382 CURVE",
"62 382 LINE",
"37 265 LINE SMOOTH",
"2 99 OFFCURVE",
"94 -10 OFFCURVE",
"270 -10 CURVE SMOOTH"
);
},
{
closed = 1;
nodes = (
"163 87 OFFCURVE",
"128 141 OFFCURVE",
"149 237 CURVE SMOOTH",
"159 284 LINE",
"522 284 LINE",
"494 152 OFFCURVE",
"417 87 OFFCURVE",
"291 87 CURVE SMOOTH"
);
}
);
width = 679;
}
);
note = uni018F;
unicode = 018F;
},
{
glyphname = T;
lastChange = "2015-11-25 08:30:50 +0000";
layers = (
{
layerId = "B67427C8-F911-4143-A2F2-7B953CC18A6E";
name = "Regular Italic";
paths = (
{
closed = 1;
nodes = (
"294 0 LINE",
"408 540 LINE",
"605 540 LINE",
"627 644 LINE",
"97 644 LINE",
"75 540 LINE",
"273 540 LINE",
"159 0 LINE"
);
}
);
width = 564;
}
);
leftKerningGroup = T;
note = T;
rightKerningGroup = T;
unicode = 0054;
},
{
glyphname = Tbar;
lastChange = "2015-11-25 08:30:51 +0000";
layers = (
{
layerId = "B67427C8-F911-4143-A2F2-7B953CC18A6E";
name = "Regular Italic";
paths = (
{
closed = 1;
nodes = (
"294 0 LINE",
"356 293 LINE",
"474 293 LINE",
"495 392 LINE",
"377 392 LINE",
"408 540 LINE",
"605 540 LINE",
"627 644 LINE",
"97 644 LINE",
"75 540 LINE",
"273 540 LINE",
"242 392 LINE",
"125 392 LINE",
"104 293 LINE",
"221 293 LINE",
"159 0 LINE"
);
}
);
width = 564;
}
);
leftKerningGroup = T;
note = Tbar;
rightKerningGroup = T;
unicode = 0166;
},
{
glyphname = Tcaron;
lastChange = "2015-11-25 08:30:50 +0000";
layers = (
{
layerId = "B67427C8-F911-4143-A2F2-7B953CC18A6E";
name = "Regular Italic";
paths = (
{
closed = 1;
nodes = (
"294 0 LINE",
"408 540 LINE",
"605 540 LINE",
"627 644 LINE",
"97 644 LINE",
"75 540 LINE",
"273 540 LINE",
"159 0 LINE"
);
},
{
closed = 1;
nodes = (
"418 704 LINE",
"590 878 LINE",
"481 878 LINE",
"385 778 LINE",
"335 878 LINE",
"235 878 LINE",
"332 704 LINE"
);
}
);
width = 564;
}
);
leftKerningGroup = T;
note = Tcaron;
rightKerningGroup = T;
unicode = 0164;
},
{
glyphname = Tcedilla;
lastChange = "2015-11-25 08:30:49 +0000";
layers = (
{
layerId = "B67427C8-F911-4143-A2F2-7B953CC18A6E";
name = "Regular Italic";
paths = (
{
closed = 1;
nodes = (
"265 -240 OFFCURVE",
"321 -202 OFFCURVE",
"335 -136 CURVE SMOOTH",
"346 -80 OFFCURVE",
"319 -45 OFFCURVE",
"248 -45 CURVE",
"273 0 LINE",
"294 0 LINE",
"408 540 LINE",
"605 540 LINE",
"627 644 LINE",
"97 644 LINE",
"75 540 LINE",
"273 540 LINE",
"159 0 LINE",
"185 0 LINE",
"136 -98 LINE",
"180 -98 LINE SMOOTH",
"227 -98 OFFCURVE",
"255 -100 OFFCURVE",
"248 -135 CURVE SMOOTH",
"242 -167 OFFCURVE",
"219 -172 OFFCURVE",
"161 -172 CURVE SMOOTH",
"140 -172 OFFCURVE",
"119 -169 OFFCURVE",
"102 -164 CURVE",
"87 -232 LINE",
"101 -236 OFFCURVE",
"138 -240 OFFCURVE",
"161 -240 CURVE SMOOTH"
);
}
);
width = 564;
}
);
leftKerningGroup = T;
note = Tcedilla;
rightKerningGroup = T;
unicode = 0162;
},
{
glyphname = Tcommaaccent;
lastChange = "2015-11-25 08:30:51 +0000";
layers = (
{
layerId = "B67427C8-F911-4143-A2F2-7B953CC18A6E";
name = "Regular Italic";
paths = (
{
closed = 1;
nodes = (
"294 0 LINE",
"408 540 LINE",
"605 540 LINE",
"627 644 LINE",
"97 644 LINE",
"75 540 LINE",
"273 540 LINE",
"159 0 LINE"
);
},
{
closed = 1;
nodes = (
"180 -248 LINE",
"273 -47 LINE",
"167 -47 LINE",
"94 -248 LINE"
);
}
);
width = 564;
}
);
leftKerningGroup = T;
note = Tcommaaccent;
rightKerningGroup = T;
unicode = 021A;
},
{
glyphname = Tdotbelow;
lastChange = "2015-11-25 08:30:52 +0000";
layers = (
{
layerId = "B67427C8-F911-4143-A2F2-7B953CC18A6E";
name = "Regular Italic";
paths = (
{
closed = 1;
nodes = (
"294 0 LINE",
"408 540 LINE",
"605 540 LINE",
"627 644 LINE",
"97 644 LINE",
"75 540 LINE",
"273 540 LINE",
"159 0 LINE"
);
},
{
closed = 1;
nodes = (
"241 -171 LINE",
"262 -72 LINE",
"155 -72 LINE",
"134 -171 LINE"
);
}
);
width = 564;
}
);
leftKerningGroup = T;
note = Tdotbelow;
rightKerningGroup = T;
unicode = 1E6C;
},
{
glyphname = Tlinebelow;
lastChange = "2015-11-25 08:30:51 +0000";
layers = (
{
layerId = "B67427C8-F911-4143-A2F2-7B953CC18A6E";
name = "Regular Italic";
paths = (
{
closed = 1;
nodes = (
"294 0 LINE",
"408 540 LINE",
"605 540 LINE",
"627 644 LINE",
"97 644 LINE",
"75 540 LINE",
"273 540 LINE",
"159 0 LINE"
);
},
{
closed = 1;
nodes = (
"349 -145 LINE",
"366 -62 LINE",
"59 -62 LINE",
"42 -145 LINE"
);
}
);
width = 564;
}
);
leftKerningGroup = T;
note = Tlinebelow;
rightKerningGroup = T;
unicode = 1E6E;
},
{
glyphname = U;
lastChange = "2015-11-25 08:30:52 +0000";
layers = (
{
layerId = "B67427C8-F911-4143-A2F2-7B953CC18A6E";
name = "Regular Italic";
paths = (
{
closed = 1;
nodes = (
"477 -10 OFFCURVE",
"586 73 OFFCURVE",
"622 242 CURVE SMOOTH",
"707 644 LINE",
"572 644 LINE",
"489 252 LINE SMOOTH",
"468 153 OFFCURVE",
"414 105 OFFCURVE",
"306 105 CURVE SMOOTH",
"190 105 OFFCURVE",
"161 142 OFFCURVE",
"184 252 CURVE SMOOTH",
"267 644 LINE",
"132 644 LINE",
"47 242 LINE SMOOTH",
"13 83 OFFCURVE",
"115 -10 OFFCURVE",
"281 -10 CURVE SMOOTH"
);
}
);
width = 679;
}
);
leftKerningGroup = U;
note = U;
rightKerningGroup = U;
unicode = 0055;
},
{
glyphname = Uacute;
lastChange = "2015-11-25 08:30:50 +0000";
layers = (
{
layerId = "B67427C8-F911-4143-A2F2-7B953CC18A6E";
name = "Regular Italic";
paths = (
{
closed = 1;
nodes = (
"477 -10 OFFCURVE",
"586 73 OFFCURVE",
"622 242 CURVE SMOOTH",
"707 644 LINE",
"572 644 LINE",
"489 252 LINE SMOOTH",
"468 153 OFFCURVE",
"414 105 OFFCURVE",
"306 105 CURVE SMOOTH",
"190 105 OFFCURVE",
"161 142 OFFCURVE",
"184 252 CURVE SMOOTH",
"267 644 LINE",
"132 644 LINE",
"47 242 LINE SMOOTH",
"13 83 OFFCURVE",
"115 -10 OFFCURVE",
"281 -10 CURVE SMOOTH"
);
},
{
closed = 1;
nodes = (
"480 688 LINE",
"608 875 LINE",
"491 875 LINE",
"371 688 LINE"
);
}
);
width = 679;
}
);
leftKerningGroup = U;
note = Uacute;
rightKerningGroup = U;
unicode = 00DA;
},
{
glyphname = Ubreve;
lastChange = "2015-11-25 08:30:53 +0000";
layers = (
{
layerId = "B67427C8-F911-4143-A2F2-7B953CC18A6E";
name = "Regular Italic";
paths = (
{
closed = 1;
nodes = (
"477 -10 OFFCURVE",
"586 73 OFFCURVE",
"622 242 CURVE SMOOTH",
"707 644 LINE",
"572 644 LINE",
"489 252 LINE SMOOTH",
"468 153 OFFCURVE",
"414 105 OFFCURVE",
"306 105 CURVE SMOOTH",
"190 105 OFFCURVE",
"161 142 OFFCURVE",
"184 252 CURVE SMOOTH",
"267 644 LINE",
"132 644 LINE",
"47 242 LINE SMOOTH",
"13 83 OFFCURVE",
"115 -10 OFFCURVE",
"281 -10 CURVE SMOOTH"
);
},
{
closed = 1;
nodes = (
"531 688 OFFCURVE",
"595 747 OFFCURVE",
"616 845 CURVE",
"521 845 LINE",
"512 803 OFFCURVE",
"481 766 OFFCURVE",
"435 766 CURVE SMOOTH",
"382 766 OFFCURVE",
"376 803 OFFCURVE",
"385 845 CURVE",
"301 845 LINE",
"280 747 OFFCURVE",
"331 688 OFFCURVE",
"423 688 CURVE SMOOTH"
);
}
);
width = 679;
}
);
leftKerningGroup = U;
note = Ubreve;
rightKerningGroup = U;
unicode = 016C;
},
{
glyphname = Ucaron;
lastChange = "2015-11-25 08:30:49 +0000";
layers = (
{
layerId = "B67427C8-F911-4143-A2F2-7B953CC18A6E";
name = "Regular Italic";
paths = (
{
closed = 1;
nodes = (
"477 -10 OFFCURVE",
"586 73 OFFCURVE",
"622 242 CURVE SMOOTH",
"707 644 LINE",
"572 644 LINE",
"489 252 LINE SMOOTH",
"468 153 OFFCURVE",
"414 105 OFFCURVE",
"306 105 CURVE SMOOTH",
"190 105 OFFCURVE",
"161 142 OFFCURVE",
"184 252 CURVE SMOOTH",
"267 644 LINE",
"132 644 LINE",
"47 242 LINE SMOOTH",
"13 83 OFFCURVE",
"115 -10 OFFCURVE",
"281 -10 CURVE SMOOTH"
);
},
{
closed = 1;
nodes = (
"473 688 LINE",
"645 862 LINE",
"536 862 LINE",
"440 762 LINE",
"390 862 LINE",
"290 862 LINE",
"387 688 LINE"
);
}
);
width = 679;
}
);
leftKerningGroup = U;
note = Ucaron;
rightKerningGroup = U;
unicode = 01D3;
},
{
glyphname = Ucircumflex;
lastChange = "2015-11-25 08:30:52 +0000";
layers = (
{
layerId = "B67427C8-F911-4143-A2F2-7B953CC18A6E";
name = "Regular Italic";
paths = (
{
closed = 1;
nodes = (
"477 -10 OFFCURVE",
"586 73 OFFCURVE",
"622 242 CURVE SMOOTH",
"707 644 LINE",
"572 644 LINE",
"489 252 LINE SMOOTH",
"468 153 OFFCURVE",
"414 105 OFFCURVE",
"306 105 CURVE SMOOTH",
"190 105 OFFCURVE",
"161 142 OFFCURVE",
"184 252 CURVE SMOOTH",
"267 644 LINE",
"132 644 LINE",
"47 242 LINE SMOOTH",
"13 83 OFFCURVE",
"115 -10 OFFCURVE",
"281 -10 CURVE SMOOTH"
);
},
{
closed = 1;
nodes = (
"363 688 LINE",
"456 788 LINE",
"509 688 LINE",
"608 688 LINE",
"510 862 LINE",
"424 862 LINE",
"253 688 LINE"
);
}
);
width = 679;
}
);
leftKerningGroup = U;
note = Ucircumflex;
rightKerningGroup = U;
unicode = 00DB;
},
{
glyphname = Udieresis;
lastChange = "2015-11-25 08:30:53 +0000";
layers = (
{
layerId = "B67427C8-F911-4143-A2F2-7B953CC18A6E";
name = "Regular Italic";
paths = (
{
closed = 1;
nodes = (
"477 -10 OFFCURVE",
"586 73 OFFCURVE",
"622 242 CURVE SMOOTH",
"707 644 LINE",
"572 644 LINE",
"489 252 LINE SMOOTH",
"468 153 OFFCURVE",
"414 105 OFFCURVE",
"306 105 CURVE SMOOTH",
"190 105 OFFCURVE",
"161 142 OFFCURVE",
"184 252 CURVE SMOOTH",
"267 644 LINE",
"132 644 LINE",
"47 242 LINE SMOOTH",
"13 83 OFFCURVE",
"115 -10 OFFCURVE",
"281 -10 CURVE SMOOTH"
);
},
{
closed = 1;
nodes = (
"390 713 LINE",
"411 811 LINE",
"306 811 LINE",
"285 713 LINE"
);
},
{
closed = 1;
nodes = (
"586 713 LINE",
"607 811 LINE",
"501 811 LINE",
"480 713 LINE"
);
}
);
width = 679;
}
);
leftKerningGroup = U;
note = Udieresis;
rightKerningGroup = U;
unicode = 00DC;
},
{
glyphname = Udieresisacute;
lastChange = "2015-11-25 08:30:51 +0000";
layers = (
{
layerId = "B67427C8-F911-4143-A2F2-7B953CC18A6E";
name = "Regular Italic";
paths = (
{
closed = 1;
nodes = (
"477 -10 OFFCURVE",
"586 73 OFFCURVE",
"622 242 CURVE SMOOTH",
"707 644 LINE",
"572 644 LINE",
"489 252 LINE SMOOTH",
"468 153 OFFCURVE",
"414 105 OFFCURVE",
"306 105 CURVE SMOOTH",
"190 105 OFFCURVE",
"161 142 OFFCURVE",
"184 252 CURVE SMOOTH",
"267 644 LINE",
"132 644 LINE",
"47 242 LINE SMOOTH",
"13 83 OFFCURVE",
"115 -10 OFFCURVE",
"281 -10 CURVE SMOOTH"
);
},
{
closed = 1;
nodes = (
"379 688 LINE",
"399 781 LINE",
"299 781 LINE",
"279 688 LINE"
);
},
{
closed = 1;
nodes = (
"580 688 LINE",
"600 781 LINE",
"499 781 LINE",
"479 688 LINE"
);
},
{
closed = 1;
nodes = (
"498 801 LINE",
"591 930 LINE",
"489 930 LINE",
"403 801 LINE"
);
}
);
width = 679;
}
);
leftKerningGroup = U;
note = Udieresisacute;
rightKerningGroup = U;
unicode = 01D7;
},
{
glyphname = Udieresiscaron;
lastChange = "2015-11-25 08:30:50 +0000";
layers = (
{
layerId = "B67427C8-F911-4143-A2F2-7B953CC18A6E";
name = "Regular Italic";
paths = (
{
closed = 1;
nodes = (
"477 -10 OFFCURVE",
"586 73 OFFCURVE",
"622 242 CURVE SMOOTH",
"707 644 LINE",
"572 644 LINE",
"489 252 LINE SMOOTH",
"468 153 OFFCURVE",
"414 105 OFFCURVE",
"306 105 CURVE SMOOTH",
"190 105 OFFCURVE",
"161 142 OFFCURVE",
"184 252 CURVE SMOOTH",
"267 644 LINE",
"132 644 LINE",
"47 242 LINE SMOOTH",
"13 83 OFFCURVE",
"115 -10 OFFCURVE",
"281 -10 CURVE SMOOTH"
);
},
{
closed = 1;
nodes = (
"380 688 LINE",
"400 781 LINE",
"299 781 LINE",
"279 688 LINE"
);
},
{
closed = 1;
nodes = (
"580 688 LINE",
"600 781 LINE",
"500 781 LINE",
"480 688 LINE"
);
},
{
closed = 1;
nodes = (
"500 798 LINE",
"638 919 LINE",
"535 919 LINE",
"459 846 LINE",
"415 919 LINE",
"320 919 LINE",
"407 798 LINE"
);
}
);
width = 679;
}
);
leftKerningGroup = U;
note = Udieresiscaron;
rightKerningGroup = U;
unicode = 01D9;
},
{
glyphname = Udieresisgrave;
lastChange = "2015-11-25 08:30:51 +0000";
layers = (
{
layerId = "B67427C8-F911-4143-A2F2-7B953CC18A6E";
name = "Regular Italic";
paths = (
{
closed = 1;
nodes = (
"477 -10 OFFCURVE",
"586 73 OFFCURVE",
"622 242 CURVE SMOOTH",
"707 644 LINE",
"572 644 LINE",
"489 252 LINE SMOOTH",
"468 153 OFFCURVE",
"414 105 OFFCURVE",
"306 105 CURVE SMOOTH",
"190 105 OFFCURVE",
"161 142 OFFCURVE",
"184 252 CURVE SMOOTH",
"267 644 LINE",
"132 644 LINE",
"47 242 LINE SMOOTH",
"13 83 OFFCURVE",
"115 -10 OFFCURVE",
"281 -10 CURVE SMOOTH"
);
},
{
closed = 1;
nodes = (
"378 688 LINE",
"398 781 LINE",
"298 781 LINE",
"278 688 LINE"
);
},
{
closed = 1;
nodes = (
"579 688 LINE",
"599 781 LINE",
"498 781 LINE",
"478 688 LINE"
);
},
{
closed = 1;
nodes = (
"502 801 LINE",
"470 930 LINE",
"368 930 LINE",
"407 801 LINE"
);
}
);
width = 679;
}
);
leftKerningGroup = U;
note = Udieresisgrave;
rightKerningGroup = U;
unicode = 01DB;
},
{
glyphname = Udieresismacron;
lastChange = "2015-11-25 08:30:53 +0000";
layers = (
{
layerId = "B67427C8-F911-4143-A2F2-7B953CC18A6E";
name = "Regular Italic";
paths = (
{
closed = 1;
nodes = (
"477 -10 OFFCURVE",
"586 73 OFFCURVE",
"622 242 CURVE SMOOTH",
"707 644 LINE",
"572 644 LINE",
"489 252 LINE SMOOTH",
"468 153 OFFCURVE",
"414 105 OFFCURVE",
"306 105 CURVE SMOOTH",
"190 105 OFFCURVE",
"161 142 OFFCURVE",
"184 252 CURVE SMOOTH",
"267 644 LINE",
"132 644 LINE",
"47 242 LINE SMOOTH",
"13 83 OFFCURVE",
"115 -10 OFFCURVE",
"281 -10 CURVE SMOOTH"
);
},
{
closed = 1;
nodes = (
"387 702 LINE",
"408 800 LINE",
"303 800 LINE",
"282 702 LINE"
);
},
{
closed = 1;
nodes = (
"583 702 LINE",
"604 800 LINE",
"498 800 LINE",
"477 702 LINE"
);
},
{
closed = 1;
nodes = (
"615 840 LINE",
"632 923 LINE",
"325 923 LINE",
"308 840 LINE"
);
}
);
width = 679;
}
);
leftKerningGroup = U;
note = Udieresismacron;
rightKerningGroup = U;
unicode = 01D5;
},
{
glyphname = Udotbelow;
lastChange = "2015-11-25 08:30:51 +0000";
layers = (
{
layerId = "B67427C8-F911-4143-A2F2-7B953CC18A6E";
name = "Regular Italic";
paths = (
{
closed = 1;
nodes = (
"477 -10 OFFCURVE",
"586 73 OFFCURVE",
"622 242 CURVE SMOOTH",
"707 644 LINE",
"572 644 LINE",
"489 252 LINE SMOOTH",
"468 153 OFFCURVE",
"414 105 OFFCURVE",
"306 105 CURVE SMOOTH",
"190 105 OFFCURVE",
"161 142 OFFCURVE",
"184 252 CURVE SMOOTH",
"267 644 LINE",
"132 644 LINE",
"47 242 LINE SMOOTH",
"13 83 OFFCURVE",
"115 -10 OFFCURVE",
"281 -10 CURVE SMOOTH"
);
},
{
closed = 1;
nodes = (
"299 -181 LINE",
"320 -82 LINE",
"213 -82 LINE",
"192 -181 LINE"
);
}
);
width = 679;
}
);
leftKerningGroup = U;
note = Udotbelow;
rightKerningGroup = U;
unicode = 1EE4;
},
{
glyphname = Ugrave;
lastChange = "2015-11-25 08:30:51 +0000";
layers = (
{
layerId = "B67427C8-F911-4143-A2F2-7B953CC18A6E";
name = "Regular Italic";
paths = (
{
closed = 1;
nodes = (
"477 -10 OFFCURVE",
"586 73 OFFCURVE",
"622 242 CURVE SMOOTH",
"707 644 LINE",
"572 644 LINE",
"489 252 LINE SMOOTH",
"468 153 OFFCURVE",
"414 105 OFFCURVE",
"306 105 CURVE SMOOTH",
"190 105 OFFCURVE",
"161 142 OFFCURVE",
"184 252 CURVE SMOOTH",
"267 644 LINE",
"132 644 LINE",
"47 242 LINE SMOOTH",
"13 83 OFFCURVE",
"115 -10 OFFCURVE",
"281 -10 CURVE SMOOTH"
);
},
{
closed = 1;
nodes = (
"496 688 LINE",
"456 875 LINE",
"339 875 LINE",
"387 688 LINE"
);
}
);
width = 679;
}
);
leftKerningGroup = U;
note = Ugrave;
rightKerningGroup = U;
unicode = 00D9;
},
{
glyphname = Uhookabove;
lastChange = "2015-11-25 08:30:49 +0000";
layers = (
{
layerId = "B67427C8-F911-4143-A2F2-7B953CC18A6E";
name = "Regular Italic";
paths = (
{
closed = 1;
nodes = (
"477 -10 OFFCURVE",
"586 73 OFFCURVE",
"622 242 CURVE SMOOTH",
"707 644 LINE",
"572 644 LINE",
"489 252 LINE SMOOTH",
"468 153 OFFCURVE",
"414 105 OFFCURVE",
"306 105 CURVE SMOOTH",
"190 105 OFFCURVE",
"161 142 OFFCURVE",
"184 252 CURVE SMOOTH",
"267 644 LINE",
"132 644 LINE",
"47 242 LINE SMOOTH",
"13 83 OFFCURVE",
"115 -10 OFFCURVE",
"281 -10 CURVE SMOOTH"
);
},
{
closed = 1;
nodes = (
"480 687 LINE",
"490 733 LINE",
"556 745 OFFCURVE",
"585 772 OFFCURVE",
"597 828 CURVE SMOOTH",
"609 886 OFFCURVE",
"571 924 OFFCURVE",
"486 924 CURVE SMOOTH",
"447 924 OFFCURVE",
"409 919 OFFCURVE",
"384 911 CURVE",
"369 844 LINE",
"387 851 OFFCURVE",
"415 855 OFFCURVE",
"434 855 CURVE SMOOTH",
"477 855 OFFCURVE",
"500 843 OFFCURVE",
"494 816 CURVE SMOOTH",
"488 786 OFFCURVE",
"468 772 OFFCURVE",
"394 768 CURVE",
"377 687 LINE"
);
}
);
width = 679;
}
);
leftKerningGroup = U;
note = Uhookabove;
rightKerningGroup = U;
unicode = 1EE6;
},
{
glyphname = Uhorn;
lastChange = "2015-11-25 08:30:53 +0000";
layers = (
{
layerId = "B67427C8-F911-4143-A2F2-7B953CC18A6E";
name = "Regular Italic";
paths = (
{
closed = 1;
nodes = (
"477 -10 OFFCURVE",
"586 73 OFFCURVE",
"622 242 CURVE SMOOTH",
"674 490 LINE",
"809 492 OFFCURVE",
"878 539 OFFCURVE",
"910 688 CURVE",
"813 688 LINE",
"796 608 OFFCURVE",
"770 581 OFFCURVE",
"693 580 CURVE",
"707 644 LINE",
"572 644 LINE",
"489 252 LINE SMOOTH",
"468 153 OFFCURVE",
"414 105 OFFCURVE",
"306 105 CURVE SMOOTH",
"190 105 OFFCURVE",
"161 142 OFFCURVE",
"184 252 CURVE SMOOTH",
"267 644 LINE",
"132 644 LINE",
"47 242 LINE SMOOTH",
"13 83 OFFCURVE",
"115 -10 OFFCURVE",
"281 -10 CURVE SMOOTH"
);
}
);
width = 838;
}
);
leftKerningGroup = U;
note = Uhorn;
rightKerningGroup = U;
unicode = 01AF;
},
{
glyphname = Uhornacute;
lastChange = "2015-11-25 08:30:49 +0000";
layers = (
{
layerId = "B67427C8-F911-4143-A2F2-7B953CC18A6E";
name = "Regular Italic";
paths = (
{
closed = 1;
nodes = (
"477 -10 OFFCURVE",
"586 73 OFFCURVE",
"622 242 CURVE SMOOTH",
"674 490 LINE",
"809 492 OFFCURVE",
"878 539 OFFCURVE",
"910 688 CURVE",
"813 688 LINE",
"796 608 OFFCURVE",
"770 581 OFFCURVE",
"693 580 CURVE",
"707 644 LINE",
"572 644 LINE",
"489 252 LINE SMOOTH",
"468 153 OFFCURVE",
"414 105 OFFCURVE",
"306 105 CURVE SMOOTH",
"190 105 OFFCURVE",
"161 142 OFFCURVE",
"184 252 CURVE SMOOTH",
"267 644 LINE",
"132 644 LINE",
"47 242 LINE SMOOTH",
"13 83 OFFCURVE",
"115 -10 OFFCURVE",
"281 -10 CURVE SMOOTH"
);
},
{
closed = 1;
nodes = (
"491 688 LINE",
"619 875 LINE",
"502 875 LINE",
"382 688 LINE"
);
}
);
width = 838;
}
);
leftKerningGroup = U;
note = Uhornacute;
rightKerningGroup = U;
unicode = 1EE8;
},
{
glyphname = Uhorndotbelow;
lastChange = "2015-11-25 08:30:49 +0000";
layers = (
{
layerId = "B67427C8-F911-4143-A2F2-7B953CC18A6E";
name = "Regular Italic";
paths = (
{
closed = 1;
nodes = (
"477 -10 OFFCURVE",
"586 73 OFFCURVE",
"622 242 CURVE SMOOTH",
"674 490 LINE",
"809 492 OFFCURVE",
"878 539 OFFCURVE",
"910 688 CURVE",
"813 688 LINE",
"796 608 OFFCURVE",
"770 581 OFFCURVE",
"693 580 CURVE",
"707 644 LINE",
"572 644 LINE",
"489 252 LINE SMOOTH",
"468 153 OFFCURVE",
"414 105 OFFCURVE",
"306 105 CURVE SMOOTH",
"190 105 OFFCURVE",
"161 142 OFFCURVE",
"184 252 CURVE SMOOTH",
"267 644 LINE",
"132 644 LINE",
"47 242 LINE SMOOTH",
"13 83 OFFCURVE",
"115 -10 OFFCURVE",
"281 -10 CURVE SMOOTH"
);
},
{
closed = 1;
nodes = (
"298 -181 LINE",
"319 -82 LINE",
"212 -82 LINE",
"191 -181 LINE"
);
}
);
width = 838;
}
);
leftKerningGroup = U;
note = Uhorndotbelow;
rightKerningGroup = U;
unicode = 1EF0;
},
{
glyphname = Uhorngrave;
lastChange = "2015-11-25 08:30:52 +0000";
layers = (
{
layerId = "B67427C8-F911-4143-A2F2-7B953CC18A6E";
name = "Regular Italic";
paths = (
{
closed = 1;
nodes = (
"477 -10 OFFCURVE",
"586 73 OFFCURVE",
"622 242 CURVE SMOOTH",
"674 490 LINE",
"809 492 OFFCURVE",
"878 539 OFFCURVE",
"910 688 CURVE",
"813 688 LINE",
"796 608 OFFCURVE",
"770 581 OFFCURVE",
"693 580 CURVE",
"707 644 LINE",
"572 644 LINE",
"489 252 LINE SMOOTH",
"468 153 OFFCURVE",
"414 105 OFFCURVE",
"306 105 CURVE SMOOTH",
"190 105 OFFCURVE",
"161 142 OFFCURVE",
"184 252 CURVE SMOOTH",
"267 644 LINE",
"132 644 LINE",
"47 242 LINE SMOOTH",
"13 83 OFFCURVE",
"115 -10 OFFCURVE",
"281 -10 CURVE SMOOTH"
);
},
{
closed = 1;
nodes = (
"494 688 LINE",
"454 875 LINE",
"337 875 LINE",
"385 688 LINE"
);
}
);
width = 838;
}
);
leftKerningGroup = U;
note = Uhorngrave;
rightKerningGroup = U;
unicode = 1EEA;
},
{
glyphname = Uhornhookabove;
lastChange = "2015-11-25 08:30:51 +0000";
layers = (
{
layerId = "B67427C8-F911-4143-A2F2-7B953CC18A6E";
name = "Regular Italic";
paths = (
{
closed = 1;
nodes = (
"477 -10 OFFCURVE",
"586 73 OFFCURVE",
"622 242 CURVE SMOOTH",
"674 490 LINE",
"809 492 OFFCURVE",
"878 539 OFFCURVE",
"910 688 CURVE",
"813 688 LINE",
"796 608 OFFCURVE",
"770 581 OFFCURVE",
"693 580 CURVE",
"707 644 LINE",
"572 644 LINE",
"489 252 LINE SMOOTH",
"468 153 OFFCURVE",
"414 105 OFFCURVE",
"306 105 CURVE SMOOTH",
"190 105 OFFCURVE",
"161 142 OFFCURVE",
"184 252 CURVE SMOOTH",
"267 644 LINE",
"132 644 LINE",
"47 242 LINE SMOOTH",
"13 83 OFFCURVE",
"115 -10 OFFCURVE",
"281 -10 CURVE SMOOTH"
);
},
{
closed = 1;
nodes = (
"486 687 LINE",
"496 733 LINE",
"562 745 OFFCURVE",
"591 772 OFFCURVE",
"603 828 CURVE SMOOTH",
"615 886 OFFCURVE",
"577 924 OFFCURVE",
"492 924 CURVE SMOOTH",
"453 924 OFFCURVE",
"415 919 OFFCURVE",
"390 911 CURVE",
"375 844 LINE",
"393 851 OFFCURVE",
"421 855 OFFCURVE",
"440 855 CURVE SMOOTH",
"483 855 OFFCURVE",
"506 843 OFFCURVE",
"500 816 CURVE SMOOTH",
"494 786 OFFCURVE",
"474 772 OFFCURVE",
"400 768 CURVE",
"383 687 LINE"
);
}
);
width = 838;
}
);
leftKerningGroup = U;
note = Uhornhookabove;
rightKerningGroup = U;
unicode = 1EEC;
},
{
glyphname = Uhorntilde;
lastChange = "2015-11-25 08:30:51 +0000";
layers = (
{
layerId = "B67427C8-F911-4143-A2F2-7B953CC18A6E";
name = "Regular Italic";
paths = (
{
closed = 1;
nodes = (
"477 -10 OFFCURVE",
"586 73 OFFCURVE",
"622 242 CURVE SMOOTH",
"674 490 LINE",
"809 492 OFFCURVE",
"878 539 OFFCURVE",
"910 688 CURVE",
"813 688 LINE",
"796 608 OFFCURVE",
"770 581 OFFCURVE",
"693 580 CURVE",
"707 644 LINE",
"572 644 LINE",
"489 252 LINE SMOOTH",
"468 153 OFFCURVE",
"414 105 OFFCURVE",
"306 105 CURVE SMOOTH",
"190 105 OFFCURVE",
"161 142 OFFCURVE",
"184 252 CURVE SMOOTH",
"267 644 LINE",
"132 644 LINE",
"47 242 LINE SMOOTH",
"13 83 OFFCURVE",
"115 -10 OFFCURVE",
"281 -10 CURVE SMOOTH"
);
},
{
closed = 1;
nodes = (
"555 697 OFFCURVE",
"588 711 OFFCURVE",
"604 729 CURVE",
"625 825 LINE",
"603 801 OFFCURVE",
"572 787 OFFCURVE",
"534 787 CURVE SMOOTH",
"478 787 OFFCURVE",
"442 827 OFFCURVE",
"381 827 CURVE SMOOTH",
"346 827 OFFCURVE",
"310 814 OFFCURVE",
"288 796 CURVE",
"267 700 LINE",
"296 725 OFFCURVE",
"328 737 OFFCURVE",
"365 737 CURVE SMOOTH",
"414 737 OFFCURVE",
"459 697 OFFCURVE",
"518 697 CURVE SMOOTH"
);
}
);
width = 838;
}
);
leftKerningGroup = U;
note = Uhorntilde;
rightKerningGroup = U;
unicode = 1EEE;
},
{
glyphname = Uhungarumlaut;
lastChange = "2015-11-25 08:30:49 +0000";
layers = (
{
layerId = "B67427C8-F911-4143-A2F2-7B953CC18A6E";
name = "Regular Italic";
paths = (
{
closed = 1;
nodes = (
"477 -10 OFFCURVE",
"586 73 OFFCURVE",
"622 242 CURVE SMOOTH",
"707 644 LINE",
"572 644 LINE",
"489 252 LINE SMOOTH",
"468 153 OFFCURVE",
"414 105 OFFCURVE",
"306 105 CURVE SMOOTH",
"190 105 OFFCURVE",
"161 142 OFFCURVE",
"184 252 CURVE SMOOTH",
"267 644 LINE",
"132 644 LINE",
"47 242 LINE SMOOTH",
"13 83 OFFCURVE",
"115 -10 OFFCURVE",
"281 -10 CURVE SMOOTH"
);
},
{
closed = 1;
nodes = (
"347 687 LINE",
"476 863 LINE",
"357 863 LINE",
"240 687 LINE"
);
},
{
closed = 1;
nodes = (
"574 687 LINE",
"704 863 LINE",
"584 863 LINE",
"467 687 LINE"
);
}
);
width = 679;
}
);
leftKerningGroup = U;
note = Uhungarumlaut;
rightKerningGroup = U;
unicode = 0170;
},
{
glyphname = Umacron;
lastChange = "2015-11-25 08:30:49 +0000";
layers = (
{
layerId = "B67427C8-F911-4143-A2F2-7B953CC18A6E";
name = "Regular Italic";
paths = (
{
closed = 1;
nodes = (
"477 -10 OFFCURVE",
"586 73 OFFCURVE",
"622 242 CURVE SMOOTH",
"707 644 LINE",
"572 644 LINE",
"489 252 LINE SMOOTH",
"468 153 OFFCURVE",
"414 105 OFFCURVE",
"306 105 CURVE SMOOTH",
"190 105 OFFCURVE",
"161 142 OFFCURVE",
"184 252 CURVE SMOOTH",
"267 644 LINE",
"132 644 LINE",
"47 242 LINE SMOOTH",
"13 83 OFFCURVE",
"115 -10 OFFCURVE",
"281 -10 CURVE SMOOTH"
);
},
{
closed = 1;
nodes = (
"591 722 LINE",
"608 805 LINE",
"301 805 LINE",
"284 722 LINE"
);
}
);
width = 679;
}
);
leftKerningGroup = U;
note = Umacron;
rightKerningGroup = U;
unicode = 016A;
},
{
glyphname = Uogonek;
lastChange = "2015-11-25 08:30:51 +0000";
layers = (
{
layerId = "B67427C8-F911-4143-A2F2-7B953CC18A6E";
name = "Regular Italic";
paths = (
{
closed = 1;
nodes = (
"303 -220 OFFCURVE",
"337 -214 OFFCURVE",
"357 -206 CURVE",
"373 -130 LINE",
"359 -137 OFFCURVE",
"339 -141 OFFCURVE",
"323 -141 CURVE SMOOTH",
"296 -141 OFFCURVE",
"279 -132 OFFCURVE",
"285 -104 CURVE SMOOTH",
"292 -67 OFFCURVE",
"324 -33 OFFCURVE",
"368 -4 CURVE",
"510 18 OFFCURVE",
"591 100 OFFCURVE",
"622 242 CURVE SMOOTH",
"707 644 LINE",
"572 644 LINE",
"489 252 LINE SMOOTH",
"468 153 OFFCURVE",
"414 105 OFFCURVE",
"306 105 CURVE SMOOTH",
"190 105 OFFCURVE",
"161 142 OFFCURVE",
"184 252 CURVE SMOOTH",
"267 644 LINE",
"132 644 LINE",
"47 242 LINE SMOOTH",
"14 90 OFFCURVE",
"106 -1 OFFCURVE",
"259 -9 CURVE",
"214 -41 OFFCURVE",
"184 -84 OFFCURVE",
"174 -129 CURVE SMOOTH",
"161 -191 OFFCURVE",
"209 -220 OFFCURVE",
"270 -220 CURVE SMOOTH"
);
}
);
width = 679;
}
);
leftKerningGroup = U;
note = Uogonek;
rightKerningGroup = U;
unicode = 0172;
},
{
glyphname = Uring;
lastChange = "2015-11-25 08:30:52 +0000";
layers = (
{
layerId = "B67427C8-F911-4143-A2F2-7B953CC18A6E";
name = "Regular Italic";
paths = (
{
closed = 1;
nodes = (
"477 -10 OFFCURVE",
"586 73 OFFCURVE",
"622 242 CURVE SMOOTH",
"707 644 LINE",
"572 644 LINE",
"489 252 LINE SMOOTH",
"468 153 OFFCURVE",
"414 105 OFFCURVE",
"306 105 CURVE SMOOTH",
"190 105 OFFCURVE",
"161 142 OFFCURVE",
"184 252 CURVE SMOOTH",
"267 644 LINE",
"132 644 LINE",
"47 242 LINE SMOOTH",
"13 83 OFFCURVE",
"115 -10 OFFCURVE",
"281 -10 CURVE SMOOTH"
);
},
{
closed = 1;
nodes = (
"512 688 OFFCURVE",
"565 740 OFFCURVE",
"579 807 CURVE SMOOTH",
"593 874 OFFCURVE",
"557 927 OFFCURVE",
"479 927 CURVE SMOOTH",
"400 927 OFFCURVE",
"344 874 OFFCURVE",
"331 807 CURVE SMOOTH",
"317 740 OFFCURVE",
"353 688 OFFCURVE",
"429 688 CURVE SMOOTH"
);
},
{
closed = 1;
nodes = (
"407 750 OFFCURVE",
"389 775 OFFCURVE",
"396 807 CURVE SMOOTH",
"403 839 OFFCURVE",
"427 864 OFFCURVE",
"466 864 CURVE SMOOTH",
"503 864 OFFCURVE",
"520 839 OFFCURVE",
"513 807 CURVE SMOOTH",
"506 775 OFFCURVE",
"484 750 OFFCURVE",
"442 750 CURVE SMOOTH"
);
}
);
width = 679;
}
);
leftKerningGroup = U;
note = Uring;
rightKerningGroup = U;
unicode = 016E;
},
{
glyphname = Utilde;
lastChange = "2015-11-25 08:30:52 +0000";
layers = (
{
layerId = "B67427C8-F911-4143-A2F2-7B953CC18A6E";
name = "Regular Italic";
paths = (
{
closed = 1;
nodes = (
"477 -10 OFFCURVE",
"586 73 OFFCURVE",
"622 242 CURVE SMOOTH",
"707 644 LINE",
"572 644 LINE",
"489 252 LINE SMOOTH",
"468 153 OFFCURVE",
"414 105 OFFCURVE",
"306 105 CURVE SMOOTH",
"190 105 OFFCURVE",
"161 142 OFFCURVE",
"184 252 CURVE SMOOTH",
"267 644 LINE",
"132 644 LINE",
"47 242 LINE SMOOTH",
"13 83 OFFCURVE",
"115 -10 OFFCURVE",
"281 -10 CURVE SMOOTH"
);
},
{
closed = 1;
nodes = (
"555 700 OFFCURVE",
"588 714 OFFCURVE",
"604 732 CURVE",
"625 828 LINE",
"603 804 OFFCURVE",
"572 790 OFFCURVE",
"534 790 CURVE SMOOTH",
"478 790 OFFCURVE",
"442 830 OFFCURVE",
"381 830 CURVE SMOOTH",
"346 830 OFFCURVE",
"310 817 OFFCURVE",
"288 799 CURVE",
"267 703 LINE",
"296 728 OFFCURVE",
"328 740 OFFCURVE",
"365 740 CURVE SMOOTH",
"414 740 OFFCURVE",
"459 700 OFFCURVE",
"518 700 CURVE SMOOTH"
);
}
);
width = 679;
}
);
leftKerningGroup = U;
note = Utilde;
rightKerningGroup = U;
unicode = 0168;
},
{
glyphname = V;
lastChange = "2015-11-25 08:30:51 +0000";
layers = (
{
layerId = "B67427C8-F911-4143-A2F2-7B953CC18A6E";
name = "Regular Italic";
paths = (
{
closed = 1;
nodes = (
"375 0 LINE",
"756 644 LINE",
"611 644 LINE",
"328 151 LINE",
"254 644 LINE",
"117 644 LINE",
"227 0 LINE"
);
}
);
width = 713;
}
);
note = V;
unicode = 0056;
},
{
glyphname = W;
lastChange = "2015-11-25 08:30:49 +0000";
layers = (
{
layerId = "B67427C8-F911-4143-A2F2-7B953CC18A6E";
name = "Regular Italic";
paths = (
{
closed = 1;
nodes = (
"264 0 LINE",
"478 412 LINE",
"509 0 LINE",
"633 0 LINE",
"918 644 LINE",
"786 644 LINE",
"594 208 LINE",
"562 644 LINE",
"452 644 LINE",
"435 560 LINE",
"255 209 LINE",
"250 644 LINE",
"117 644 LINE",
"131 0 LINE"
);
}
);
width = 875;
}
);
leftKerningGroup = W;
note = W;
rightKerningGroup = W;
unicode = 0057;
},
{
glyphname = Wacute;
lastChange = "2015-11-25 08:30:52 +0000";
layers = (
{
layerId = "B67427C8-F911-4143-A2F2-7B953CC18A6E";
name = "Regular Italic";
paths = (
{
closed = 1;
nodes = (
"264 0 LINE",
"478 412 LINE",
"509 0 LINE",
"633 0 LINE",
"918 644 LINE",
"786 644 LINE",
"594 208 LINE",
"562 644 LINE",
"452 644 LINE",
"435 560 LINE",
"255 209 LINE",
"250 644 LINE",
"117 644 LINE",
"131 0 LINE"
);
},
{
closed = 1;
nodes = (
"575 688 LINE",
"703 875 LINE",
"586 875 LINE",
"466 688 LINE"
);
}
);
width = 875;
}
);
leftKerningGroup = W;
note = Wacute;
rightKerningGroup = W;
unicode = 1E82;
},
{
glyphname = Wcircumflex;
lastChange = "2015-11-25 08:30:52 +0000";
layers = (
{
layerId = "B67427C8-F911-4143-A2F2-7B953CC18A6E";
name = "Regular Italic";
paths = (
{
closed = 1;
nodes = (
"264 0 LINE",
"478 412 LINE",
"509 0 LINE",
"633 0 LINE",
"918 644 LINE",
"786 644 LINE",
"594 208 LINE",
"562 644 LINE",
"452 644 LINE",
"435 560 LINE",
"255 209 LINE",
"250 644 LINE",
"117 644 LINE",
"131 0 LINE"
);
},
{
closed = 1;
nodes = (
"466 688 LINE",
"559 788 LINE",
"612 688 LINE",
"711 688 LINE",
"613 862 LINE",
"527 862 LINE",
"356 688 LINE"
);
}
);
width = 875;
}
);
leftKerningGroup = W;
note = Wcircumflex;
rightKerningGroup = W;
unicode = 0174;
},
{
glyphname = Wdieresis;
lastChange = "2015-11-25 08:30:52 +0000";
layers = (
{
layerId = "B67427C8-F911-4143-A2F2-7B953CC18A6E";
name = "Regular Italic";
paths = (
{
closed = 1;
nodes = (
"264 0 LINE",
"478 412 LINE",
"509 0 LINE",
"633 0 LINE",
"918 644 LINE",
"786 644 LINE",
"594 208 LINE",
"562 644 LINE",
"452 644 LINE",
"435 560 LINE",
"255 209 LINE",
"250 644 LINE",
"117 644 LINE",
"131 0 LINE"
);
},
{
closed = 1;
nodes = (
"493 713 LINE",
"514 811 LINE",
"409 811 LINE",
"388 713 LINE"
);
},
{
closed = 1;
nodes = (
"689 713 LINE",
"710 811 LINE",
"604 811 LINE",
"583 713 LINE"
);
}
);
width = 875;
}
);
leftKerningGroup = W;
note = Wdieresis;
rightKerningGroup = W;
unicode = 1E84;
},
{
glyphname = Wgrave;
lastChange = "2015-11-25 08:30:49 +0000";
layers = (
{
layerId = "B67427C8-F911-4143-A2F2-7B953CC18A6E";
name = "Regular Italic";
paths = (
{
closed = 1;
nodes = (
"264 0 LINE",
"478 412 LINE",
"509 0 LINE",
"633 0 LINE",
"918 644 LINE",
"786 644 LINE",
"594 208 LINE",
"562 644 LINE",
"452 644 LINE",
"435 560 LINE",
"255 209 LINE",
"250 644 LINE",
"117 644 LINE",
"131 0 LINE"
);
},
{
closed = 1;
nodes = (
"576 688 LINE",
"536 875 LINE",
"419 875 LINE",
"467 688 LINE"
);
}
);
width = 875;
}
);
leftKerningGroup = W;
note = Wgrave;
rightKerningGroup = W;
unicode = 1E80;
},
{
glyphname = X;
lastChange = "2015-11-25 08:30:52 +0000";
layers = (
{
layerId = "B67427C8-F911-4143-A2F2-7B953CC18A6E";
name = "Regular Italic";
paths = (
{
closed = 1;
nodes = (
"142 0 LINE",
"340 215 LINE",
"448 0 LINE",
"609 0 LINE",
"444 323 LINE",
"739 644 LINE",
"580 644 LINE",
"386 429 LINE",
"282 644 LINE",
"123 644 LINE",
"282 323 LINE",
"-19 0 LINE"
);
}
);
width = 702;
}
);
note = X;
unicode = 0058;
},
{
glyphname = Y;
lastChange = "2015-11-25 08:30:52 +0000";
layers = (
{
layerId = "B67427C8-F911-4143-A2F2-7B953CC18A6E";
name = "Regular Italic";
paths = (
{
closed = 1;
nodes = (
"347 0 LINE",
"397 238 LINE",
"714 644 LINE",
"570 644 LINE",
"351 353 LINE",
"254 644 LINE",
"117 644 LINE",
"262 238 LINE",
"212 0 LINE"
);
}
);
width = 671;
}
);
leftKerningGroup = Y;
note = Y;
rightKerningGroup = Y;
unicode = 0059;
},
{
glyphname = Yacute;
lastChange = "2015-11-25 08:30:52 +0000";
layers = (
{
layerId = "B67427C8-F911-4143-A2F2-7B953CC18A6E";
name = "Regular Italic";
paths = (
{
closed = 1;
nodes = (
"347 0 LINE",
"397 238 LINE",
"714 644 LINE",
"570 644 LINE",
"351 353 LINE",
"254 644 LINE",
"117 644 LINE",
"262 238 LINE",
"212 0 LINE"
);
},
{
closed = 1;
nodes = (
"472 688 LINE",
"600 875 LINE",
"483 875 LINE",
"363 688 LINE"
);
}
);
width = 671;
}
);
leftKerningGroup = Y;
note = Yacute;
rightKerningGroup = Y;
unicode = 00DD;
},
{
glyphname = Ycircumflex;
lastChange = "2015-11-25 08:30:51 +0000";
layers = (
{
layerId = "B67427C8-F911-4143-A2F2-7B953CC18A6E";
name = "Regular Italic";
paths = (
{
closed = 1;
nodes = (
"347 0 LINE",
"397 238 LINE",
"714 644 LINE",
"570 644 LINE",
"351 353 LINE",
"254 644 LINE",
"117 644 LINE",
"262 238 LINE",
"212 0 LINE"
);
},
{
closed = 1;
nodes = (
"359 688 LINE",
"452 788 LINE",
"505 688 LINE",
"604 688 LINE",
"506 862 LINE",
"420 862 LINE",
"249 688 LINE"
);
}
);
width = 671;
}
);
leftKerningGroup = Y;
note = Ycircumflex;
rightKerningGroup = Y;
unicode = 0176;
},
{
glyphname = Ydieresis;
lastChange = "2015-11-25 08:30:51 +0000";
layers = (
{
layerId = "B67427C8-F911-4143-A2F2-7B953CC18A6E";
name = "Regular Italic";
paths = (
{
closed = 1;
nodes = (
"347 0 LINE",
"397 238 LINE",
"714 644 LINE",
"570 644 LINE",
"351 353 LINE",
"254 644 LINE",
"117 644 LINE",
"262 238 LINE",
"212 0 LINE"
);
},
{
closed = 1;
nodes = (
"386 713 LINE",
"407 811 LINE",
"302 811 LINE",
"281 713 LINE"
);
},
{
closed = 1;
nodes = (
"582 713 LINE",
"603 811 LINE",
"497 811 LINE",
"476 713 LINE"
);
}
);
width = 671;
}
);
leftKerningGroup = Y;
note = Ydieresis;
rightKerningGroup = Y;
unicode = 0178;
},
{
glyphname = Ydotaccent;
lastChange = "2015-11-25 08:30:52 +0000";
layers = (
{
layerId = "B67427C8-F911-4143-A2F2-7B953CC18A6E";
name = "Regular Italic";
paths = (
{
closed = 1;
nodes = (
"347 0 LINE",
"397 238 LINE",
"714 644 LINE",
"570 644 LINE",
"351 353 LINE",
"254 644 LINE",
"117 644 LINE",
"262 238 LINE",
"212 0 LINE"
);
},
{
closed = 1;
nodes = (
"483 713 LINE",
"504 811 LINE",
"399 811 LINE",
"378 713 LINE"
);
}
);
width = 671;
}
);
leftKerningGroup = Y;
note = Ydotaccent;
rightKerningGroup = Y;
unicode = 1E8E;
},
{
glyphname = Ydotbelow;
lastChange = "2015-11-25 08:30:52 +0000";
layers = (
{
layerId = "B67427C8-F911-4143-A2F2-7B953CC18A6E";
name = "Regular Italic";
paths = (
{
closed = 1;
nodes = (
"347 0 LINE",
"397 238 LINE",
"714 644 LINE",
"570 644 LINE",
"351 353 LINE",
"254 644 LINE",
"117 644 LINE",
"262 238 LINE",
"212 0 LINE"
);
},
{
closed = 1;
nodes = (
"297 -171 LINE",
"318 -72 LINE",
"211 -72 LINE",
"190 -171 LINE"
);
}
);
width = 671;
}
);
leftKerningGroup = Y;
note = Ydotbelow;
rightKerningGroup = Y;
unicode = 1EF4;
},
{
glyphname = Ygrave;
lastChange = "2015-11-25 08:30:52 +0000";
layers = (
{
layerId = "B67427C8-F911-4143-A2F2-7B953CC18A6E";
name = "Regular Italic";
paths = (
{
closed = 1;
nodes = (
"347 0 LINE",
"397 238 LINE",
"714 644 LINE",
"570 644 LINE",
"351 353 LINE",
"254 644 LINE",
"117 644 LINE",
"262 238 LINE",
"212 0 LINE"
);
},
{
closed = 1;
nodes = (
"490 688 LINE",
"450 875 LINE",
"333 875 LINE",
"381 688 LINE"
);
}
);
width = 671;
}
);
leftKerningGroup = Y;
note = Ygrave;
rightKerningGroup = Y;
unicode = 1EF2;
},
{
glyphname = Yhookabove;
lastChange = "2015-11-25 08:30:49 +0000";
layers = (
{
layerId = "B67427C8-F911-4143-A2F2-7B953CC18A6E";
name = "Regular Italic";
paths = (
{
closed = 1;
nodes = (
"347 0 LINE",
"397 238 LINE",
"714 644 LINE",
"570 644 LINE",
"351 353 LINE",
"254 644 LINE",
"117 644 LINE",
"262 238 LINE",
"212 0 LINE"
);
},
{
closed = 1;
nodes = (
"472 687 LINE",
"482 733 LINE",
"548 745 OFFCURVE",
"577 772 OFFCURVE",
"589 828 CURVE SMOOTH",
"601 886 OFFCURVE",
"563 924 OFFCURVE",
"478 924 CURVE SMOOTH",
"439 924 OFFCURVE",
"401 919 OFFCURVE",
"376 911 CURVE",
"361 844 LINE",
"379 851 OFFCURVE",
"407 855 OFFCURVE",
"426 855 CURVE SMOOTH",
"469 855 OFFCURVE",
"492 843 OFFCURVE",
"486 816 CURVE SMOOTH",
"480 786 OFFCURVE",
"460 772 OFFCURVE",
"386 768 CURVE",
"369 687 LINE"
);
}
);
width = 671;
}
);
leftKerningGroup = Y;
note = Yhookabove;
rightKerningGroup = Y;
unicode = 1EF6;
},
{
glyphname = Ytilde;
lastChange = "2015-11-25 08:30:51 +0000";
layers = (
{
layerId = "B67427C8-F911-4143-A2F2-7B953CC18A6E";
name = "Regular Italic";
paths = (
{
closed = 1;
nodes = (
"347 0 LINE",
"397 238 LINE",
"714 644 LINE",
"570 644 LINE",
"351 353 LINE",
"254 644 LINE",
"117 644 LINE",
"262 238 LINE",
"212 0 LINE"
);
},
{
closed = 1;
nodes = (
"551 700 OFFCURVE",
"584 714 OFFCURVE",
"600 732 CURVE",
"621 828 LINE",
"599 804 OFFCURVE",
"568 790 OFFCURVE",
"530 790 CURVE SMOOTH",
"474 790 OFFCURVE",
"438 830 OFFCURVE",
"377 830 CURVE SMOOTH",
"342 830 OFFCURVE",
"306 817 OFFCURVE",
"284 799 CURVE",
"263 703 LINE",
"292 728 OFFCURVE",
"324 740 OFFCURVE",
"361 740 CURVE SMOOTH",
"410 740 OFFCURVE",
"455 700 OFFCURVE",
"514 700 CURVE SMOOTH"
);
}
);
width = 671;
}
);
leftKerningGroup = Y;
note = Ytilde;
rightKerningGroup = Y;
unicode = 1EF8;
},
{
glyphname = Z;
lastChange = "2015-11-25 08:30:50 +0000";
layers = (
{
layerId = "B67427C8-F911-4143-A2F2-7B953CC18A6E";
name = "Regular Italic";
paths = (
{
closed = 1;
nodes = (
"486 0 LINE",
"508 104 LINE",
"182 104 LINE",
"600 562 LINE",
"617 644 LINE",
"133 644 LINE",
"110 532 LINE",
"418 532 LINE",
"-5 70 LINE",
"-19 0 LINE"
);
}
);
width = 579;
}
);
leftKerningGroup = Z;
note = Z;
rightKerningGroup = Z;
unicode = 005A;
},
{
glyphname = Zacute;
lastChange = "2015-11-25 08:30:53 +0000";
layers = (
{
layerId = "B67427C8-F911-4143-A2F2-7B953CC18A6E";
name = "Regular Italic";
paths = (
{
closed = 1;
nodes = (
"486 0 LINE",
"508 104 LINE",
"182 104 LINE",
"600 562 LINE",
"617 644 LINE",
"133 644 LINE",
"110 532 LINE",
"418 532 LINE",
"-5 70 LINE",
"-19 0 LINE"
);
},
{
closed = 1;
nodes = (
"440 688 LINE",
"568 875 LINE",
"451 875 LINE",
"331 688 LINE"
);
}
);
width = 579;
}
);
leftKerningGroup = Z;
note = Zacute;
rightKerningGroup = Z;
unicode = 0179;
},
{
glyphname = Zcaron;
lastChange = "2015-11-25 08:30:52 +0000";
layers = (
{
layerId = "B67427C8-F911-4143-A2F2-7B953CC18A6E";
name = "Regular Italic";
paths = (
{
closed = 1;
nodes = (
"486 0 LINE",
"508 104 LINE",
"182 104 LINE",
"600 562 LINE",
"617 644 LINE",
"133 644 LINE",
"110 532 LINE",
"418 532 LINE",
"-5 70 LINE",
"-19 0 LINE"
);
},
{
closed = 1;
nodes = (
"446 688 LINE",
"618 862 LINE",
"509 862 LINE",
"413 762 LINE",
"363 862 LINE",
"263 862 LINE",
"360 688 LINE"
);
}
);
width = 579;
}
);
leftKerningGroup = Z;
note = Zcaron;
rightKerningGroup = Z;
unicode = 017D;
},
{
glyphname = Zdotaccent;
lastChange = "2015-11-25 08:30:50 +0000";
layers = (
{
layerId = "B67427C8-F911-4143-A2F2-7B953CC18A6E";
name = "Regular Italic";
paths = (
{
closed = 1;
nodes = (
"486 0 LINE",
"508 104 LINE",
"182 104 LINE",
"600 562 LINE",
"617 644 LINE",
"133 644 LINE",
"110 532 LINE",
"418 532 LINE",
"-5 70 LINE",
"-19 0 LINE"
);
},
{
closed = 1;
nodes = (
"452 713 LINE",
"473 811 LINE",
"368 811 LINE",
"347 713 LINE"
);
}
);
width = 579;
}
);
leftKerningGroup = Z;
note = Zdotaccent;
rightKerningGroup = Z;
unicode = 017B;
},
{
glyphname = Zdotbelow;
lastChange = "2015-11-25 08:30:52 +0000";
layers = (
{
layerId = "B67427C8-F911-4143-A2F2-7B953CC18A6E";
name = "Regular Italic";
paths = (
{
closed = 1;
nodes = (
"486 0 LINE",
"508 104 LINE",
"182 104 LINE",
"600 562 LINE",
"617 644 LINE",
"133 644 LINE",
"110 532 LINE",
"418 532 LINE",
"-5 70 LINE",
"-19 0 LINE"
);
},
{
closed = 1;
nodes = (
"269 -181 LINE",
"290 -82 LINE",
"183 -82 LINE",
"162 -181 LINE"
);
}
);
width = 579;
}
);
leftKerningGroup = Z;
note = Zdotbelow;
rightKerningGroup = Z;
unicode = 1E92;
},
{
glyphname = a;
lastChange = "2015-11-25 08:30:52 +0000";
layers = (
{
layerId = "B67427C8-F911-4143-A2F2-7B953CC18A6E";
name = "Regular Italic";
paths = (
{
closed = 1;
nodes = (
"262 -10 OFFCURVE",
"313 8 OFFCURVE",
"362 44 CURVE",
"361 0 LINE",
"477 0 LINE",
"577 474 LINE",
"442 474 LINE",
"436 443 LINE",
"403 474 OFFCURVE",
"366 484 OFFCURVE",
"313 484 CURVE SMOOTH",
"178 484 OFFCURVE",
"62 383 OFFCURVE",
"26 214 CURVE SMOOTH",
"-9 51 OFFCURVE",
"74 -10 OFFCURVE",
"196 -10 CURVE SMOOTH"
);
},
{
closed = 1;
nodes = (
"168 89 OFFCURVE",
"142 116 OFFCURVE",
"163 214 CURVE SMOOTH",
"187 326 OFFCURVE",
"243 385 OFFCURVE",
"327 385 CURVE SMOOTH",
"366 385 OFFCURVE",
"393 371 OFFCURVE",
"414 343 CURVE",
"370 132 LINE",
"333 102 OFFCURVE",
"298 89 OFFCURVE",
"254 89 CURVE SMOOTH"
);
}
);
width = 591;
}
);
leftKerningGroup = a;
note = a;
rightKerningGroup = a;
unicode = 0061;
},
{
glyphname = aacute;
lastChange = "2015-11-25 08:30:51 +0000";
layers = (
{
layerId = "B67427C8-F911-4143-A2F2-7B953CC18A6E";
name = "Regular Italic";
paths = (
{
closed = 1;
nodes = (
"262 -10 OFFCURVE",
"313 8 OFFCURVE",
"362 44 CURVE",
"361 0 LINE",
"477 0 LINE",
"577 474 LINE",
"442 474 LINE",
"436 443 LINE",
"403 474 OFFCURVE",
"366 484 OFFCURVE",
"313 484 CURVE SMOOTH",
"178 484 OFFCURVE",
"62 383 OFFCURVE",
"26 214 CURVE SMOOTH",
"-9 51 OFFCURVE",
"74 -10 OFFCURVE",
"196 -10 CURVE SMOOTH"
);
},
{
closed = 1;
nodes = (
"168 89 OFFCURVE",
"142 116 OFFCURVE",
"163 214 CURVE SMOOTH",
"187 326 OFFCURVE",
"243 385 OFFCURVE",
"327 385 CURVE SMOOTH",
"366 385 OFFCURVE",
"393 371 OFFCURVE",
"414 343 CURVE",
"370 132 LINE",
"333 102 OFFCURVE",
"298 89 OFFCURVE",
"254 89 CURVE SMOOTH"
);
},
{
closed = 1;
nodes = (
"393 522 LINE",
"521 709 LINE",
"404 709 LINE",
"284 522 LINE"
);
}
);
width = 591;
}
);
leftKerningGroup = a;
note = aacute;
rightKerningGroup = a;
unicode = 00E1;
},
{
glyphname = abreve;
lastChange = "2015-11-25 08:30:51 +0000";
layers = (
{
layerId = "B67427C8-F911-4143-A2F2-7B953CC18A6E";
name = "Regular Italic";
paths = (
{
closed = 1;
nodes = (
"262 -10 OFFCURVE",
"313 8 OFFCURVE",
"362 44 CURVE",
"361 0 LINE",
"477 0 LINE",
"577 474 LINE",
"442 474 LINE",
"436 443 LINE",
"403 474 OFFCURVE",
"366 484 OFFCURVE",
"313 484 CURVE SMOOTH",
"178 484 OFFCURVE",
"62 383 OFFCURVE",
"26 214 CURVE SMOOTH",
"-9 51 OFFCURVE",
"74 -10 OFFCURVE",
"196 -10 CURVE SMOOTH"
);
},
{
closed = 1;
nodes = (
"168 89 OFFCURVE",
"142 116 OFFCURVE",
"163 214 CURVE SMOOTH",
"187 326 OFFCURVE",
"243 385 OFFCURVE",
"327 385 CURVE SMOOTH",
"366 385 OFFCURVE",
"393 371 OFFCURVE",
"414 343 CURVE",
"370 132 LINE",
"333 102 OFFCURVE",
"298 89 OFFCURVE",
"254 89 CURVE SMOOTH"
);
},
{
closed = 1;
nodes = (
"462 522 OFFCURVE",
"526 581 OFFCURVE",
"547 679 CURVE",
"452 679 LINE",
"443 637 OFFCURVE",
"412 600 OFFCURVE",
"366 600 CURVE SMOOTH",
"313 600 OFFCURVE",
"307 637 OFFCURVE",
"316 679 CURVE",
"232 679 LINE",
"211 581 OFFCURVE",
"262 522 OFFCURVE",
"354 522 CURVE SMOOTH"
);
}
);
width = 591;
}
);
leftKerningGroup = a;
note = abreve;
rightKerningGroup = a;
unicode = 0103;
},
{
glyphname = abreveacute;
lastChange = "2015-11-25 08:30:52 +0000";
layers = (
{
layerId = "B67427C8-F911-4143-A2F2-7B953CC18A6E";
name = "Regular Italic";
paths = (
{
closed = 1;
nodes = (
"262 -10 OFFCURVE",
"313 8 OFFCURVE",
"362 44 CURVE",
"361 0 LINE",
"477 0 LINE",
"577 474 LINE",
"442 474 LINE",
"436 443 LINE",
"403 474 OFFCURVE",
"366 484 OFFCURVE",
"313 484 CURVE SMOOTH",
"178 484 OFFCURVE",
"62 383 OFFCURVE",
"26 214 CURVE SMOOTH",
"-9 51 OFFCURVE",
"74 -10 OFFCURVE",
"196 -10 CURVE SMOOTH"
);
},
{
closed = 1;
nodes = (
"168 89 OFFCURVE",
"142 116 OFFCURVE",
"163 214 CURVE SMOOTH",
"187 326 OFFCURVE",
"243 385 OFFCURVE",
"327 385 CURVE SMOOTH",
"366 385 OFFCURVE",
"393 371 OFFCURVE",
"414 343 CURVE",
"370 132 LINE",
"333 102 OFFCURVE",
"298 89 OFFCURVE",
"254 89 CURVE SMOOTH"
);
},
{
closed = 1;
nodes = (
"457 522 OFFCURVE",
"527 567 OFFCURVE",
"551 678 CURVE",
"468 678 LINE",
"456 623 OFFCURVE",
"423 593 OFFCURVE",
"366 593 CURVE SMOOTH",
"301 593 OFFCURVE",
"287 623 OFFCURVE",
"299 678 CURVE",
"222 678 LINE",
"198 567 OFFCURVE",
"266 522 OFFCURVE",
"354 522 CURVE SMOOTH"
);
},
{
closed = 1;
nodes = (
"421 652 LINE",
"524 793 LINE",
"422 793 LINE",
"326 652 LINE"
);
}
);
width = 591;
}
);
leftKerningGroup = a;
note = abreveacute;
rightKerningGroup = a;
unicode = 1EAF;
},
{
glyphname = abrevedotbelow;
lastChange = "2015-11-25 08:30:49 +0000";
layers = (
{
layerId = "B67427C8-F911-4143-A2F2-7B953CC18A6E";
name = "Regular Italic";
paths = (
{
closed = 1;
nodes = (
"262 -10 OFFCURVE",
"313 8 OFFCURVE",
"362 44 CURVE",
"361 0 LINE",
"477 0 LINE",
"577 474 LINE",
"442 474 LINE",
"436 443 LINE",
"403 474 OFFCURVE",
"366 484 OFFCURVE",
"313 484 CURVE SMOOTH",
"178 484 OFFCURVE",
"62 383 OFFCURVE",
"26 214 CURVE SMOOTH",
"-9 51 OFFCURVE",
"74 -10 OFFCURVE",
"196 -10 CURVE SMOOTH"
);
},
{
closed = 1;
nodes = (
"168 89 OFFCURVE",
"142 116 OFFCURVE",
"163 214 CURVE SMOOTH",
"187 326 OFFCURVE",
"243 385 OFFCURVE",
"327 385 CURVE SMOOTH",
"366 385 OFFCURVE",
"393 371 OFFCURVE",
"414 343 CURVE",
"370 132 LINE",
"333 102 OFFCURVE",
"298 89 OFFCURVE",
"254 89 CURVE SMOOTH"
);
},
{
closed = 1;
nodes = (
"261 -181 LINE",
"282 -82 LINE",
"175 -82 LINE",
"154 -181 LINE"
);
},
{
closed = 1;
nodes = (
"462 522 OFFCURVE",
"526 581 OFFCURVE",
"547 679 CURVE",
"452 679 LINE",
"443 637 OFFCURVE",
"412 600 OFFCURVE",
"366 600 CURVE SMOOTH",
"313 600 OFFCURVE",
"307 637 OFFCURVE",
"316 679 CURVE",
"232 679 LINE",
"211 581 OFFCURVE",
"262 522 OFFCURVE",
"354 522 CURVE SMOOTH"
);
}
);
width = 591;
}
);
leftKerningGroup = a;
note = abrevedotbelow;
rightKerningGroup = a;
unicode = 1EB7;
},
{
glyphname = abrevegrave;
lastChange = "2015-11-25 08:30:52 +0000";
layers = (
{
layerId = "B67427C8-F911-4143-A2F2-7B953CC18A6E";
name = "Regular Italic";
paths = (
{
closed = 1;
nodes = (
"262 -10 OFFCURVE",
"313 8 OFFCURVE",
"362 44 CURVE",
"361 0 LINE",
"477 0 LINE",
"577 474 LINE",
"442 474 LINE",
"436 443 LINE",
"403 474 OFFCURVE",
"366 484 OFFCURVE",
"313 484 CURVE SMOOTH",
"178 484 OFFCURVE",
"62 383 OFFCURVE",
"26 214 CURVE SMOOTH",
"-9 51 OFFCURVE",
"74 -10 OFFCURVE",
"196 -10 CURVE SMOOTH"
);
},
{
closed = 1;
nodes = (
"168 89 OFFCURVE",
"142 116 OFFCURVE",
"163 214 CURVE SMOOTH",
"187 326 OFFCURVE",
"243 385 OFFCURVE",
"327 385 CURVE SMOOTH",
"366 385 OFFCURVE",
"393 371 OFFCURVE",
"414 343 CURVE",
"370 132 LINE",
"333 102 OFFCURVE",
"298 89 OFFCURVE",
"254 89 CURVE SMOOTH"
);
},
{
closed = 1;
nodes = (
"453 522 OFFCURVE",
"523 567 OFFCURVE",
"547 678 CURVE",
"464 678 LINE",
"452 623 OFFCURVE",
"419 593 OFFCURVE",
"362 593 CURVE SMOOTH",
"297 593 OFFCURVE",
"283 623 OFFCURVE",
"295 678 CURVE",
"218 678 LINE",
"194 567 OFFCURVE",
"262 522 OFFCURVE",
"350 522 CURVE SMOOTH"
);
},
{
closed = 1;
nodes = (
"431 652 LINE",
"395 793 LINE",
"293 793 LINE",
"336 652 LINE"
);
}
);
width = 591;
}
);
leftKerningGroup = a;
note = abrevegrave;
rightKerningGroup = a;
unicode = 1EB1;
},
{
glyphname = abrevehookabove;
lastChange = "2015-11-25 08:30:51 +0000";
layers = (
{
layerId = "B67427C8-F911-4143-A2F2-7B953CC18A6E";
name = "Regular Italic";
paths = (
{
closed = 1;
nodes = (
"262 -10 OFFCURVE",
"313 8 OFFCURVE",
"362 44 CURVE",
"361 0 LINE",
"477 0 LINE",
"577 474 LINE",
"442 474 LINE",
"436 443 LINE",
"403 474 OFFCURVE",
"366 484 OFFCURVE",
"313 484 CURVE SMOOTH",
"178 484 OFFCURVE",
"62 383 OFFCURVE",
"26 214 CURVE SMOOTH",
"-9 51 OFFCURVE",
"74 -10 OFFCURVE",
"196 -10 CURVE SMOOTH"
);
},
{
closed = 1;
nodes = (
"168 89 OFFCURVE",
"142 116 OFFCURVE",
"163 214 CURVE SMOOTH",
"187 326 OFFCURVE",
"243 385 OFFCURVE",
"327 385 CURVE SMOOTH",
"366 385 OFFCURVE",
"393 371 OFFCURVE",
"414 343 CURVE",
"370 132 LINE",
"333 102 OFFCURVE",
"298 89 OFFCURVE",
"254 89 CURVE SMOOTH"
);
},
{
closed = 1;
nodes = (
"459 522 OFFCURVE",
"529 567 OFFCURVE",
"553 678 CURVE",
"470 678 LINE",
"458 623 OFFCURVE",
"425 593 OFFCURVE",
"368 593 CURVE SMOOTH",
"303 593 OFFCURVE",
"289 623 OFFCURVE",
"301 678 CURVE",
"224 678 LINE",
"200 567 OFFCURVE",
"268 522 OFFCURVE",
"356 522 CURVE SMOOTH"
);
},
{
closed = 1;
nodes = (
"427 661 LINE",
"434 693 LINE",
"491 704 OFFCURVE",
"517 727 OFFCURVE",
"527 771 CURVE SMOOTH",
"537 819 OFFCURVE",
"506 851 OFFCURVE",
"439 851 CURVE SMOOTH",
"406 851 OFFCURVE",
"372 846 OFFCURVE",
"348 839 CURVE",
"336 782 LINE",
"353 789 OFFCURVE",
"373 794 OFFCURVE",
"393 794 CURVE SMOOTH",
"427 794 OFFCURVE",
"441 787 OFFCURVE",
"436 762 CURVE SMOOTH",
"431 738 OFFCURVE",
"410 724 OFFCURVE",
"348 721 CURVE",
"335 661 LINE"
);
}
);
width = 591;
}
);
leftKerningGroup = a;
note = abrevehookabove;
rightKerningGroup = a;
unicode = 1EB3;
},
{
glyphname = abrevetilde;
lastChange = "2015-11-25 08:30:52 +0000";
layers = (
{
layerId = "B67427C8-F911-4143-A2F2-7B953CC18A6E";
name = "Regular Italic";
paths = (
{
closed = 1;
nodes = (
"262 -10 OFFCURVE",
"313 8 OFFCURVE",
"362 44 CURVE",
"361 0 LINE",
"477 0 LINE",
"577 474 LINE",
"442 474 LINE",
"436 443 LINE",
"403 474 OFFCURVE",
"366 484 OFFCURVE",
"313 484 CURVE SMOOTH",
"178 484 OFFCURVE",
"62 383 OFFCURVE",
"26 214 CURVE SMOOTH",
"-9 51 OFFCURVE",
"74 -10 OFFCURVE",
"196 -10 CURVE SMOOTH"
);
},
{
closed = 1;
nodes = (
"168 89 OFFCURVE",
"142 116 OFFCURVE",
"163 214 CURVE SMOOTH",
"187 326 OFFCURVE",
"243 385 OFFCURVE",
"327 385 CURVE SMOOTH",
"366 385 OFFCURVE",
"393 371 OFFCURVE",
"414 343 CURVE",
"370 132 LINE",
"333 102 OFFCURVE",
"298 89 OFFCURVE",
"254 89 CURVE SMOOTH"
);
},
{
closed = 1;
nodes = (
"465 522 OFFCURVE",
"535 567 OFFCURVE",
"559 678 CURVE",
"476 678 LINE",
"464 623 OFFCURVE",
"431 593 OFFCURVE",
"374 593 CURVE SMOOTH",
"309 593 OFFCURVE",
"295 623 OFFCURVE",
"307 678 CURVE",
"230 678 LINE",
"206 567 OFFCURVE",
"274 522 OFFCURVE",
"362 522 CURVE SMOOTH"
);
},
{
closed = 1;
nodes = (
"522 699 OFFCURVE",
"555 713 OFFCURVE",
"572 731 CURVE",
"589 817 LINE",
"568 793 OFFCURVE",
"537 779 OFFCURVE",
"499 779 CURVE SMOOTH",
"443 779 OFFCURVE",
"408 819 OFFCURVE",
"347 819 CURVE SMOOTH",
"312 819 OFFCURVE",
"275 806 OFFCURVE",
"253 788 CURVE",
"235 702 LINE",
"263 727 OFFCURVE",
"296 739 OFFCURVE",
"333 739 CURVE SMOOTH",
"382 739 OFFCURVE",
"426 699 OFFCURVE",
"485 699 CURVE SMOOTH"
);
}
);
width = 591;
}
);
leftKerningGroup = a;
note = abrevetilde;
rightKerningGroup = a;
unicode = 1EB5;
},
{
glyphname = acaron;
lastChange = "2015-11-25 08:30:51 +0000";
layers = (
{
layerId = "B67427C8-F911-4143-A2F2-7B953CC18A6E";
name = "Regular Italic";
paths = (
{
closed = 1;
nodes = (
"262 -10 OFFCURVE",
"313 8 OFFCURVE",
"362 44 CURVE",
"361 0 LINE",
"477 0 LINE",
"577 474 LINE",
"442 474 LINE",
"436 443 LINE",
"403 474 OFFCURVE",
"366 484 OFFCURVE",
"313 484 CURVE SMOOTH",
"178 484 OFFCURVE",
"62 383 OFFCURVE",
"26 214 CURVE SMOOTH",
"-9 51 OFFCURVE",
"74 -10 OFFCURVE",
"196 -10 CURVE SMOOTH"
);
},
{
closed = 1;
nodes = (
"168 89 OFFCURVE",
"142 116 OFFCURVE",
"163 214 CURVE SMOOTH",
"187 326 OFFCURVE",
"243 385 OFFCURVE",
"327 385 CURVE SMOOTH",
"366 385 OFFCURVE",
"393 371 OFFCURVE",
"414 343 CURVE",
"370 132 LINE",
"333 102 OFFCURVE",
"298 89 OFFCURVE",
"254 89 CURVE SMOOTH"
);
},
{
closed = 1;
nodes = (
"384 522 LINE",
"556 696 LINE",
"447 696 LINE",
"351 596 LINE",
"301 696 LINE",
"201 696 LINE",
"298 522 LINE"
);
}
);
width = 591;
}
);
leftKerningGroup = a;
note = acaron;
rightKerningGroup = a;
unicode = 01CE;
},
{
glyphname = acircumflex;
lastChange = "2015-11-25 08:30:53 +0000";
layers = (
{
layerId = "B67427C8-F911-4143-A2F2-7B953CC18A6E";
name = "Regular Italic";
paths = (
{
closed = 1;
nodes = (
"262 -10 OFFCURVE",
"313 8 OFFCURVE",
"362 44 CURVE",
"361 0 LINE",
"477 0 LINE",
"577 474 LINE",
"442 474 LINE",
"436 443 LINE",
"403 474 OFFCURVE",
"366 484 OFFCURVE",
"313 484 CURVE SMOOTH",
"178 484 OFFCURVE",
"62 383 OFFCURVE",
"26 214 CURVE SMOOTH",
"-9 51 OFFCURVE",
"74 -10 OFFCURVE",
"196 -10 CURVE SMOOTH"
);
},
{
closed = 1;
nodes = (
"168 89 OFFCURVE",
"142 116 OFFCURVE",
"163 214 CURVE SMOOTH",
"187 326 OFFCURVE",
"243 385 OFFCURVE",
"327 385 CURVE SMOOTH",
"366 385 OFFCURVE",
"393 371 OFFCURVE",
"414 343 CURVE",
"370 132 LINE",
"333 102 OFFCURVE",
"298 89 OFFCURVE",
"254 89 CURVE SMOOTH"
);
},
{
closed = 1;
nodes = (
"276 522 LINE",
"369 622 LINE",
"422 522 LINE",
"521 522 LINE",
"423 696 LINE",
"337 696 LINE",
"166 522 LINE"
);
}
);
width = 591;
}
);
leftKerningGroup = a;
note = acircumflex;
rightKerningGroup = a;
unicode = 00E2;
},
{
glyphname = acircumflexacute;
lastChange = "2015-11-25 08:30:52 +0000";
layers = (
{
layerId = "B67427C8-F911-4143-A2F2-7B953CC18A6E";
name = "Regular Italic";
paths = (
{
closed = 1;
nodes = (
"262 -10 OFFCURVE",
"313 8 OFFCURVE",
"362 44 CURVE",
"361 0 LINE",
"477 0 LINE",
"577 474 LINE",
"442 474 LINE",
"436 443 LINE",
"403 474 OFFCURVE",
"366 484 OFFCURVE",
"313 484 CURVE SMOOTH",
"178 484 OFFCURVE",
"62 383 OFFCURVE",
"26 214 CURVE SMOOTH",
"-9 51 OFFCURVE",
"74 -10 OFFCURVE",
"196 -10 CURVE SMOOTH"
);
},
{
closed = 1;
nodes = (
"168 89 OFFCURVE",
"142 116 OFFCURVE",
"163 214 CURVE SMOOTH",
"187 326 OFFCURVE",
"243 385 OFFCURVE",
"327 385 CURVE SMOOTH",
"366 385 OFFCURVE",
"393 371 OFFCURVE",
"414 343 CURVE",
"370 132 LINE",
"333 102 OFFCURVE",
"298 89 OFFCURVE",
"254 89 CURVE SMOOTH"
);
},
{
closed = 1;
nodes = (
"289 521 LINE",
"373 602 LINE",
"424 521 LINE",
"528 521 LINE",
"430 656 LINE",
"327 656 LINE",
"173 521 LINE"
);
},
{
closed = 1;
nodes = (
"571 638 LINE",
"674 779 LINE",
"572 779 LINE",
"477 638 LINE"
);
}
);
width = 591;
}
);
leftKerningGroup = a;
note = acircumflexacute;
rightKerningGroup = a;
unicode = 1EA5;
},
{
glyphname = acircumflexdotbelow;
lastChange = "2015-11-25 08:30:51 +0000";
layers = (
{
layerId = "B67427C8-F911-4143-A2F2-7B953CC18A6E";
name = "Regular Italic";
paths = (
{
closed = 1;
nodes = (
"262 -10 OFFCURVE",
"313 8 OFFCURVE",
"362 44 CURVE",
"361 0 LINE",
"477 0 LINE",
"577 474 LINE",
"442 474 LINE",
"436 443 LINE",
"403 474 OFFCURVE",
"366 484 OFFCURVE",
"313 484 CURVE SMOOTH",
"178 484 OFFCURVE",
"62 383 OFFCURVE",
"26 214 CURVE SMOOTH",
"-9 51 OFFCURVE",
"74 -10 OFFCURVE",
"196 -10 CURVE SMOOTH"
);
},
{
closed = 1;
nodes = (
"168 89 OFFCURVE",
"142 116 OFFCURVE",
"163 214 CURVE SMOOTH",
"187 326 OFFCURVE",
"243 385 OFFCURVE",
"327 385 CURVE SMOOTH",
"366 385 OFFCURVE",
"393 371 OFFCURVE",
"414 343 CURVE",
"370 132 LINE",
"333 102 OFFCURVE",
"298 89 OFFCURVE",
"254 89 CURVE SMOOTH"
);
},
{
closed = 1;
nodes = (
"252 -181 LINE",
"273 -82 LINE",
"166 -82 LINE",
"145 -181 LINE"
);
},
{
closed = 1;
nodes = (
"279 522 LINE",
"372 622 LINE",
"425 522 LINE",
"524 522 LINE",
"426 696 LINE",
"340 696 LINE",
"169 522 LINE"
);
}
);
width = 591;
}
);
leftKerningGroup = a;
note = acircumflexdotbelow;
rightKerningGroup = a;
unicode = 1EAD;
},
{
glyphname = acircumflexgrave;
lastChange = "2015-11-25 08:30:50 +0000";
layers = (
{
layerId = "B67427C8-F911-4143-A2F2-7B953CC18A6E";
name = "Regular Italic";
paths = (
{
closed = 1;
nodes = (
"262 -10 OFFCURVE",
"313 8 OFFCURVE",
"362 44 CURVE",
"361 0 LINE",
"477 0 LINE",
"577 474 LINE",
"442 474 LINE",
"436 443 LINE",
"403 474 OFFCURVE",
"366 484 OFFCURVE",
"313 484 CURVE SMOOTH",
"178 484 OFFCURVE",
"62 383 OFFCURVE",
"26 214 CURVE SMOOTH",
"-9 51 OFFCURVE",
"74 -10 OFFCURVE",
"196 -10 CURVE SMOOTH"
);
},
{
closed = 1;
nodes = (
"168 89 OFFCURVE",
"142 116 OFFCURVE",
"163 214 CURVE SMOOTH",
"187 326 OFFCURVE",
"243 385 OFFCURVE",
"327 385 CURVE SMOOTH",
"366 385 OFFCURVE",
"393 371 OFFCURVE",
"414 343 CURVE",
"370 132 LINE",
"333 102 OFFCURVE",
"298 89 OFFCURVE",
"254 89 CURVE SMOOTH"
);
},
{
closed = 1;
nodes = (
"267 638 LINE",
"231 779 LINE",
"129 779 LINE",
"172 638 LINE"
);
},
{
closed = 1;
nodes = (
"282 521 LINE",
"366 602 LINE",
"417 521 LINE",
"521 521 LINE",
"423 656 LINE",
"320 656 LINE",
"166 521 LINE"
);
}
);
width = 591;
}
);
leftKerningGroup = a;
note = acircumflexgrave;
rightKerningGroup = a;
unicode = 1EA7;
},
{
glyphname = acircumflexhookabove;
lastChange = "2015-11-25 08:30:52 +0000";
layers = (
{
layerId = "B67427C8-F911-4143-A2F2-7B953CC18A6E";
name = "Regular Italic";
paths = (
{
closed = 1;
nodes = (
"262 -10 OFFCURVE",
"313 8 OFFCURVE",
"362 44 CURVE",
"361 0 LINE",
"477 0 LINE",
"577 474 LINE",
"442 474 LINE",
"436 443 LINE",
"403 474 OFFCURVE",
"366 484 OFFCURVE",
"313 484 CURVE SMOOTH",
"178 484 OFFCURVE",
"62 383 OFFCURVE",
"26 214 CURVE SMOOTH",
"-9 51 OFFCURVE",
"74 -10 OFFCURVE",
"196 -10 CURVE SMOOTH"
);
},
{
closed = 1;
nodes = (
"168 89 OFFCURVE",
"142 116 OFFCURVE",
"163 214 CURVE SMOOTH",
"187 326 OFFCURVE",
"243 385 OFFCURVE",
"327 385 CURVE SMOOTH",
"366 385 OFFCURVE",
"393 371 OFFCURVE",
"414 343 CURVE",
"370 132 LINE",
"333 102 OFFCURVE",
"298 89 OFFCURVE",
"254 89 CURVE SMOOTH"
);
},
{
closed = 1;
nodes = (
"281 521 LINE",
"365 602 LINE",
"416 521 LINE",
"520 521 LINE",
"422 656 LINE",
"319 656 LINE",
"165 521 LINE"
);
},
{
closed = 1;
nodes = (
"565 616 LINE",
"572 650 LINE",
"627 658 OFFCURVE",
"656 685 OFFCURVE",
"665 729 CURVE SMOOTH",
"675 777 OFFCURVE",
"642 810 OFFCURVE",
"572 810 CURVE SMOOTH",
"535 810 OFFCURVE",
"510 805 OFFCURVE",
"488 798 CURVE",
"474 736 LINE",
"491 743 OFFCURVE",
"510 748 OFFCURVE",
"530 748 CURVE SMOOTH",
"560 748 OFFCURVE",
"573 741 OFFCURVE",
"569 721 CURVE SMOOTH",
"565 699 OFFCURVE",
"549 689 OFFCURVE",
"488 686 CURVE",
"473 616 LINE"
);
}
);
width = 591;
}
);
leftKerningGroup = a;
note = acircumflexhookabove;
rightKerningGroup = a;
unicode = 1EA9;
},
{
glyphname = acircumflextilde;
lastChange = "2015-11-25 08:30:50 +0000";
layers = (
{
layerId = "B67427C8-F911-4143-A2F2-7B953CC18A6E";
name = "Regular Italic";
paths = (
{
closed = 1;
nodes = (
"262 -10 OFFCURVE",
"313 8 OFFCURVE",
"362 44 CURVE",
"361 0 LINE",
"477 0 LINE",
"577 474 LINE",
"442 474 LINE",
"436 443 LINE",
"403 474 OFFCURVE",
"366 484 OFFCURVE",
"313 484 CURVE SMOOTH",
"178 484 OFFCURVE",
"62 383 OFFCURVE",
"26 214 CURVE SMOOTH",
"-9 51 OFFCURVE",
"74 -10 OFFCURVE",
"196 -10 CURVE SMOOTH"
);
},
{
closed = 1;
nodes = (
"168 89 OFFCURVE",
"142 116 OFFCURVE",
"163 214 CURVE SMOOTH",
"187 326 OFFCURVE",
"243 385 OFFCURVE",
"327 385 CURVE SMOOTH",
"366 385 OFFCURVE",
"393 371 OFFCURVE",
"414 343 CURVE",
"370 132 LINE",
"333 102 OFFCURVE",
"298 89 OFFCURVE",
"254 89 CURVE SMOOTH"
);
},
{
closed = 1;
nodes = (
"283 521 LINE",
"367 602 LINE",
"418 521 LINE",
"522 521 LINE",
"424 656 LINE",
"321 656 LINE",
"167 521 LINE"
);
},
{
closed = 1;
nodes = (
"508 671 OFFCURVE",
"540 685 OFFCURVE",
"556 703 CURVE",
"575 789 LINE",
"553 765 OFFCURVE",
"523 751 OFFCURVE",
"485 751 CURVE SMOOTH",
"429 751 OFFCURVE",
"393 791 OFFCURVE",
"332 791 CURVE SMOOTH",
"297 791 OFFCURVE",
"260 778 OFFCURVE",
"239 760 CURVE",
"220 674 LINE",
"249 699 OFFCURVE",
"281 711 OFFCURVE",
"318 711 CURVE SMOOTH",
"367 711 OFFCURVE",
"412 671 OFFCURVE",
"471 671 CURVE SMOOTH"
);
}
);
width = 591;
}
);
leftKerningGroup = a;
note = acircumflextilde;
rightKerningGroup = a;
unicode = 1EAB;
},
{
glyphname = adieresis;
lastChange = "2015-11-25 08:30:52 +0000";
layers = (
{
layerId = "B67427C8-F911-4143-A2F2-7B953CC18A6E";
name = "Regular Italic";
paths = (
{
closed = 1;
nodes = (
"262 -10 OFFCURVE",
"313 8 OFFCURVE",
"362 44 CURVE",
"361 0 LINE",
"477 0 LINE",
"577 474 LINE",
"442 474 LINE",
"436 443 LINE",
"403 474 OFFCURVE",
"366 484 OFFCURVE",
"313 484 CURVE SMOOTH",
"178 484 OFFCURVE",
"62 383 OFFCURVE",
"26 214 CURVE SMOOTH",
"-9 51 OFFCURVE",
"74 -10 OFFCURVE",
"196 -10 CURVE SMOOTH"
);
},
{
closed = 1;
nodes = (
"168 89 OFFCURVE",
"142 116 OFFCURVE",
"163 214 CURVE SMOOTH",
"187 326 OFFCURVE",
"243 385 OFFCURVE",
"327 385 CURVE SMOOTH",
"366 385 OFFCURVE",
"393 371 OFFCURVE",
"414 343 CURVE",
"370 132 LINE",
"333 102 OFFCURVE",
"298 89 OFFCURVE",
"254 89 CURVE SMOOTH"
);
},
{
closed = 1;
nodes = (
"311 547 LINE",
"332 645 LINE",
"227 645 LINE",
"206 547 LINE"
);
},
{
closed = 1;
nodes = (
"507 547 LINE",
"528 645 LINE",
"422 645 LINE",
"401 547 LINE"
);
}
);
width = 591;
}
);
leftKerningGroup = a;
note = adieresis;
rightKerningGroup = a;
unicode = 00E4;
},
{
glyphname = adotbelow;
lastChange = "2015-11-25 08:30:52 +0000";
layers = (
{
layerId = "B67427C8-F911-4143-A2F2-7B953CC18A6E";
name = "Regular Italic";
paths = (
{
closed = 1;
nodes = (
"262 -10 OFFCURVE",
"313 8 OFFCURVE",
"362 44 CURVE",
"361 0 LINE",
"477 0 LINE",
"577 474 LINE",
"442 474 LINE",
"436 443 LINE",
"403 474 OFFCURVE",
"366 484 OFFCURVE",
"313 484 CURVE SMOOTH",
"178 484 OFFCURVE",
"62 383 OFFCURVE",
"26 214 CURVE SMOOTH",
"-9 51 OFFCURVE",
"74 -10 OFFCURVE",
"196 -10 CURVE SMOOTH"
);
},
{
closed = 1;
nodes = (
"168 89 OFFCURVE",
"142 116 OFFCURVE",
"163 214 CURVE SMOOTH",
"187 326 OFFCURVE",
"243 385 OFFCURVE",
"327 385 CURVE SMOOTH",
"366 385 OFFCURVE",
"393 371 OFFCURVE",
"414 343 CURVE",
"370 132 LINE",
"333 102 OFFCURVE",
"298 89 OFFCURVE",
"254 89 CURVE SMOOTH"
);
},
{
closed = 1;
nodes = (
"258 -181 LINE",
"279 -82 LINE",
"172 -82 LINE",
"151 -181 LINE"
);
}
);
width = 591;
}
);
leftKerningGroup = a;
note = adotbelow;
rightKerningGroup = a;
unicode = 1EA1;
},
{
glyphname = agrave;
lastChange = "2015-11-25 08:30:50 +0000";
layers = (
{
layerId = "B67427C8-F911-4143-A2F2-7B953CC18A6E";
name = "Regular Italic";
paths = (
{
closed = 1;
nodes = (
"262 -10 OFFCURVE",
"313 8 OFFCURVE",
"362 44 CURVE",
"361 0 LINE",
"477 0 LINE",
"577 474 LINE",
"442 474 LINE",
"436 443 LINE",
"403 474 OFFCURVE",
"366 484 OFFCURVE",
"313 484 CURVE SMOOTH",
"178 484 OFFCURVE",
"62 383 OFFCURVE",
"26 214 CURVE SMOOTH",
"-9 51 OFFCURVE",
"74 -10 OFFCURVE",
"196 -10 CURVE SMOOTH"
);
},
{
closed = 1;
nodes = (
"168 89 OFFCURVE",
"142 116 OFFCURVE",
"163 214 CURVE SMOOTH",
"187 326 OFFCURVE",
"243 385 OFFCURVE",
"327 385 CURVE SMOOTH",
"366 385 OFFCURVE",
"393 371 OFFCURVE",
"414 343 CURVE",
"370 132 LINE",
"333 102 OFFCURVE",
"298 89 OFFCURVE",
"254 89 CURVE SMOOTH"
);
},
{
closed = 1;
nodes = (
"406 522 LINE",
"366 709 LINE",
"249 709 LINE",
"297 522 LINE"
);
}
);
width = 591;
}
);
leftKerningGroup = a;
note = agrave;
rightKerningGroup = a;
unicode = 00E0;
},
{
glyphname = ahookabove;
lastChange = "2015-11-25 08:30:51 +0000";
layers = (
{
layerId = "B67427C8-F911-4143-A2F2-7B953CC18A6E";
name = "Regular Italic";
paths = (
{
closed = 1;
nodes = (
"262 -10 OFFCURVE",
"313 8 OFFCURVE",
"362 44 CURVE",
"361 0 LINE",
"477 0 LINE",
"577 474 LINE",
"442 474 LINE",
"436 443 LINE",
"403 474 OFFCURVE",
"366 484 OFFCURVE",
"313 484 CURVE SMOOTH",
"178 484 OFFCURVE",
"62 383 OFFCURVE",
"26 214 CURVE SMOOTH",
"-9 51 OFFCURVE",
"74 -10 OFFCURVE",
"196 -10 CURVE SMOOTH"
);
},
{
closed = 1;
nodes = (
"168 89 OFFCURVE",
"142 116 OFFCURVE",
"163 214 CURVE SMOOTH",
"187 326 OFFCURVE",
"243 385 OFFCURVE",
"327 385 CURVE SMOOTH",
"366 385 OFFCURVE",
"393 371 OFFCURVE",
"414 343 CURVE",
"370 132 LINE",
"333 102 OFFCURVE",
"298 89 OFFCURVE",
"254 89 CURVE SMOOTH"
);
},
{
closed = 1;
nodes = (
"388 521 LINE",
"398 567 LINE",
"464 579 OFFCURVE",
"493 606 OFFCURVE",
"505 662 CURVE SMOOTH",
"517 720 OFFCURVE",
"479 758 OFFCURVE",
"394 758 CURVE SMOOTH",
"355 758 OFFCURVE",
"317 753 OFFCURVE",
"292 745 CURVE",
"277 678 LINE",
"295 685 OFFCURVE",
"323 689 OFFCURVE",
"342 689 CURVE SMOOTH",
"385 689 OFFCURVE",
"408 677 OFFCURVE",
"402 650 CURVE SMOOTH",
"396 620 OFFCURVE",
"376 606 OFFCURVE",
"302 602 CURVE",
"285 521 LINE"
);
}
);
width = 591;
}
);
leftKerningGroup = a;
note = ahookabove;
rightKerningGroup = a;
unicode = 1EA3;
},
{
glyphname = "alpha-latin";
lastChange = "2015-11-25 08:30:49 +0000";
layers = (
{
layerId = "B67427C8-F911-4143-A2F2-7B953CC18A6E";
name = "Regular Italic";
paths = (
{
closed = 1;
nodes = (
"262 -10 OFFCURVE",
"313 8 OFFCURVE",
"362 44 CURVE",
"361 0 LINE",
"477 0 LINE",
"577 474 LINE",
"442 474 LINE",
"436 443 LINE",
"403 474 OFFCURVE",
"366 484 OFFCURVE",
"313 484 CURVE SMOOTH",
"178 484 OFFCURVE",
"62 383 OFFCURVE",
"26 214 CURVE SMOOTH",
"-9 51 OFFCURVE",
"74 -10 OFFCURVE",
"196 -10 CURVE SMOOTH"
);
},
{
closed = 1;
nodes = (
"168 89 OFFCURVE",
"142 116 OFFCURVE",
"163 214 CURVE SMOOTH",
"187 326 OFFCURVE",
"243 385 OFFCURVE",
"327 385 CURVE SMOOTH",
"366 385 OFFCURVE",
"393 371 OFFCURVE",
"414 343 CURVE",
"370 132 LINE",
"333 102 OFFCURVE",
"298 89 OFFCURVE",
"254 89 CURVE SMOOTH"
);
}
);
width = 591;
}
);
leftKerningGroup = a;
note = ascript;
rightKerningGroup = a;
unicode = 0251;
},
{
glyphname = amacron;
lastChange = "2015-11-25 08:30:52 +0000";
layers = (
{
layerId = "B67427C8-F911-4143-A2F2-7B953CC18A6E";
name = "Regular Italic";
paths = (
{
closed = 1;
nodes = (
"262 -10 OFFCURVE",
"313 8 OFFCURVE",
"362 44 CURVE",
"361 0 LINE",
"477 0 LINE",
"577 474 LINE",
"442 474 LINE",
"436 443 LINE",
"403 474 OFFCURVE",
"366 484 OFFCURVE",
"313 484 CURVE SMOOTH",
"178 484 OFFCURVE",
"62 383 OFFCURVE",
"26 214 CURVE SMOOTH",
"-9 51 OFFCURVE",
"74 -10 OFFCURVE",
"196 -10 CURVE SMOOTH"
);
},
{
closed = 1;
nodes = (
"168 89 OFFCURVE",
"142 116 OFFCURVE",
"163 214 CURVE SMOOTH",
"187 326 OFFCURVE",
"243 385 OFFCURVE",
"327 385 CURVE SMOOTH",
"366 385 OFFCURVE",
"393 371 OFFCURVE",
"414 343 CURVE",
"370 132 LINE",
"333 102 OFFCURVE",
"298 89 OFFCURVE",
"254 89 CURVE SMOOTH"
);
},
{
closed = 1;
nodes = (
"511 541 LINE",
"528 624 LINE",
"221 624 LINE",
"204 541 LINE"
);
}
);
width = 591;
}
);
leftKerningGroup = a;
note = amacron;
rightKerningGroup = a;
unicode = 0101;
},
{
glyphname = aogonek;
lastChange = "2015-11-25 08:30:49 +0000";
layers = (
{
layerId = "B67427C8-F911-4143-A2F2-7B953CC18A6E";
name = "Regular Italic";
paths = (
{
closed = 1;
nodes = (
"406 -220 OFFCURVE",
"440 -214 OFFCURVE",
"460 -206 CURVE",
"476 -130 LINE",
"462 -137 OFFCURVE",
"442 -141 OFFCURVE",
"426 -141 CURVE SMOOTH",
"399 -141 OFFCURVE",
"382 -132 OFFCURVE",
"388 -104 CURVE SMOOTH",
"396 -66 OFFCURVE",
"430 -30 OFFCURVE",
"477 0 CURVE",
"577 474 LINE",
"442 474 LINE",
"436 443 LINE",
"403 474 OFFCURVE",
"366 484 OFFCURVE",
"313 484 CURVE SMOOTH",
"178 484 OFFCURVE",
"62 383 OFFCURVE",
"26 214 CURVE SMOOTH",
"-9 51 OFFCURVE",
"74 -10 OFFCURVE",
"196 -10 CURVE SMOOTH",
"262 -10 OFFCURVE",
"313 8 OFFCURVE",
"362 44 CURVE",
"361 0 LINE",
"329 -27 OFFCURVE",
"289 -72 OFFCURVE",
"277 -129 CURVE SMOOTH",
"264 -191 OFFCURVE",
"312 -220 OFFCURVE",
"373 -220 CURVE SMOOTH"
);
},
{
closed = 1;
nodes = (
"168 89 OFFCURVE",
"142 116 OFFCURVE",
"163 214 CURVE SMOOTH",
"187 326 OFFCURVE",
"243 385 OFFCURVE",
"327 385 CURVE SMOOTH",
"366 385 OFFCURVE",
"393 371 OFFCURVE",
"414 343 CURVE",
"370 132 LINE",
"333 102 OFFCURVE",
"298 89 OFFCURVE",
"254 89 CURVE SMOOTH"
);
}
);
width = 591;
}
);
leftKerningGroup = a;
note = aogonek;
rightKerningGroup = a;
unicode = 0105;
},
{
glyphname = aring;
lastChange = "2015-11-25 08:30:51 +0000";
layers = (
{
layerId = "B67427C8-F911-4143-A2F2-7B953CC18A6E";
name = "Regular Italic";
paths = (
{
closed = 1;
nodes = (
"262 -10 OFFCURVE",
"313 8 OFFCURVE",
"362 44 CURVE",
"361 0 LINE",
"477 0 LINE",
"577 474 LINE",
"442 474 LINE",
"436 443 LINE",
"403 474 OFFCURVE",
"366 484 OFFCURVE",
"313 484 CURVE SMOOTH",
"178 484 OFFCURVE",
"62 383 OFFCURVE",
"26 214 CURVE SMOOTH",
"-9 51 OFFCURVE",
"74 -10 OFFCURVE",
"196 -10 CURVE SMOOTH"
);
},
{
closed = 1;
nodes = (
"168 89 OFFCURVE",
"142 116 OFFCURVE",
"163 214 CURVE SMOOTH",
"187 326 OFFCURVE",
"243 385 OFFCURVE",
"327 385 CURVE SMOOTH",
"366 385 OFFCURVE",
"393 371 OFFCURVE",
"414 343 CURVE",
"370 132 LINE",
"333 102 OFFCURVE",
"298 89 OFFCURVE",
"254 89 CURVE SMOOTH"
);
},
{
closed = 1;
nodes = (
"438 522 OFFCURVE",
"491 574 OFFCURVE",
"505 641 CURVE SMOOTH",
"519 708 OFFCURVE",
"483 761 OFFCURVE",
"405 761 CURVE SMOOTH",
"326 761 OFFCURVE",
"270 708 OFFCURVE",
"257 641 CURVE SMOOTH",
"243 574 OFFCURVE",
"279 522 OFFCURVE",
"355 522 CURVE SMOOTH"
);
},
{
closed = 1;
nodes = (
"333 584 OFFCURVE",
"315 609 OFFCURVE",
"322 641 CURVE SMOOTH",
"329 673 OFFCURVE",
"353 698 OFFCURVE",
"392 698 CURVE SMOOTH",
"429 698 OFFCURVE",
"446 673 OFFCURVE",
"439 641 CURVE SMOOTH",
"432 609 OFFCURVE",
"410 584 OFFCURVE",
"368 584 CURVE SMOOTH"
);
}
);
width = 591;
}
);
leftKerningGroup = a;
note = aring;
rightKerningGroup = a;
unicode = 00E5;
},
{
glyphname = aringacute;
lastChange = "2015-11-25 08:30:52 +0000";
layers = (
{
layerId = "B67427C8-F911-4143-A2F2-7B953CC18A6E";
name = "Regular Italic";
paths = (
{
closed = 1;
nodes = (
"262 -10 OFFCURVE",
"313 8 OFFCURVE",
"362 44 CURVE",
"361 0 LINE",
"477 0 LINE",
"577 474 LINE",
"442 474 LINE",
"436 443 LINE",
"403 474 OFFCURVE",
"366 484 OFFCURVE",
"313 484 CURVE SMOOTH",
"178 484 OFFCURVE",
"62 383 OFFCURVE",
"26 214 CURVE SMOOTH",
"-9 51 OFFCURVE",
"74 -10 OFFCURVE",
"196 -10 CURVE SMOOTH"
);
},
{
closed = 1;
nodes = (
"168 89 OFFCURVE",
"142 116 OFFCURVE",
"163 214 CURVE SMOOTH",
"187 326 OFFCURVE",
"243 385 OFFCURVE",
"327 385 CURVE SMOOTH",
"366 385 OFFCURVE",
"393 371 OFFCURVE",
"414 343 CURVE",
"370 132 LINE",
"333 102 OFFCURVE",
"298 89 OFFCURVE",
"254 89 CURVE SMOOTH"
);
},
{
closed = 1;
nodes = (
"437 517 OFFCURVE",
"490 569 OFFCURVE",
"504 636 CURVE SMOOTH",
"518 703 OFFCURVE",
"482 756 OFFCURVE",
"404 756 CURVE SMOOTH",
"325 756 OFFCURVE",
"269 703 OFFCURVE",
"256 636 CURVE SMOOTH",
"242 569 OFFCURVE",
"278 517 OFFCURVE",
"354 517 CURVE SMOOTH"
);
},
{
closed = 1;
nodes = (
"332 579 OFFCURVE",
"314 604 OFFCURVE",
"321 636 CURVE SMOOTH",
"328 668 OFFCURVE",
"352 693 OFFCURVE",
"391 693 CURVE SMOOTH",
"428 693 OFFCURVE",
"445 668 OFFCURVE",
"438 636 CURVE SMOOTH",
"431 604 OFFCURVE",
"409 579 OFFCURVE",
"367 579 CURVE SMOOTH"
);
},
{
closed = 1;
nodes = (
"484 786 LINE",
"612 935 LINE",
"495 935 LINE",
"375 786 LINE"
);
}
);
width = 591;
}
);
leftKerningGroup = a;
note = aringacute;
rightKerningGroup = a;
unicode = 01FB;
},
{
glyphname = atilde;
lastChange = "2015-11-25 08:30:50 +0000";
layers = (
{
layerId = "B67427C8-F911-4143-A2F2-7B953CC18A6E";
name = "Regular Italic";
paths = (
{
closed = 1;
nodes = (
"262 -10 OFFCURVE",
"313 8 OFFCURVE",
"362 44 CURVE",
"361 0 LINE",
"477 0 LINE",
"577 474 LINE",
"442 474 LINE",
"436 443 LINE",
"403 474 OFFCURVE",
"366 484 OFFCURVE",
"313 484 CURVE SMOOTH",
"178 484 OFFCURVE",
"62 383 OFFCURVE",
"26 214 CURVE SMOOTH",
"-9 51 OFFCURVE",
"74 -10 OFFCURVE",
"196 -10 CURVE SMOOTH"
);
},
{
closed = 1;
nodes = (
"168 89 OFFCURVE",
"142 116 OFFCURVE",
"163 214 CURVE SMOOTH",
"187 326 OFFCURVE",
"243 385 OFFCURVE",
"327 385 CURVE SMOOTH",
"366 385 OFFCURVE",
"393 371 OFFCURVE",
"414 343 CURVE",
"370 132 LINE",
"333 102 OFFCURVE",
"298 89 OFFCURVE",
"254 89 CURVE SMOOTH"
);
},
{
closed = 1;
nodes = (
"478 534 OFFCURVE",
"511 548 OFFCURVE",
"527 566 CURVE",
"548 662 LINE",
"526 638 OFFCURVE",
"495 624 OFFCURVE",
"457 624 CURVE SMOOTH",
"401 624 OFFCURVE",
"365 664 OFFCURVE",
"304 664 CURVE SMOOTH",
"269 664 OFFCURVE",
"233 651 OFFCURVE",
"211 633 CURVE",
"190 537 LINE",
"219 562 OFFCURVE",
"251 574 OFFCURVE",
"288 574 CURVE SMOOTH",
"337 574 OFFCURVE",
"382 534 OFFCURVE",
"441 534 CURVE SMOOTH"
);
}
);
width = 591;
}
);
leftKerningGroup = a;
note = atilde;
rightKerningGroup = a;
unicode = 00E3;
},
{
glyphname = ae;
lastChange = "2015-11-25 08:30:52 +0000";
layers = (
{
layerId = "B67427C8-F911-4143-A2F2-7B953CC18A6E";
name = "Regular Italic";
paths = (
{
closed = 1;
nodes = (
"274 -10 OFFCURVE",
"338 17 OFFCURVE",
"408 67 CURVE",
"437 16 OFFCURVE",
"513 -10 OFFCURVE",
"585 -10 CURVE SMOOTH",
"654 -10 OFFCURVE",
"717 0 OFFCURVE",
"765 20 CURVE",
"785 113 LINE",
"744 98 OFFCURVE",
"684 88 OFFCURVE",
"634 88 CURVE SMOOTH",
"533 88 OFFCURVE",
"484 114 OFFCURVE",
"486 190 CURVE",
"829 190 LINE",
"847 276 LINE SMOOTH",
"874 400 OFFCURVE",
"811 484 OFFCURVE",
"664 484 CURVE SMOOTH",
"594 484 OFFCURVE",
"528 466 OFFCURVE",
"481 432 CURVE",
"451 468 OFFCURVE",
"401 484 OFFCURVE",
"324 484 CURVE SMOOTH",
"249 484 OFFCURVE",
"182 471 OFFCURVE",
"134 454 CURVE",
"114 359 LINE",
"165 375 OFFCURVE",
"222 384 OFFCURVE",
"275 384 CURVE SMOOTH",
"373 384 OFFCURVE",
"393 362 OFFCURVE",
"381 304 CURVE SMOOTH",
"378 291 LINE",
"238 291 LINE SMOOTH",
"108 291 OFFCURVE",
"29 230 OFFCURVE",
"10 137 CURVE SMOOTH",
"-11 39 OFFCURVE",
"67 -10 OFFCURVE",
"159 -10 CURVE SMOOTH"
);
},
{
closed = 1;
nodes = (
"136 79 OFFCURVE",
"122 102 OFFCURVE",
"131 142 CURVE SMOOTH",
"140 186 OFFCURVE",
"170 207 OFFCURVE",
"223 207 CURVE SMOOTH",
"360 207 LINE",
"344 128 LINE",
"308 98 OFFCURVE",
"263 79 OFFCURVE",
"203 79 CURVE SMOOTH"
);
},
{
closed = 1;
nodes = (
"521 353 OFFCURVE",
"559 387 OFFCURVE",
"648 387 CURVE SMOOTH",
"733 387 OFFCURVE",
"746 353 OFFCURVE",
"734 299 CURVE SMOOTH",
"729 273 LINE",
"504 273 LINE"
);
}
);
width = 882;
}
);
leftKerningGroup = a;
note = ae;
rightKerningGroup = e;
unicode = 00E6;
},
{
glyphname = aeacute;
lastChange = "2015-11-25 08:30:52 +0000";
layers = (
{
layerId = "B67427C8-F911-4143-A2F2-7B953CC18A6E";
name = "Regular Italic";
paths = (
{
closed = 1;
nodes = (
"274 -10 OFFCURVE",
"338 17 OFFCURVE",
"408 67 CURVE",
"437 16 OFFCURVE",
"513 -10 OFFCURVE",
"585 -10 CURVE SMOOTH",
"654 -10 OFFCURVE",
"717 0 OFFCURVE",
"765 20 CURVE",
"785 113 LINE",
"744 98 OFFCURVE",
"684 88 OFFCURVE",
"634 88 CURVE SMOOTH",
"533 88 OFFCURVE",
"484 114 OFFCURVE",
"486 190 CURVE",
"829 190 LINE",
"847 276 LINE SMOOTH",
"874 400 OFFCURVE",
"811 484 OFFCURVE",
"664 484 CURVE SMOOTH",
"594 484 OFFCURVE",
"528 466 OFFCURVE",
"481 432 CURVE",
"451 468 OFFCURVE",
"401 484 OFFCURVE",
"324 484 CURVE SMOOTH",
"249 484 OFFCURVE",
"182 471 OFFCURVE",
"134 454 CURVE",
"114 359 LINE",
"165 375 OFFCURVE",
"222 384 OFFCURVE",
"275 384 CURVE SMOOTH",
"373 384 OFFCURVE",
"393 362 OFFCURVE",
"381 304 CURVE SMOOTH",
"378 291 LINE",
"238 291 LINE SMOOTH",
"108 291 OFFCURVE",
"29 230 OFFCURVE",
"10 137 CURVE SMOOTH",
"-11 39 OFFCURVE",
"67 -10 OFFCURVE",
"159 -10 CURVE SMOOTH"
);
},
{
closed = 1;
nodes = (
"136 79 OFFCURVE",
"122 102 OFFCURVE",
"131 142 CURVE SMOOTH",
"140 186 OFFCURVE",
"170 207 OFFCURVE",
"223 207 CURVE SMOOTH",
"360 207 LINE",
"344 128 LINE",
"308 98 OFFCURVE",
"263 79 OFFCURVE",
"203 79 CURVE SMOOTH"
);
},
{
closed = 1;
nodes = (
"521 353 OFFCURVE",
"559 387 OFFCURVE",
"648 387 CURVE SMOOTH",
"733 387 OFFCURVE",
"746 353 OFFCURVE",
"734 299 CURVE SMOOTH",
"729 273 LINE",
"504 273 LINE"
);
},
{
closed = 1;
nodes = (
"547 522 LINE",
"675 709 LINE",
"558 709 LINE",
"438 522 LINE"
);
}
);
width = 882;
}
);
leftKerningGroup = a;
note = aeacute;
rightKerningGroup = e;
unicode = 01FD;
},
{
glyphname = b;
lastChange = "2015-11-25 08:30:50 +0000";
layers = (
{
layerId = "B67427C8-F911-4143-A2F2-7B953CC18A6E";
name = "Regular Italic";
paths = (
{
closed = 1;
nodes = (
"422 -10 OFFCURVE",
"513 70 OFFCURVE",
"548 241 CURVE SMOOTH",
"582 408 OFFCURVE",
"501 484 OFFCURVE",
"378 484 CURVE SMOOTH",
"326 484 OFFCURVE",
"275 472 OFFCURVE",
"231 448 CURVE",
"279 674 LINE",
"144 674 LINE",
"1 0 LINE",
"118 0 LINE",
"134 44 LINE",
"164 11 OFFCURVE",
"210 -10 OFFCURVE",
"277 -10 CURVE SMOOTH"
);
},
{
closed = 1;
nodes = (
"219 89 OFFCURVE",
"184 104 OFFCURVE",
"164 132 CURVE",
"210 350 LINE",
"240 373 OFFCURVE",
"280 385 OFFCURVE",
"322 385 CURVE SMOOTH",
"413 385 OFFCURVE",
"433 346 OFFCURVE",
"411 241 CURVE SMOOTH",
"389 139 OFFCURVE",
"346 89 OFFCURVE",
"260 89 CURVE SMOOTH"
);
}
);
width = 590;
}
);
note = b;
unicode = 0062;
},
{
glyphname = c;
lastChange = "2015-11-25 08:30:50 +0000";
layers = (
{
layerId = "B67427C8-F911-4143-A2F2-7B953CC18A6E";
name = "Regular Italic";
paths = (
{
closed = 1;
nodes = (
"303 -10 OFFCURVE",
"357 -1 OFFCURVE",
"408 19 CURVE",
"429 119 LINE",
"386 100 OFFCURVE",
"338 91 OFFCURVE",
"292 91 CURVE SMOOTH",
"170 91 OFFCURVE",
"146 135 OFFCURVE",
"168 237 CURVE SMOOTH",
"191 348 OFFCURVE",
"254 383 OFFCURVE",
"355 383 CURVE SMOOTH",
"405 383 OFFCURVE",
"449 373 OFFCURVE",
"478 357 CURVE",
"499 454 LINE",
"458 475 OFFCURVE",
"416 484 OFFCURVE",
"349 484 CURVE SMOOTH",
"175 484 OFFCURVE",
"66 404 OFFCURVE",
"31 237 CURVE SMOOTH",
"-4 75 OFFCURVE",
"87 -10 OFFCURVE",
"240 -10 CURVE SMOOTH"
);
}
);
width = 497;
}
);
leftKerningGroup = c;
note = c;
rightKerningGroup = c;
unicode = 0063;
},
